<svg width="80" height="80" viewBox="0 0 80 80" fill="none" xmlns="http://www.w3.org/2000/svg">
<path fill-rule="evenodd" clip-rule="evenodd" d="M75 15C74.4486 15 74 14.5514 74 14C74 13.4486 74.4486 13 75 13C75.5514 13 76 13.4486 76 14C76 14.5514 75.5514 15 75 15Z" fill="#ECECFE"/>
<path fill-rule="evenodd" clip-rule="evenodd" d="M7 6C6.4486 6 6 5.5514 6 5C6 4.44855 6.4486 4 7 4C7.5514 4 8 4.44855 8 5C8 5.5514 7.5514 6 7 6Z" fill="#ECECFE"/>
<path fill-rule="evenodd" clip-rule="evenodd" d="M10 75C9.4486 75 9 74.5514 9 74C9 73.4486 9.4486 73 10 73C10.5514 73 11 73.4486 11 74C11 74.5514 10.5514 75 10 75Z" fill="#ECECFE"/>
<path d="M55.7 69.3129C55.5 69.3129 55.2 69.2129 55.1 69.1129C54.9 68.9129 54.8 68.7129 54.7 68.4129L50 12.6129C50 12.0129 50.4 11.6129 50.9 11.5129L68.8 10.0129C69.4 9.91287 69.8 10.4129 69.9 10.9129L70.1 13.5129L74.6 66.8129C74.6 67.3129 74.2 67.8129 73.7 67.9129L55.7 69.3129ZM52.1 13.4129L56.6 67.2129L72.5 65.9129L68 12.1129L52.1 13.4129Z" fill="#E1000F"/>
<path d="M64 64.6129C62.8 64.6129 61.7 64.2129 60.8 63.4129C59.8 62.5129 59.2 61.3129 59 60.0129C58.9 58.7129 59.3 57.4129 60.2 56.4129C61.1 55.4129 62.3 54.8129 63.6 54.6129C64.9 54.5129 66.2 54.9129 67.2 55.8129C68.2 56.7129 68.8 57.9129 69 59.2129C69.1 60.5129 68.7 61.8129 67.8 62.8129C66.9 63.8129 65.7 64.4129 64.4 64.6129C64.2 64.6129 64.1 64.6129 64 64.6129ZM64 56.6129C63.9 56.6129 63.8 56.6129 63.7 56.6129C62.9 56.7129 62.2 57.0129 61.7 57.7129C61.2 58.4129 60.9 59.1129 61 59.9129C61.1 60.7129 61.4 61.4129 62.1 61.9129C62.7 62.4129 63.5 62.7129 64.3 62.6129C65.1 62.5129 65.8 62.2129 66.3 61.5129C66.8 60.9129 67.1 60.1129 67 59.3129C66.9 58.5129 66.6 57.8129 65.9 57.3129C65.4 56.8129 64.7 56.6129 64 56.6129Z" fill="#E1000F"/>
<path d="M57.5 43.1129C57 43.1129 56.5 42.7129 56.5 42.2129L54.3 16.3129C54.3 15.7129 54.7 15.3129 55.2 15.2129L65.2 14.4129C65.5 14.4129 65.7 14.5129 65.9 14.6129C66.1 14.8129 66.2 15.0129 66.3 15.3129L68.5 41.2129C68.5 41.5129 68.4 41.7129 68.3 41.9129C68.1 42.1129 67.9 42.2129 67.6 42.3129L57.5 43.1129ZM56.4 17.1129L58.4 41.0129L66.4 40.3129L64.4 16.4129L56.4 17.1129Z" fill="#E1000F"/>
<path d="M57.8 47.0129C57.3 47.0129 56.8 46.6129 56.8 46.1129C56.8 45.6129 57.2 45.1129 57.7 45.0129L63.7 44.5129C64.3 44.4129 64.7 44.9129 64.8 45.4129C64.8 45.9129 64.4 46.4129 63.9 46.5129L57.8 47.0129Z" fill="#E1000F"/>
<path d="M67.8 46.2129C67.5 46.2129 67.3 46.1129 67.1 45.9129C66.9 45.7129 66.8 45.5129 66.8 45.2129C66.8 45.1129 66.8 44.9129 66.9 44.8129C67 44.7129 67 44.6129 67.1 44.5129L67.2 44.4129C67.3 44.4129 67.3 44.3129 67.4 44.3129C67.5 44.3129 67.5 44.2129 67.6 44.2129C67.7 44.2129 67.9 44.2129 68 44.2129C68.1 44.2129 68.1 44.2129 68.2 44.3129C68.3 44.3129 68.3 44.3129 68.4 44.4129C68.5 44.4129 68.5 44.5129 68.6 44.5129C68.7 44.6129 68.8 44.7129 68.8 44.8129C68.8 44.9129 68.9 45.0129 68.9 45.2129C68.9 45.5129 68.8 45.7129 68.6 45.9129C68.3 46.1129 68 46.2129 67.8 46.2129Z" fill="#E1000F"/>
<path d="M47 69.313H29C28.4 69.313 28 68.913 28 68.313V12.313C28 11.713 28.4 11.313 29 11.313H47C47.6 11.313 48 11.713 48 12.313V68.313C48 68.913 47.6 69.313 47 69.313ZM30 67.313H46V13.313H30V67.313Z" fill="#000091"/>
<path d="M38 65.313C35.2 65.313 33 63.113 33 60.313C33 57.513 35.2 55.313 38 55.313C40.8 55.313 43 57.513 43 60.313C43 63.113 40.8 65.313 38 65.313ZM38 57.313C36.3 57.313 35 58.613 35 60.313C35 62.013 36.3 63.313 38 63.313C39.7 63.313 41 62.013 41 60.313C41 58.613 39.7 57.313 38 57.313Z" fill="#000091"/>
<path d="M43 43.313H33C32.4 43.313 32 42.913 32 42.313V16.313C32 15.713 32.4 15.313 33 15.313H43C43.6 15.313 44 15.713 44 16.313V42.313C44 42.913 43.6 43.313 43 43.313ZM34 41.313H42V17.313H34V41.313Z" fill="#000091"/>
<path d="M39 47.313H33C32.4 47.313 32 46.913 32 46.313C32 45.713 32.4 45.313 33 45.313H39C39.6 45.313 40 45.713 40 46.313C40 46.913 39.6 47.313 39 47.313Z" fill="#000091"/>
<path d="M43 47.313C42.9 47.313 42.7 47.313 42.6 47.213C42.5 47.113 42.4 47.113 42.3 47.013C42.1 46.813 42 46.613 42 46.313C42 46.213 42 46.013 42.1 45.913C42.1 45.813 42.2 45.713 42.3 45.613C42.5 45.413 42.9 45.313 43.2 45.313C43.3 45.313 43.3 45.313 43.4 45.413C43.5 45.413 43.5 45.413 43.6 45.513C43.7 45.513 43.7 45.613 43.8 45.613C44 45.813 44.1 46.113 44.1 46.313C44.1 46.613 44 46.813 43.8 47.013C43.7 47.113 43.6 47.213 43.5 47.213C43.4 47.213 43.1 47.313 43 47.313Z" fill="#000091"/>
<path d="M25 69.313H7C6.4 69.313 6 68.913 6 68.313V58.513C6 57.913 6.4 57.513 7 57.513C7.6 57.513 8 57.913 8 58.513V67.313H24V13.313H8V52.513C8 53.113 7.6 53.513 7 53.513C6.4 53.513 6 53.113 6 52.513V12.313C6 11.713 6.4 11.313 7 11.313H25C25.6 11.313 26 11.713 26 12.313V68.313C26 68.913 25.6 69.313 25 69.313Z" fill="#000091"/>
<path d="M16 65.313C13.2 65.313 11 63.113 11 60.313C11 57.513 13.2 55.313 16 55.313C18.8 55.313 21 57.513 21 60.313C21 63.113 18.8 65.313 16 65.313ZM16 57.313C14.3 57.313 13 58.613 13 60.313C13 62.013 14.3 63.313 16 63.313C17.7 63.313 19 62.013 19 60.313C19 58.613 17.7 57.313 16 57.313Z" fill="#000091"/>
<path d="M21 43.313H11C10.4 43.313 10 42.913 10 42.313V16.313C10 15.713 10.4 15.313 11 15.313H21C21.6 15.313 22 15.713 22 16.313V42.313C22 42.913 21.6 43.313 21 43.313ZM12 41.313H20V17.313H12V41.313Z" fill="#000091"/>
<path d="M17 47.313H11C10.4 47.313 10 46.913 10 46.313C10 45.713 10.4 45.313 11 45.313H17C17.6 45.313 18 45.713 18 46.313C18 46.913 17.6 47.313 17 47.313Z" fill="#000091"/>
<path d="M21 47.313C20.9 47.313 20.7 47.313 20.6 47.213C20.5 47.113 20.4 47.113 20.3 47.013C20.1 46.813 20 46.613 20 46.313C20 46.213 20 46.013 20.1 45.913C20.2 45.813 20.2 45.713 20.3 45.613C20.7 45.213 21.3 45.213 21.7 45.613C21.8 45.713 21.9 45.813 21.9 45.913C22 46.013 22 46.213 22 46.313C22 46.613 21.9 46.813 21.7 47.013C21.6 47.113 21.5 47.213 21.4 47.213C21.3 47.213 21.1 47.313 21 47.313Z" fill="#000091"/>
</svg>
