<svg width="80" height="80" viewBox="0 0 80 80" fill="none" xmlns="http://www.w3.org/2000/svg">
<path fill-rule="evenodd" clip-rule="evenodd" d="M16 7C15.4486 7 15 6.5514 15 6C15 5.44855 15.4486 5 16 5C16.5514 5 17 5.44855 17 6C17 6.5514 16.5514 7 16 7Z" fill="#ECECFE"/>
<path fill-rule="evenodd" clip-rule="evenodd" d="M20 75C19.4486 75 19 74.5514 19 74C19 73.4486 19.4486 73 20 73C20.5514 73 21 73.4486 21 74C21 74.5514 20.5514 75 20 75Z" fill="#ECECFE"/>
<path fill-rule="evenodd" clip-rule="evenodd" d="M62 73C61.4486 73 61 72.5514 61 72C61 71.4486 61.4486 71 62 71C62.5514 71 63 71.4486 63 72C63 72.5514 62.5514 73 62 73Z" fill="#ECECFE"/>
<path fill-rule="evenodd" clip-rule="evenodd" d="M64 9C63.4486 9 63 8.5514 63 8C63 7.44855 63.4486 7 64 7C64.5514 7 65 7.44855 65 8C65 8.5514 64.5514 9 64 9Z" fill="#ECECFE"/>
<path fill-rule="evenodd" clip-rule="evenodd" d="M40 79C39.4486 79 39 78.5514 39 78C39 77.4486 39.4486 77 40 77C40.5514 77 41 77.4486 41 78C41 78.5514 40.5514 79 40 79Z" fill="#ECECFE"/>
<path d="M48.8202 39.8999C48.7502 39.8999 48.6802 39.8999 48.6002 39.8899C47.7502 39.7999 47.0602 39.1999 46.8602 38.3599C46.5602 37.0899 45.9102 35.9299 44.9902 35.0099C44.0702 34.0899 42.9102 33.4399 41.6402 33.1399C41.1002 33.0099 40.7702 32.4699 40.9002 31.9299C41.0302 31.3899 41.5702 31.0599 42.1102 31.1899C43.7402 31.5799 45.2202 32.4099 46.4102 33.5999C47.6002 34.7899 48.4302 36.2699 48.8202 37.8999L54.8402 25.1699L46.6702 29.0399C46.1702 29.2799 45.5802 29.0599 45.3402 28.5599C45.1002 28.0599 45.3202 27.4599 45.8202 27.2299L56.5202 22.1599C56.9002 21.9799 57.3602 22.0599 57.6502 22.3599C57.9502 22.6599 58.0302 23.1099 57.8502 23.4999L50.6202 38.7599C50.2802 39.4599 49.5902 39.8899 48.8202 39.8999Z" fill="#E1000F"/>
<path d="M40.0502 62.9999C38.8502 62.9999 37.6502 62.9099 36.4402 62.7199C35.8902 62.6299 35.5202 62.1199 35.6102 61.5799C35.7002 61.0299 36.2102 60.6699 36.7502 60.7499C42.2902 61.6199 47.8402 60.2799 52.3702 56.9699C52.8202 56.6399 53.4402 56.7399 53.7702 57.1899C54.1002 57.6399 54.0002 58.2599 53.5502 58.5899C49.5702 61.4899 44.8802 62.9999 40.0502 62.9999Z" fill="#E1000F"/>
<path d="M40 69C24.01 69 11 55.99 11 40C11 24.01 24.01 11 40 11C55.99 11 69 24.01 69 40C69 45.24 67.58 50.38 64.91 54.86C64.63 55.33 64.01 55.49 63.54 55.21C63.07 54.93 62.91 54.31 63.19 53.84C65.68 49.67 67 44.88 67 40C67 25.11 54.89 13 40 13C25.11 13 13 25.11 13 40C13 54.89 25.11 67 40 67C47.21 67 53.99 64.19 59.09 59.09C59.48 58.7 60.11 58.7 60.5 59.09C60.89 59.48 60.89 60.11 60.5 60.5C55.03 65.98 47.75 69 40 69Z" fill="#000091"/>
<path d="M8 40.9999C7.45 40.9999 7 40.5499 7 39.9999C7 34.3699 8.44 28.8099 11.18 23.9199C11.45 23.4399 12.06 23.2699 12.54 23.5299C13.02 23.7999 13.19 24.4099 12.93 24.8899C10.36 29.4899 9 34.7099 9 39.9999C9 40.5499 8.55 40.9999 8 40.9999Z" fill="#000091"/>
<path d="M39.9999 45.0599C37.2099 45.0599 34.9399 42.7899 34.9399 39.9999C34.9399 37.2099 37.2099 34.9399 39.9999 34.9399C42.7899 34.9399 45.0599 37.2099 45.0599 39.9999C45.0599 42.7899 42.7899 45.0599 39.9999 45.0599ZM39.9999 36.9399C38.3099 36.9399 36.9399 38.3099 36.9399 39.9999C36.9399 41.6899 38.3099 43.0599 39.9999 43.0599C41.6899 43.0599 43.0599 41.6899 43.0599 39.9999C43.0599 38.3099 41.6899 36.9399 39.9999 36.9399Z" fill="#000091"/>
<path d="M23.0599 57.94C22.7999 57.94 22.5399 57.84 22.3499 57.65C22.0499 57.35 21.9699 56.9 22.1499 56.52L29.3799 41.26C29.7499 40.48 30.5399 40.04 31.3899 40.13C32.2399 40.22 32.9299 40.82 33.1299 41.66C33.4299 42.93 34.0799 44.09 34.9999 45.01C35.9199 45.93 37.0799 46.58 38.3499 46.88C38.8899 47.01 39.2199 47.55 39.0899 48.09C38.9599 48.63 38.4199 48.96 37.8799 48.83C36.2499 48.44 34.7699 47.61 33.5799 46.42C32.3899 45.23 31.5599 43.75 31.1799 42.12L25.1599 54.85L33.7999 50.76C34.2999 50.53 34.8999 50.74 35.1299 51.24C35.3699 51.74 35.1499 52.33 34.6499 52.57L23.4799 57.86C23.3599 57.9 23.2099 57.94 23.0599 57.94Z" fill="#000091"/>
</svg>
