<svg width="80" height="80" viewBox="0 0 80 80" fill="none" xmlns="http://www.w3.org/2000/svg">
<path fill-rule="evenodd" clip-rule="evenodd" d="M76 70C75.4486 70 75 69.5514 75 69C75 68.4486 75.4486 68 76 68C76.5514 68 77 68.4486 77 69C77 69.5514 76.5514 70 76 70Z" fill="#ECECFE"/>
<path fill-rule="evenodd" clip-rule="evenodd" d="M39 4C38.4486 4 38 3.5514 38 3C38 2.44855 38.4486 2 39 2C39.5514 2 40 2.44855 40 3C40 3.5514 39.5514 4 39 4Z" fill="#ECECFE"/>
<path fill-rule="evenodd" clip-rule="evenodd" d="M4 62C3.4486 62 3 61.5514 3 61C3 60.4486 3.4486 60 4 60C4.5514 60 5 60.4486 5 61C5 61.5514 4.5514 62 4 62Z" fill="#ECECFE"/>
<path fill-rule="evenodd" clip-rule="evenodd" d="M54.2514 44.195L58.1351 34.8337C58.5584 33.8135 59.7286 33.3295 60.7488 33.7528C61.2361 33.955 61.6238 34.3414 61.8274 34.8281L65.7455 44.191C65.9702 44.7282 65.9498 45.3367 65.6893 45.8575L64.1708 48.8946C64.1212 48.9938 64.0639 49.0878 64 49.1758V52.8378L65.9487 58.6839C65.9835 58.7885 66.0008 58.8978 66 59.0075L65.9931 59.1172L64.5791 71.1172C64.5244 71.582 64.1565 71.941 63.7015 71.9935L63.586 72.0001H56.414C55.946 72.0001 55.5463 71.6768 55.4409 71.231L55.4209 71.1172L54.9569 67.1796C54.8923 66.6312 55.2845 66.1341 55.833 66.0695C56.3423 66.0095 56.8073 66.3434 56.9228 66.8306L56.9432 66.9456L57.303 70.0001H62.696L63.98 59.1031L62.279 54.0001H57.72L55.9487 59.3164C55.7865 59.8029 55.2866 60.0818 54.7965 59.9793L54.6838 59.9488C54.1973 59.7866 53.9184 59.2868 54.0208 58.7967L54.0513 58.6839L56 52.8379V49.1758C55.9361 49.0878 55.8788 48.9938 55.8292 48.8946L54.3098 45.8559C54.0504 45.337 54.029 44.7309 54.2514 44.195ZM58 50.0001V52.0001H62V50.0001H58ZM59 37.9682L56.0987 44.9614L57.618 48.0001H62.382L63.9005 44.9631L61 38.0318V43.0001C61 43.5524 60.5523 44.0001 60 44.0001C59.4872 44.0001 59.0645 43.6141 59.0067 43.1168L59 43.0001V37.9682Z" fill="#E1000F"/>
<path d="M47 54.0001C48.8856 54.0001 50 55.1145 50 57.0001C50 57.0819 49.99 57.1633 49.9701 57.2427C49.4648 59.264 47.2178 60.5778 43.2082 61.3021L42.5605 61.4116C42.3397 61.4465 42.114 61.4798 41.8835 61.5114L41.1771 61.6016C41.0569 61.6159 40.9355 61.6297 40.8129 61.6432L40.0625 61.7192L39.2827 61.7859L38.4735 61.8433L37.6349 61.8917C37.4926 61.899 37.3492 61.9059 37.2045 61.9125L36.3218 61.9473L35.4096 61.9733L34.4679 61.9905L33 62.0001C32.4477 62.0001 32 61.5524 32 61.0001C32 60.4478 32.4477 60.0001 33 60.0001L33.95 59.9958C34.1058 59.9944 34.2603 59.9926 34.4135 59.9904L35.3174 59.9733L36.1906 59.9478L37.033 59.9141L37.8447 59.8722L38.6255 59.8223L39.3755 59.7646L40.0946 59.6991C40.2119 59.6875 40.3279 59.6757 40.4426 59.6635L41.1154 59.5866C41.4441 59.5463 41.7612 59.5032 42.0667 59.4574L42.6622 59.3622L43.2267 59.2599L43.7603 59.1506C46.1778 58.6243 47.5824 57.8738 47.9638 56.9567L47.997 56.8651L47.9903 56.7472C47.944 56.209 47.7218 56.0247 47.1321 56.0025L47 56.0001C45.9612 56.0001 44.8672 56.5471 43.7071 57.7072C43.1045 58.3098 42.0928 57.9278 42.006 57.1138L42 57.0001C42 56.2191 41.781 56.0001 41 56.0001C39.9612 56.0001 38.8672 56.5471 37.7071 57.7072C37.3166 58.0978 36.6834 58.0978 36.2929 57.7072C35.9024 57.3167 35.9024 56.6835 36.2929 56.293C37.7994 54.7865 39.3721 54.0001 41 54.0001C42.1448 54.0001 43.0054 54.4109 43.5048 55.1557L43.544 55.2191L43.7396 55.0833C44.7168 54.4233 45.719 54.0588 46.7434 54.0067L47 54.0001Z" fill="#E1000F"/>
<path d="M55.9933 12.8834C55.9355 12.386 55.5128 12 55 12H17L16.8834 12.0067C16.386 12.0645 16 12.4872 16 13V67L16.0067 67.1166C16.0645 67.614 16.4872 68 17 68H49L49.1166 67.9933C49.614 67.9355 50 67.5128 50 67L49.9933 66.8834C49.9355 66.386 49.5128 66 49 66H18V14H54V33L54.0067 33.1166C54.0645 33.614 54.4872 34 55 34C55.5523 34 56 33.5523 56 33V13L55.9933 12.8834Z" fill="#000091"/>
<path d="M40 19C40 18.4477 39.5523 18 39 18H23L22.8834 18.0067C22.386 18.0645 22 18.4872 22 19C22 19.5523 22.4477 20 23 20H39L39.1166 19.9933C39.614 19.9355 40 19.5128 40 19Z" fill="#000091"/>
<path d="M49 24C49.5523 24 50 24.4477 50 25C50 25.5128 49.614 25.9355 49.1166 25.9933L49 26H23C22.4477 26 22 25.5523 22 25C22 24.4872 22.386 24.0645 22.8834 24.0067L23 24H49Z" fill="#000091"/>
<path d="M44 31C44 30.4477 43.5523 30 43 30H23L22.8834 30.0067C22.386 30.0645 22 30.4872 22 31C22 31.5523 22.4477 32 23 32H43L43.1166 31.9933C43.614 31.9355 44 31.5128 44 31Z" fill="#000091"/>
<path d="M49 36C49.5523 36 50 36.4477 50 37C50 37.5128 49.614 37.9355 49.1166 37.9933L49 38H23C22.4477 38 22 37.5523 22 37C22 36.4872 22.386 36.0645 22.8834 36.0067L23 36H49Z" fill="#000091"/>
<path d="M59.9933 20.8834C59.9355 20.386 59.5128 20 59 20C58.4477 20 58 20.4477 58 21V29L58.0067 29.1166C58.0645 29.614 58.4872 30 59 30C59.5523 30 60 29.5523 60 29V21L59.9933 20.8834Z" fill="#000091"/>
<path d="M51 70C51.5523 70 52 70.4477 52 71C52 71.5128 51.614 71.9355 51.1166 71.9933L51 72H25C24.4477 72 24 71.5523 24 71C24 70.4872 24.386 70.0645 24.8834 70.0067L25 70H51Z" fill="#000091"/>
<path d="M44 43C44 42.4477 43.5523 42 43 42H23L22.8834 42.0067C22.386 42.0645 22 42.4872 22 43C22 43.5523 22.4477 44 23 44H43L43.1166 43.9933C43.614 43.9355 44 43.5128 44 43Z" fill="#000091"/>
</svg>
