<svg width="80" height="80" viewBox="0 0 80 80" fill="none" xmlns="http://www.w3.org/2000/svg">
<path fill-rule="evenodd" clip-rule="evenodd" d="M61 74C60.4486 74 60 73.5514 60 73C60 72.4486 60.4486 72 61 72C61.5514 72 62 72.4486 62 73C62 73.5514 61.5514 74 61 74Z" fill="#ECECFE"/>
<path fill-rule="evenodd" clip-rule="evenodd" d="M69 10C68.4486 10 68 9.5514 68 9C68 8.44855 68.4486 8 69 8C69.5514 8 70 8.44855 70 9C70 9.5514 69.5514 10 69 10Z" fill="#ECECFE"/>
<path fill-rule="evenodd" clip-rule="evenodd" d="M11 14C10.4486 14 10 13.5514 10 13C10 12.4486 10.4486 12 11 12C11.5514 12 12 12.4486 12 13C12 13.5514 11.5514 14 11 14Z" fill="#ECECFE"/>
<path fill-rule="evenodd" clip-rule="evenodd" d="M31.8562 15.4855C31.4906 14.8762 30.6381 14.8404 30.2152 15.378L30.1412 15.4855L24.1412 25.4855C24.0343 25.6637 23.9894 25.8617 24.0001 26.0546V46L24.0068 46.1166C24.0646 46.614 24.4872 47 25.0001 47C25.5524 47 26.0001 46.5523 26.0001 46V26.2746L27.9651 22.9994C27.9767 22.9998 27.9884 23 28.0001 23H34.0001L34.0323 22.9981L35.2337 25H30.9987C30.4859 25 30.0632 25.386 30.0054 25.8834L29.9987 26C29.9987 26.5128 30.3847 26.9355 30.8821 26.9933L30.9987 27H36.0001V46L36.0068 46.1166C36.0646 46.614 36.4872 47 37.0001 47C37.5524 47 38.0001 46.5523 38.0001 46V26.0154C38.0011 25.9572 37.997 25.8985 37.9873 25.8398C37.9639 25.6945 37.9092 25.5597 37.8304 25.4425L31.8562 15.4855ZM32.8332 21H29.1646L30.9987 17.943L32.8332 21Z" fill="#E1000F"/>
<path d="M31.0001 29C31.5129 29 31.9356 29.386 31.9934 29.8834L32.0001 30V46C32.0001 46.5523 31.5524 47 31.0001 47C30.4872 47 30.0646 46.614 30.0068 46.1166L30.0001 46V30C30.0001 29.4477 30.4478 29 31.0001 29Z" fill="#E1000F"/>
<path d="M50.0001 40C50.0001 39.4477 49.5524 39 49.0001 39H44.8155L44.9228 38.3146L45.2558 36.3078L45.559 34.5546L45.8371 33H52.1633L52.4413 34.5546L52.7445 36.3078L53.0775 38.3146L53.3593 40.1152L53.548 41.4069L53.7038 42.5657L53.7694 43.0952L53.8525 43.8269L53.8976 44.273L53.9346 44.6855L53.9633 45.0645L53.9838 45.41L53.9961 45.7218L54.0003 46C54.0003 46.5523 54.448 47 55.0003 47C55.5525 47 56.0003 46.5523 56.0003 46L55.9961 45.6996L55.9836 45.3669L55.9493 44.8067L55.8744 43.9459L55.7964 43.2145L55.6996 42.4095L55.5414 41.2212L55.3498 39.9013L55.1843 38.8247L54.9343 37.2734L54.575 35.1474L54.3343 33.772L54.1048 32.4937C55.3719 31.5616 56.0001 30.0257 56.0001 28C56.0001 26.3409 54.9597 24.1501 52.9139 21.3142L52.8064 21.1666L52.4261 20.6605L51.7838 19.8375L51.2003 19.1087L50.5292 18.2837L49.7704 17.3623C49.3946 16.9084 48.7097 16.8762 48.293 17.2929C44.1222 21.4637 42.0001 25.0005 42.0001 28C42.0001 28.5523 42.4478 29 43.0001 29C43.5524 29 44.0001 28.5523 44.0001 28L44.005 27.792C44.1025 25.6915 45.6637 22.9735 48.7391 19.7043L48.9361 19.496L49.3944 20.0567L49.9601 20.7581L50.5953 21.5618L50.9821 22.0657L51.1972 22.3542L51.5055 22.7835C53.1789 25.1521 54.0001 26.9244 54.0001 28C54.0001 29.5371 53.5767 30.4891 52.7433 31H45.0176C44.9263 30.9983 44.8369 31.0091 44.7513 31.0312C44.6053 31.0686 44.4722 31.1381 44.36 31.2317C44.1787 31.3829 44.0518 31.597 44.0127 31.8405L43.6661 33.772L43.4254 35.1474L43.066 37.2734L42.816 38.8247L42.6505 39.9013L42.4589 41.2212L42.3007 42.4095L42.204 43.2145L42.1259 43.9459L42.051 44.8067L42.0167 45.3669L42.0042 45.6996L42.0001 46C42.0001 46.5523 42.4478 47 43.0001 47C43.5524 47 44.0001 46.5523 44.0001 46L44.0042 45.7218L44.0165 45.41L44.037 45.0645L44.0658 44.6855L44.1027 44.273L44.1478 43.8269L44.2309 43.0952L44.2965 42.5657L44.4524 41.4069L44.5118 41H49.0001L49.1167 40.9933C49.614 40.9355 50.0001 40.5128 50.0001 40Z" fill="#E1000F"/>
<path d="M24 20C24 19.4477 23.5523 19 23 19H19L18.7831 19.0046C16.1223 19.1182 14 21.3112 14 24V54L14.0046 54.2169C14.1182 56.8777 16.3112 59 19 59H25L25.1166 58.9933C25.614 58.9355 26 58.5128 26 58C26 57.4477 25.5523 57 25 57H19L18.8237 56.9949C17.2489 56.9037 16 55.5977 16 54V24L16.0051 23.8237C16.0963 22.2489 17.4023 21 19 21H23L23.1166 20.9933C23.614 20.9355 24 20.5128 24 20Z" fill="#000091"/>
<path fill-rule="evenodd" clip-rule="evenodd" d="M65.9954 23.7831C65.8818 21.1223 63.6888 19 61 19H57L56.8834 19.0067C56.386 19.0645 56 19.4872 56 20C56 20.5523 56.4477 21 57 21H61L61.1763 21.0051C62.7511 21.0963 64 22.4023 64 24V54L63.9949 54.1763C63.9037 55.7511 62.5977 57 61 57H31L30.8834 57.0067C30.386 57.0645 30 57.4872 30 58C30 58.5523 30.4477 59 31 59H35.9836C35.842 63.1483 34.7882 65 33 65H31L30.8834 65.0067C30.386 65.0645 30 65.4872 30 66C30 66.5523 30.4477 67 31 67H49L49.1166 66.9933C49.614 66.9355 50 66.5128 50 66C50 65.4477 49.5523 65 49 65H47C45.2118 65 44.158 63.1483 44.0164 59H61L61.2169 58.9954C63.8777 58.8818 66 56.6888 66 54V24L65.9954 23.7831ZM37.9834 59H42.0166C42.1065 61.6267 42.5623 63.6468 43.408 65H36.592C37.4377 63.6468 37.8935 61.6267 37.9834 59Z" fill="#000091"/>
<path d="M59 49C59.5523 49 60 49.4477 60 50C60 50.5128 59.614 50.9355 59.1166 50.9933L59 51H21C20.4477 51 20 50.5523 20 50C20 49.4872 20.386 49.0645 20.8834 49.0067L21 49H59Z" fill="#000091"/>
<path d="M42 54C42 53.4477 41.5523 53 41 53H39L38.8834 53.0067C38.386 53.0645 38 53.4872 38 54C38 54.5523 38.4477 55 39 55H41L41.1166 54.9933C41.614 54.9355 42 54.5128 42 54Z" fill="#000091"/>
<path d="M42 20C42 19.4477 41.5523 19 41 19H39L38.8834 19.0067C38.386 19.0645 38 19.4872 38 20C38 20.5523 38.4477 21 39 21H41L41.1166 20.9933C41.614 20.9355 42 20.5128 42 20Z" fill="#000091"/>
</svg>
