<svg width="80" height="80" viewBox="0 0 80 80" fill="none" xmlns="http://www.w3.org/2000/svg">
<path fill-rule="evenodd" clip-rule="evenodd" d="M68 13C67.4486 13 67 12.5514 67 12C67 11.4486 67.4486 11 68 11C68.5514 11 69 11.4486 69 12C69 12.5514 68.5514 13 68 13ZM41 76C40.4486 76 40 75.5514 40 75C40 74.4486 40.4486 74 41 74C41.5514 74 42 74.4486 42 75C42 75.5514 41.5514 76 41 76ZM15 10C14.4486 10 14 9.5514 14 9C14 8.44855 14.4486 8 15 8C15.5514 8 16 8.44855 16 9C16 9.5514 15.5514 10 15 10Z" fill="#ECECFE"/>
<path fill-rule="evenodd" clip-rule="evenodd" d="M57.9799 26.8003C58.0822 27.3029 57.7883 27.7941 57.3125 27.95L57.1996 27.9798C55.5206 28.3218 54.7453 30.1717 55.0597 33.7296L55 33.7301C55.6238 33.7301 56.1881 33.6738 57.2954 33.506L58.9159 33.2528L59.5847 33.1589C62.0641 32.8382 63.5964 32.9775 64.9135 33.9156C68.6775 36.5967 70 39.5621 70 44.8363C70 52.3649 64.5383 58.7258 57.2414 59.8317C56.6953 59.9144 56.1856 59.5388 56.1028 58.9928C56.0201 58.4467 56.3957 57.937 56.9417 57.8542C63.2604 56.8967 68 51.3767 68 44.8363C68 40.1721 66.9526 37.8236 63.7532 35.5446C62.9668 34.9845 61.8169 34.8871 59.8101 35.1468L59.0858 35.2499L57.3095 35.5261C56.4412 35.6535 55.8872 35.711 55.3214 35.726C55.4288 36.3692 55.5636 37.0544 55.726 37.7822C55.7445 37.8653 55.7522 37.9483 55.7498 38.0298C56.4159 37.7798 56.837 37.3265 57.0513 36.6837C57.226 36.1598 57.7923 35.8766 58.3162 36.0513C58.8402 36.2259 59.1233 36.7922 58.9487 37.3162C58.0889 39.8956 55.5728 40.7343 51.8039 39.9805C51.2623 39.8722 50.9111 39.3454 51.0194 38.8038C51.1277 38.2623 51.6546 37.9111 52.1961 38.0194C52.7807 38.1363 53.3078 38.2095 53.7806 38.2402L53.774 38.2177C53.5689 37.2986 53.404 36.4279 53.2802 35.6068C53.0978 35.5837 52.8984 35.5557 52.6792 35.5231L51.2445 35.297C48.4833 34.8555 47.1724 34.8795 46.2502 35.5422C43.0642 37.8318 42 40.2101 42 44.8363C42 45.3886 41.5523 45.8363 41 45.8363C40.4477 45.8363 40 45.3886 40 44.8363C40 39.6012 41.3391 36.6087 45.0831 33.9181C46.5494 32.8643 48.1447 32.7983 51.2132 33.2677L52.6971 33.503C52.8219 33.5221 52.9399 33.5399 53.0519 33.5563C52.747 29.1842 53.9335 26.6041 56.8004 26.0201C57.3416 25.9098 57.8696 26.2592 57.9799 26.8003ZM41 48C41.5523 48 42 48.4477 42 49V51C42 51.5522 41.5523 52 41 52C40.4477 52 40 51.5522 40 51V49C40 48.4477 40.4477 48 41 48Z" fill="#E1000F"/>
<path fill-rule="evenodd" clip-rule="evenodd" d="M25.1973 47.6684C25.3082 48.2094 24.9596 48.738 24.4185 48.8489C23.8775 48.9598 23.349 48.6112 23.238 48.0701C22.8126 45.9954 22.0261 45.4744 20.4122 46.0618C19.4744 46.4032 18.9786 47.0701 18.9997 47.9768C19.0067 48.2785 18.8793 48.5521 18.6722 48.7403C18.6639 48.7667 18.6529 48.7947 18.6405 48.8225C18.4155 49.3269 17.8243 49.5534 17.3199 49.3285C14.0778 47.8825 12.6702 48.3012 12.2822 50.5013C11.8943 52.7015 13.0738 53.5764 16.6149 53.3265C16.7151 53.3194 16.8129 53.3274 16.906 53.3484C16.9653 53.3563 17.0251 53.3701 17.0844 53.3899C17.6084 53.5643 17.8918 54.1305 17.7174 54.6545C17.0484 56.6641 17.469 57.5085 19.1604 57.8067C20.4762 58.0387 21.3392 57.2089 21.7486 54.9267L21.7607 54.7329C21.7905 54.3369 21.8416 53.9216 21.912 53.4863L21.9444 53.3201L21.9564 53.2238L21.963 53.194L21.964 53.187L21.972 53.154L21.9837 53.1083C22.017 52.997 22.0687 52.895 22.1346 52.8051C22.1462 52.7895 22.1581 52.7742 22.1704 52.7593C22.2291 52.6883 22.2973 52.6259 22.3727 52.5738C22.3927 52.5599 22.4138 52.5464 22.4355 52.5336C22.4461 52.5275 22.4559 52.522 22.4658 52.5166L22.5096 52.4941C22.5293 52.4848 22.549 52.4762 22.569 52.4681C22.5939 52.458 22.6189 52.4491 22.6442 52.4412C22.6511 52.4391 22.6582 52.437 22.6654 52.4349L22.7314 52.4183C22.7483 52.4147 22.7654 52.4115 22.7827 52.4087C22.7905 52.4075 22.7981 52.4064 22.8057 52.4053C22.8739 52.3959 22.944 52.3936 23.015 52.3989L23.037 52.4008L23.076 52.4054L23.107 52.41L23.1175 52.4118C23.183 52.4235 23.246 52.4414 23.3061 52.4649C23.3194 52.4701 23.3326 52.4756 23.3456 52.4813C23.4475 52.5262 23.5395 52.5873 23.6191 52.6607L23.6711 52.7124C23.6796 52.7215 23.6876 52.7303 23.6954 52.7393C23.7087 52.7546 23.7219 52.7707 23.7346 52.7872C23.745 52.8008 23.7546 52.814 23.764 52.8275C23.7725 52.8398 23.7812 52.853 23.7896 52.8663C23.8011 52.8849 23.8117 52.9031 23.8217 52.9217C23.8235 52.9249 23.8257 52.9289 23.8278 52.9329C23.8418 52.96 23.8546 52.9872 23.866 53.015L23.8707 53.0262C23.8913 53.0777 23.9076 53.1312 23.9194 53.1863C23.9385 53.2747 23.9457 53.367 23.9395 53.4609C23.9391 53.4644 23.9389 53.4684 23.9386 53.4725C23.8933 54.0643 23.8247 54.6186 23.7326 55.1338C23.6092 57.3796 24.4566 58.4396 27.1042 59.2135C27.5662 59.3486 28.1995 59.4693 28.9599 59.5731L29.8351 54.6118C29.931 54.0679 30.4497 53.7048 30.9936 53.8007C31.5375 53.8966 31.9006 54.4152 31.8047 54.9591L30.9526 59.7843C33.8779 60.0227 37.7149 60.0755 41.0963 59.8647L41.6528 56.6956C41.7487 56.1517 42.2674 55.7885 42.8113 55.8844C43.3552 55.9803 43.7183 56.499 43.6224 57.0429L43.152 59.709L43.2941 59.6979C45.4039 59.522 47.017 59.3463 48.3806 59.1282L48.6691 59.0808C49.6915 58.9082 50.4896 58.7182 51.0313 58.5156L51.2143 58.4424L51.3075 58.4002L51.195 58.2897L51.0809 58.188C50.6368 57.8054 49.9469 57.3451 49.0495 56.83C47.4735 55.9252 45.3354 54.8936 42.9328 53.8468C41.5527 53.2454 40.0158 52.6521 38.4051 52.0888L37.7136 56.001C37.6177 56.5449 37.099 56.9081 36.5551 56.8122C36.0112 56.7163 35.6481 56.1976 35.744 55.6537L36.4386 51.7145C36.4548 51.6222 36.4833 51.5351 36.522 51.4545C35.5345 51.1341 34.5301 50.8268 33.5284 50.538L32.6828 50.2986C31.5749 49.9908 30.5538 49.731 29.7271 49.5446C29.1883 49.4232 28.85 48.888 28.9715 48.3492C29.0929 47.8104 29.6281 47.4721 30.1669 47.5936L30.8457 47.7523C31.7946 47.9814 32.9091 48.2779 34.0826 48.6163C37.4799 49.596 40.9087 50.7833 43.7316 52.0133L44.8702 52.5145C50.7638 55.1385 53.7861 56.9894 53.4705 58.7794C53.1473 60.6126 50.3299 61.1507 42.8532 61.7409L42.019 61.8056C42.0069 61.8067 41.9989 61.8072 41.9908 61.8076L42.019 61.8056C38.0114 62.111 33.244 62.0367 29.86 61.6898C29.7772 61.698 29.6911 61.6944 29.6044 61.6791C29.5626 61.6718 29.5219 61.6619 29.4824 61.6497C28.2625 61.5126 27.2461 61.3387 26.543 61.1332C24.4737 60.5283 23.1631 59.6667 22.4408 58.4669C21.5834 59.5853 20.3745 60.0516 18.8131 59.7763C16.2915 59.3317 15.1482 57.7326 15.4942 55.3582C11.6441 55.2982 9.72023 53.5136 10.3126 50.1541C10.9117 46.7565 13.3782 45.7528 17.0854 47.079C17.3654 45.7337 18.3258 44.6929 19.7282 44.1824C22.5613 43.1513 24.5398 44.4617 25.1973 47.6684ZM36.9999 20C37.5522 20 37.9999 20.4477 37.9999 21L37.999 26.697L41.8314 32.4442C41.8414 32.4594 41.8459 32.4665 41.8503 32.4735L41.8566 32.4839C41.8743 32.5142 41.8829 32.53 41.891 32.546C41.8945 32.5526 41.8979 32.5593 41.9011 32.5661L41.895 32.555L41.9057 32.5757C41.9093 32.5833 41.9128 32.591 41.9162 32.5987C41.9397 32.6526 41.9582 32.7076 41.9718 32.7632L41.9776 32.7887L41.9827 32.8141C41.9861 32.832 41.989 32.8498 41.9914 32.8676L41.9932 32.8834L41.9971 32.9226C41.9985 32.941 41.9994 32.9594 41.9998 32.9777L41.9999 35C41.9999 35.5523 41.5522 36 40.9999 36C40.4477 36 39.9999 35.5523 39.9999 35L39.999 34H33.999L33.9999 45C33.9999 45.5523 33.5522 46 32.9999 46C32.4477 46 31.9999 45.5523 31.9999 45L31.999 34H17.9999L17.999 38H24.9999C25.5522 38 25.9999 38.4477 25.9999 39C25.9999 39.5523 25.5522 40 24.9999 40H17.9999V43C17.9999 43.5128 17.6139 43.9355 17.1166 43.9933L16.9999 44C16.4477 44 15.9999 43.5523 15.9999 43V33L16.0067 32.8834L16.0085 32.8676L16.0124 32.8409L16.0171 32.8143C16.0204 32.7971 16.024 32.7802 16.0281 32.7636C16.0416 32.7076 16.0601 32.6526 16.0837 32.599C16.0905 32.5833 16.0976 32.5681 16.1051 32.5531C16.1114 32.5408 16.1178 32.5287 16.1244 32.5167L16.163 32.4525L19.999 26.697L19.9999 21C19.9999 20.4477 20.4477 20 20.9999 20H36.9999ZM36.999 28.802L34.867 32H39.131L36.999 28.802ZM35.13 28H21.534L18.867 32H32.463L35.13 28ZM35.9999 22H21.9999L21.999 26H35.999L35.9999 22Z" fill="#000091"/>
</svg>
