<svg width="80" height="80" viewBox="0 0 80 80" fill="none" xmlns="http://www.w3.org/2000/svg">
<path fill-rule="evenodd" clip-rule="evenodd" d="M67 11C66.4486 11 66 10.5514 66 10C66 9.44855 66.4486 9 67 9C67.5514 9 68 9.44855 68 10C68 10.5514 67.5514 11 67 11Z" fill="#ECECFE"/>
<path fill-rule="evenodd" clip-rule="evenodd" d="M40 74C39.4486 74 39 73.5514 39 73C39 72.4486 39.4486 72 40 72C40.5514 72 41 72.4486 41 73C41 73.5514 40.5514 74 40 74Z" fill="#ECECFE"/>
<path fill-rule="evenodd" clip-rule="evenodd" d="M14 8C13.4486 8 13 7.5514 13 7C13 6.44855 13.4486 6 14 6C14.5514 6 15 6.44855 15 7C15 7.5514 14.5514 8 14 8Z" fill="#ECECFE"/>
<path d="M54.4868 24.1415C54.9609 23.8582 55.5749 24.0129 55.8582 24.487C56.1415 24.9611 55.9868 25.575 55.5127 25.8583C51.1522 28.4639 44.0843 29.9999 35.9998 29.9999C31.5368 29.9999 27.861 29.3636 22.7364 27.9646C22.2036 27.8192 21.8896 27.2693 22.0351 26.7366C22.1805 26.2038 22.7303 25.8898 23.2631 26.0352L24.5276 26.3721C28.8479 27.4926 32.116 27.9999 35.9998 27.9999C43.7517 27.9999 50.4748 26.5389 54.4868 24.1415Z" fill="#E1000F"/>
<path fill-rule="evenodd" clip-rule="evenodd" d="M52.6058 36.0808C50.4874 36.9887 46.5373 37.7142 42.9998 37.7142C42.4475 37.7142 41.9998 38.1619 41.9998 38.7142V43.9816C41.9998 44.1414 42.0066 44.3011 42.0202 44.4604C42.2847 47.5455 45 49.8321 48.0852 49.5677C51.4304 49.281 53.9998 46.4819 53.9998 43.1244V36.9999C53.9998 36.282 53.2657 35.798 52.6058 36.0808ZM51.9998 38.4239L51.8322 38.4768C49.7525 39.1044 47.0013 39.5652 44.327 39.6841L43.9998 39.6959L44.0006 44.0587L44.0129 44.2896C44.183 46.2742 45.9298 47.7451 47.9144 47.575C50.225 47.3769 51.9998 45.4436 51.9998 43.1244V38.4239Z" fill="#E1000F"/>
<path fill-rule="evenodd" clip-rule="evenodd" d="M35.9999 18C41.0356 18 46.602 18.7959 51.2569 20.0336C51.7906 20.1755 52.1082 20.7232 51.9663 21.257C51.8244 21.7907 51.2767 22.1083 50.7429 21.9664C46.2487 20.7714 40.8533 20 35.9999 20C35.7082 20 35.418 20.0018 35.1295 20.0055L34.2688 20.0217C34.1262 20.0253 33.9841 20.0293 33.8424 20.0337L32.9975 20.0656L32.1637 20.1077L31.3417 20.1597L30.5318 20.2214C30.3979 20.2325 30.2645 20.2439 30.1316 20.2558L29.3411 20.3316C29.2105 20.345 29.0804 20.3588 28.9509 20.3729L28.1809 20.4623L27.4252 20.5603L26.6844 20.6669L25.9591 20.7818L25.2496 20.9047L24.5567 21.0354L23.8807 21.1737L23.2223 21.3193C22.8975 21.3938 22.5795 21.4711 22.2686 21.5508L21.6564 21.7137C21.5559 21.7414 21.4563 21.7694 21.3575 21.7976L20.7745 21.9701C20.5835 22.0287 20.3959 22.0882 20.2117 22.1488L19.6697 22.3333C16.5332 23.4394 14.507 24.8415 14.083 26.3208L14.2114 26.4146L14.9413 26.982C15.2212 27.1937 15.4991 27.3915 15.803 27.5916C16.5963 28.114 17.4971 28.6052 18.5656 29.0709C22.774 30.9051 28.7342 32 36.9999 32C45.2656 32 51.2258 30.9051 55.4342 29.0709C56.5027 28.6052 57.4035 28.114 58.1968 27.5916C58.3994 27.4582 58.5904 27.3259 58.7782 27.1897L59.1852 26.8846L59.7884 26.4146C59.9669 26.2787 60.0883 26.197 60.2246 26.127C60.6673 25.8996 61.1742 25.8725 61.602 26.3006L61.723 26.4286C61.8832 26.6118 61.9508 26.769 61.9793 27.0885L61.9931 27.3277L62.0511 34.5788L62.0889 42.2533L62.088 45.4909L62.0709 47.1948L62.0429 48.2347L62.0356 48.373C62.0633 48.3863 62.0916 48.3999 62.1205 48.4139C62.6725 48.6809 63.2465 48.9886 63.8157 49.3345C65.4951 50.3549 66.796 51.4884 67.5007 52.7697C69.2253 55.9052 67.1726 58.7502 60.9366 61.1747L60.2766 61.424L59.5866 61.6703C59.4691 61.7111 59.3503 61.7518 59.2303 61.7923L58.4952 62.034C58.2452 62.114 57.9901 62.1935 57.73 62.2725L56.9344 62.5079C56.7993 62.5469 56.6629 62.5858 56.5252 62.6245L55.684 62.8551C55.5413 62.8933 55.3972 62.9313 55.2519 62.9692C44.1927 65.8542 33.2433 63.888 23.018 58.726C20.1242 57.2652 17.5078 55.6494 15.2118 53.9984C14.5406 53.5156 13.9365 53.0581 13.4028 52.6342L12.9359 52.2575L12.657 52.0258L12.3327 51.7468C12.1044 51.5426 11.992 51.2571 11.9999 50.9731L12.001 27.6274L12.0067 27.3277L12.0198 27.0997C12.0068 27.0352 11.9999 26.9684 11.9999 26.9C11.9999 24.439 14.2912 22.3367 18.105 20.7943L18.6602 20.5778L19.2355 20.369C19.333 20.3349 19.4314 20.301 19.5306 20.2676L20.1353 20.0707L20.759 19.8818C20.97 19.8202 21.1841 19.76 21.4012 19.7012L22.0613 19.5289C22.1728 19.5009 22.285 19.4732 22.398 19.4459L23.0842 19.2864C23.1999 19.2605 23.3164 19.235 23.4336 19.2098L24.1446 19.0633L24.8717 18.9257L25.6143 18.797L26.3718 18.6775L27.1439 18.5672C27.2737 18.5496 27.4042 18.5323 27.5352 18.5155L28.328 18.4193C28.5945 18.3889 28.8633 18.36 29.1341 18.3327L29.9529 18.2558L30.784 18.1887C30.9235 18.1784 31.0635 18.1684 31.204 18.1589L32.0525 18.1068L32.9121 18.0649C33.0562 18.0587 33.2008 18.053 33.3458 18.0478L34.2209 18.0213L35.1058 18.0054C35.4023 18.0018 35.7004 18 35.9999 18ZM13.9999 50.5418L14.3508 50.8308C14.928 51.2989 15.6061 51.8185 16.3795 52.3746C18.5947 53.9676 21.1234 55.5292 23.9193 56.9406C33.7446 61.9007 44.2163 63.7811 54.7471 61.034L55.1688 60.9228L55.9853 60.7002L56.7662 60.4776L57.5121 60.2549L58.2233 60.0322L58.9002 59.8095C59.0102 59.7724 59.1188 59.7353 59.226 59.6982L59.8525 59.4756C60.1574 59.3643 60.4499 59.253 60.7303 59.1418L61.2748 58.9195L61.7873 58.6975C62.5322 58.3645 63.1706 58.0324 63.7091 57.7016L64.0533 57.4813C65.976 56.1976 66.4102 54.9369 65.7483 53.7335C65.2499 52.8273 64.1836 51.8983 62.7771 51.0437C62.3121 50.7611 61.8405 50.5053 61.3841 50.28C60.1963 51.7956 57.6951 53.1505 54.2398 54.1761L53.5413 54.3754C52.1196 54.7652 50.5511 55.1012 48.8585 55.3731L48.0019 55.5036L47.1252 55.6231L46.2291 55.7314C45.9273 55.7655 45.6222 55.7978 45.3142 55.828L44.3811 55.9128C43.282 56.0047 42.1471 56.0717 40.9808 56.1118C40.4289 56.1308 39.966 55.6987 39.947 55.1468C39.9281 54.5948 40.3601 54.132 40.9121 54.113C41.2333 54.1019 41.5519 54.0887 41.8678 54.0735L42.807 54.0214L43.729 53.9573L44.6332 53.8815C44.9315 53.8544 45.2268 53.8254 45.5189 53.7945L46.3855 53.6967L47.2323 53.5884L48.0586 53.4701L48.8638 53.3423L49.6471 53.2053C50.4194 53.0639 51.158 52.9094 51.8599 52.7436L52.5495 52.5742L53.2139 52.3977L53.8526 52.2146C54.791 51.9351 55.6402 51.6347 56.3901 51.3195L56.8752 51.1074C58.4425 50.3934 59.5084 49.614 59.9627 48.839L60.0289 48.715L60.0439 48.4162L60.065 47.5492L60.0849 45.2413L60.0861 41.8216L60.0693 37.5581L60.0059 28.768L59.9511 28.8097C59.8457 28.8861 59.7392 28.9616 59.6304 29.0368L59.2967 29.262C58.4094 29.8463 57.4081 30.3922 56.2333 30.9043C51.7564 32.8556 45.5265 34 36.9999 34C28.4733 34 22.2434 32.8556 17.7665 30.9043C16.5917 30.3922 15.5904 29.8463 14.7031 29.262L14.3694 29.0368L13.9989 28.773L13.9999 50.5418Z" fill="#000091"/>
</svg>
