<svg width="80" height="80" viewBox="0 0 80 80" fill="none" xmlns="http://www.w3.org/2000/svg">
<path fill-rule="evenodd" clip-rule="evenodd" d="M56 77C55.4486 77 55 76.5514 55 76C55 75.4486 55.4486 75 56 75C56.5514 75 57 75.4486 57 76C57 76.5514 56.5514 77 56 77Z" fill="#ECECFE"/>
<path fill-rule="evenodd" clip-rule="evenodd" d="M8 65C7.4486 65 7 64.5514 7 64C7 63.4486 7.4486 63 8 63C8.5514 63 9 63.4486 9 64C9 64.5514 8.5514 65 8 65Z" fill="#ECECFE"/>
<path fill-rule="evenodd" clip-rule="evenodd" d="M76 58C75.4486 58 75 57.5514 75 57C75 56.4486 75.4486 56 76 56C76.5514 56 77 56.4486 77 57C77 57.5514 76.5514 58 76 58Z" fill="#ECECFE"/>
<path fill-rule="evenodd" clip-rule="evenodd" d="M65 10C64.4486 10 64 9.5514 64 9C64 8.44855 64.4486 8 65 8C65.5514 8 66 8.44855 66 9C66 9.5514 65.5514 10 65 10Z" fill="#ECECFE"/>
<path fill-rule="evenodd" clip-rule="evenodd" d="M24 4C23.4486 4 23 3.5514 23 3C23 2.44855 23.4486 2 24 2C24.5514 2 25 2.44855 25 3C25 3.5514 24.5514 4 24 4Z" fill="#ECECFE"/>
<path d="M37.096 15.6808C37.5128 16.8193 37.1301 18.1563 36.3759 18.7891C36.0547 19.0587 35.7714 19.2178 35.2893 19.3644L34.9743 19.4516C34.9172 19.4661 34.8577 19.4807 34.7954 19.4955L34.3876 19.587L32.4642 19.9802L32.2225 20.0317L32.3574 20.1023L32.6028 20.2354L33.0712 20.499C33.5495 20.7751 33.7134 21.3867 33.4372 21.865C33.1611 22.3433 32.5495 22.5071 32.0712 22.231L31.8576 22.1093L31.4116 21.8645L29.8778 21.0623L29.192 20.6967C29.0786 20.6354 28.9651 20.5737 28.8507 20.511L28.1463 20.1193L27.3798 19.6817C26.9015 19.4056 26.7376 18.794 27.0137 18.3157C27.2899 17.8374 27.9015 17.6735 28.3798 17.9496L29.1264 18.3759C29.2446 18.4426 29.3603 18.5073 29.4742 18.5707L29.6091 18.6446C29.7103 18.5736 29.8265 18.5203 29.9542 18.4903L30.501 18.3634L31.545 18.1312L32.3141 17.9685L33.8958 17.6469L34.3423 17.5478L34.5641 17.4914L34.7365 17.4397C34.7616 17.4314 34.7851 17.4231 34.8072 17.4148L34.9236 17.3651L35.0147 17.3134L35.0904 17.257C35.2101 17.1566 35.3401 16.7022 35.2179 16.3683C35.0122 15.8062 34.2 15.3239 32.488 15.1306L29.1047 14.7832L27.2401 14.5986L25.1611 14.4015L23.0359 14.2143L22.0769 14.1381L21.9214 14.1406L21.8052 14.1522L21.6075 14.1861L21.4575 14.2206L21.2908 14.2654L21.0055 14.3534L20.5497 14.513L19.9947 14.7255L19.3258 14.9964L18.0775 15.5233L15.8058 16.5098L15.6978 16.5473L15.6246 16.5651L15.5478 16.5763C15.5346 16.5776 15.5211 16.5785 15.5074 16.5791L15.4214 16.5788L15.3264 16.5699L15.2205 16.5515L15.1013 16.5229L14.8932 16.4591L14.7318 16.4014L14.4501 16.2904L14.2329 16.1988L13.7182 15.9698L12.902 15.5898L10.5663 14.47C10.0688 14.2302 9.85995 13.6324 10.0998 13.135C10.3396 12.6375 10.9374 12.4286 11.4348 12.6684L13.1876 13.5048L13.899 13.8369L14.6759 14.1902L15.1473 14.3955L15.4073 14.5009L17.4276 13.6236L18.5651 13.1418L19.1406 12.9063L19.7999 12.6495L20.0886 12.5438L20.4773 12.4115L20.8198 12.3084L21.0266 12.2545L21.2189 12.2116L21.399 12.1789L21.5695 12.1557L21.7327 12.1411C21.7594 12.1393 21.7859 12.1379 21.8123 12.1368L22.0467 12.1348L22.2791 12.1468L23.5268 12.2485L25.7324 12.4459L28.338 12.6968L31.8822 13.0571L32.4328 13.1145C34.9968 13.3502 36.5707 14.2457 37.096 15.6808Z" fill="#E1000F"/>
<path d="M25.7928 36.048C26.2524 36.2467 26.7981 36.0736 27.0545 35.6295C27.3307 35.1512 27.1668 34.5396 26.6885 34.2635L23.7499 32.5669L23.6455 32.5144C23.1859 32.3157 22.6403 32.4888 22.3839 32.9329C22.1077 33.4112 22.2716 34.0228 22.7499 34.2989L25.6885 35.9955L25.7928 36.048Z" fill="#E1000F"/>
<path d="M20.4848 38.2483C20.2284 38.6924 19.6827 38.8655 19.2232 38.6668L19.1188 38.6143L14.6429 36.0302C14.4917 35.9429 14.2861 35.7403 14.0423 35.4455L13.8243 35.1709C13.7865 35.1216 13.748 35.0705 13.7089 35.0177L13.467 34.6815L13.2119 34.3082L12.9459 33.9012L12.6713 33.4637C12.6249 33.3884 12.5782 33.312 12.5314 33.2345L12.2479 32.7572L11.9614 32.2576L11.674 31.7387C11.6261 31.6508 11.5784 31.5623 11.5307 31.4731L11.2463 30.9316C11.1992 30.8403 11.1523 30.7486 11.1057 30.6565L10.8293 30.0996L10.561 29.5365L10.3031 28.9704L10.0577 28.4045C9.97832 28.2163 9.90137 28.0287 9.82728 27.8422L9.70352 27.5233L8.7463 26.7962L6.73178 25.2893L6.36713 25.0073L6.15981 24.8381L6.06985 24.7571L5.98186 24.6701L5.94957 24.628L5.87609 24.4989L5.7883 24.3329C5.6044 23.8121 5.87748 23.2409 6.39825 23.057C6.75878 22.9297 7.14351 23.0214 7.40715 23.2627L7.46897 23.3257L7.74844 23.5485L10.6847 25.7537L11.0032 26.0028L11.1678 26.141L11.296 26.264L11.3279 26.3048L11.371 26.376L11.4894 26.5921C12.2081 28.5328 13.1714 30.4476 14.2294 32.1668L14.4005 32.4418L14.7363 32.963C14.9011 33.213 15.0605 33.4458 15.2107 33.6566L15.4574 33.9944L15.633 34.2213L15.7206 34.3292C15.7249 34.337 15.7204 34.3395 15.6869 34.3224L20.1188 36.8823C20.5971 37.1584 20.761 37.77 20.4848 38.2483Z" fill="#E1000F"/>
<path d="M22.9999 39.9999C23.5522 39.9999 23.9999 39.5522 23.9999 38.9999C23.9999 38.4476 23.5522 37.9999 22.9999 37.9999C22.4476 37.9999 21.9999 38.4476 21.9999 38.9999C21.9999 39.5522 22.4476 39.9999 22.9999 39.9999Z" fill="#E1000F"/>
<path d="M54.4184 42.6614C54.1422 42.1831 54.3061 41.5715 54.7844 41.2954L54.9966 41.1713L55.4316 40.9074L57.224 39.7727C57.3337 39.7043 57.443 39.6366 57.5527 39.569L58.2235 39.1617L58.9454 38.735C59.0721 38.661 59.2027 38.5852 59.3379 38.5071C59.8162 38.231 60.4278 38.3949 60.7039 38.8732C60.98 39.3515 60.8162 39.963 60.3379 40.2392L59.5954 40.6727L59.2072 40.9052C59.2008 40.9374 59.1928 40.9696 59.1832 41.0017C59.0729 41.3675 58.9655 41.7164 58.8587 42.0559L58.5384 43.0532L57.8907 44.998L57.8054 45.2731L57.7433 45.4934L57.7019 45.6685L57.6956 45.7002C57.6928 45.7146 57.6903 45.7286 57.6881 45.7422L57.6729 45.8678L57.6721 45.9726L57.6831 46.0663C57.7103 46.2203 58.0387 46.5601 58.389 46.6212C58.9787 46.724 59.8024 46.2618 60.8259 44.8759L63.1017 41.7255L64.8924 39.2176L65.9648 37.6947L66.6986 36.6376C66.7551 36.5555 66.8105 36.4748 66.8648 36.3957C67.0245 36.1626 67.183 35.7848 67.3369 35.2674L67.4388 34.9018L67.5391 34.4951L67.6376 34.0477L67.7341 33.5599L67.8284 33.032L67.9202 32.4644L68.0094 31.8574C68.024 31.7529 68.0385 31.6469 68.0529 31.5392L68.1376 30.8737L68.2192 30.1696C68.2234 30.1309 68.2282 30.094 68.2343 30.0582L68.258 29.9531L68.2814 29.8838L68.3322 29.7773L68.3792 29.7023L68.4386 29.6223L68.5548 29.4896L68.6529 29.3904L68.8354 29.2215L69.1535 28.9509L69.8194 28.4222L71.1321 27.4234L72.496 26.3995C72.938 26.0683 73.5647 26.158 73.896 26.5999C74.2272 27.0418 74.1375 27.6686 73.6956 27.9998L71.9053 29.354L70.9685 30.0797L70.5306 30.4287L70.1691 30.7305L70.0673 31.5639C70.0511 31.6906 70.0346 31.8153 70.018 31.9382L69.916 32.6529C69.568 34.9608 69.141 36.5239 68.5941 37.4043L68.5144 37.5265L67.8024 38.5562L66.9807 39.7283L65.5427 41.7529L63.2426 44.9487L62.5994 45.836C61.1133 47.9387 59.5509 48.854 58.0454 48.5914C56.851 48.3831 55.8845 47.3832 55.7135 46.4136C55.6334 45.9594 55.6461 45.6116 55.7962 45.0325L55.8921 44.6917L56.0168 44.2928L56.6039 42.5323L56.4848 42.6077L56.015 42.8926C55.9382 42.9381 55.8616 42.9829 55.7844 43.0275C55.3061 43.3036 54.6945 43.1397 54.4184 42.6614Z" fill="#E1000F"/>
<path d="M64.327 19.8271L61.7838 20.9492L61.3 21.1502L61.1037 21.2211C60.9238 21.2789 60.8335 21.302 60.6715 21.2849L60.5644 21.2698C58.5301 20.9256 56.3979 20.8045 54.3889 20.8617L54.0665 20.8725L53.4499 20.9027L52.8799 20.9432C52.7894 20.9507 52.7014 20.9585 52.6159 20.9667L52.202 21.0114L51.9191 21.0499L51.7829 21.0716C51.7743 21.0714 51.7745 21.0663 51.8062 21.0458L45.4999 24.6856C45.0216 24.9617 44.41 24.7978 44.1338 24.3195C43.8774 23.8754 44.0004 23.3163 44.4022 23.0176L44.4999 22.9535L50.8492 19.2877C51.0476 19.1732 51.4656 19.0768 52.0393 19.0039L52.4441 18.9589C52.5152 18.952 52.588 18.9454 52.6625 18.9391L53.1286 18.9051L53.6304 18.8789L54.1635 18.8609C54.2547 18.8586 54.3471 18.8566 54.4405 18.855L55.0129 18.8498L55.6061 18.8536L56.2161 18.8668L56.8385 18.8897L57.4692 18.9225L58.1039 18.9658L58.7386 19.0197L59.3688 19.0847C59.6822 19.12 59.9924 19.1596 60.2969 19.2037L60.648 19.2574L60.8645 19.1671L63.629 17.9502L63.8995 17.836L64.1104 17.7512L64.2477 17.7005L64.3077 17.6806C64.5267 17.6114 64.6172 17.5919 64.8585 17.6368C65.4014 17.738 65.7596 18.2601 65.6585 18.803C65.5573 19.346 65.0352 19.7042 64.4923 19.603C64.5597 19.6156 64.6017 19.6277 64.6301 19.6375L64.6858 19.6585C64.7049 19.6638 64.7195 19.66 64.7691 19.6409L64.327 19.8271Z" fill="#E1000F"/>
<path d="M48.9999 27.9999C49.5522 27.9999 49.9999 27.5522 49.9999 26.9999C49.9999 26.4476 49.5522 25.9999 48.9999 25.9999C48.4476 25.9999 47.9999 26.4476 47.9999 26.9999C47.9999 27.5522 48.4476 27.9999 48.9999 27.9999Z" fill="#E1000F"/>
<path d="M41.9947 27.308C41.895 25.4643 40.3684 24 38.4998 24C36.5668 24 34.9998 25.567 34.9998 27.5V29.3368C34.5452 29.1208 34.0366 29 33.4998 29C31.5668 29 29.9998 30.567 29.9998 32.5V47.385L29.3915 46.6707L28.1695 45.2122L27.5484 44.4827L27.1733 44.0583L26.9583 43.8263L26.7663 43.6304C26.736 43.6005 26.7065 43.572 26.6776 43.5447L26.5121 43.3954C26.4328 43.3276 26.358 43.2696 26.2855 43.2191L26.1425 43.1276C26.0717 43.0862 26.0015 43.0508 25.9294 43.0192L25.782 42.9604C24.8569 42.6236 23.5077 42.9607 22.7301 43.8909C21.7499 45.0634 21.7613 46.8742 22.8393 49.2125L24.329 52.5344L25.7764 55.7103L26.5423 57.3583L27.078 58.4898L27.1485 58.629C27.4884 59.2677 28.1201 60.0294 29.0522 60.9323L29.5038 61.3591C29.8191 61.6504 30.163 61.9553 30.5357 62.2744L31.1164 62.7637C31.3172 62.9304 31.5253 63.1007 31.7406 63.2747L31.9992 63.4826L31.9994 67.0002L32.0072 67.1256C32.0689 67.6187 32.4896 68.0002 32.9994 68.0002C33.5517 68.0002 33.9994 67.5524 33.9994 67.0002V62.5156L33.3317 61.9872L32.521 61.3293L32.0237 60.9133L31.5613 60.5159L31.1337 60.1372L30.7413 59.7776L30.384 59.4375C30.2708 59.3274 30.1635 59.2206 30.0622 59.1171L29.7758 58.8168L29.5251 58.5368L29.3103 58.2774C29.1134 58.0285 28.9705 57.8111 28.8822 57.6266L28.4901 56.8006L27.7505 55.2149L26.5342 52.5563L24.5576 48.1567C23.869 46.5774 23.8806 45.6329 24.2645 45.1736C24.4926 44.9008 24.9511 44.7863 25.098 44.8397C25.1113 44.8446 25.1282 44.8542 25.149 44.8689L25.2232 44.9286L25.3224 45.0211L25.6023 45.3124L26.0021 45.7596L26.5352 46.3792L27.8692 47.968L28.4039 48.5981L28.889 49.1599L29.3469 49.6784L29.8 50.1785L30.2708 50.6851C30.5175 50.9476 30.8726 51.0471 31.2014 50.9797C31.2258 50.9747 31.2499 50.9688 31.2736 50.9621C31.6928 50.843 31.9998 50.4574 31.9998 50V32.5L32.0067 32.3555C32.0794 31.5949 32.7201 31 33.4998 31C34.3283 31 34.9998 31.6716 34.9998 32.5V45L35.0066 45.1166C35.0643 45.614 35.487 46 35.9998 46C36.5521 46 36.9998 45.5523 36.9998 45V27.5L37.0067 27.3555C37.0794 26.5949 37.7201 26 38.4998 26C39.3283 26 39.9998 26.6716 39.9998 27.5V45L40.0066 45.1166C40.0643 45.614 40.487 46 40.9998 46C41.5521 46 41.9998 45.5523 41.9998 45V30.4706L42.0067 30.3294C42.0791 29.5856 42.7177 29 43.4998 29C44.3309 29 44.9998 29.6611 44.9998 30.4706V45L45.0066 45.1166C45.0643 45.614 45.487 46 45.9998 46C46.5521 46 46.9998 45.5523 46.9998 45V34.4706L47.0067 34.3294C47.0791 33.5856 47.7177 33 48.4998 33C49.3309 33 49.9998 33.6611 49.9998 34.4706V53L49.9965 53.291C49.9536 55.1073 49.4911 56.4403 48.1652 58.4492C48.0216 58.6667 47.7753 58.9554 47.4286 59.3158L47.1068 59.6423L46.7362 60.0041L46.3661 60.3552L44.9984 61.6198L44.4885 62.1007L43.9998 62.5858V67L44.0066 67.1166C44.0643 67.614 44.487 68 44.9998 68L45.1165 67.9933C45.6138 67.9355 45.9998 67.5128 45.9998 67V63.422L46.0992 63.3284L47.7353 61.813L48.1384 61.4304L48.559 61.0193C49.1503 60.4298 49.5654 59.9585 49.8345 59.5508C51.439 57.1198 51.9998 55.3747 51.9998 53V34.4706L51.9947 34.2799C51.8948 32.4495 50.3659 31 48.4998 31C47.9633 31 47.4547 31.1198 46.9998 31.3341V30.4706L46.9947 30.2799C46.8948 28.4495 45.3659 27 43.4998 27C42.9616 27 42.4514 27.1206 41.9954 27.3362L41.9947 27.308Z" fill="#000091"/>
</svg>
