<svg width="80" height="80" viewBox="0 0 80 80" fill="none" xmlns="http://www.w3.org/2000/svg">
<path fill-rule="evenodd" clip-rule="evenodd" d="M74 8C73.4486 8 73 7.5514 73 7C73 6.44855 73.4486 6 74 6C74.5514 6 75 6.44855 75 7C75 7.5514 74.5514 8 74 8Z" fill="#ECECFE"/>
<path fill-rule="evenodd" clip-rule="evenodd" d="M19 74C18.4486 74 18 73.5514 18 73C18 72.4486 18.4486 72 19 72C19.5514 72 20 72.4486 20 73C20 73.5514 19.5514 74 19 74Z" fill="#ECECFE"/>
<path fill-rule="evenodd" clip-rule="evenodd" d="M7 10C6.4486 10 6 9.5514 6 9C6 8.44855 6.4486 8 7 8C7.5514 8 8 8.44855 8 9C8 9.5514 7.5514 10 7 10Z" fill="#ECECFE"/>
<path fill-rule="evenodd" clip-rule="evenodd" d="M50 26C45.03 26 41 30.03 41 35C41 39.97 45.03 44 50 44C54.97 44 59 39.97 59 35C59 30.03 54.97 26 50 26ZM56.92 36C56.58 38.39 55.04 40.39 52.92 41.36C53.51 39.95 53.88 38.08 53.97 36H56.92ZM51.79 37.8C51.88 37.24 51.94 36.63 51.97 36H48.01C48.04 36.63 48.11 37.24 48.19 37.8L48.27 38.3C48.39 38.95 48.54 39.54 48.7 40.05L48.83 40.41C49.2 41.4 49.62 41.99 49.99 41.99C50.36 41.99 50.78 41.4 51.15 40.41L51.28 40.05C51.44 39.55 51.59 38.95 51.71 38.3L51.79 37.8ZM56.92 34H53.97C53.89 31.92 53.52 30.05 52.92 28.64C55.03 29.61 56.58 31.61 56.92 34ZM43.07 34C43.41 31.61 44.95 29.61 47.07 28.64C46.48 30.05 46.11 31.92 46.02 34H43.07ZM48.2 32.2C48.11 32.76 48.05 33.37 48.02 34H51.98C51.95 33.37 51.88 32.76 51.8 32.2L51.72 31.7C51.6 31.05 51.45 30.46 51.29 29.95L51.16 29.59C50.79 28.6 50.37 28.01 50 28.01C49.63 28.01 49.21 28.6 48.84 29.59L48.71 29.95C48.55 30.45 48.4 31.05 48.28 31.7L48.2 32.2ZM43.07 36H46.02C46.1 38.08 46.47 39.95 47.07 41.36C44.96 40.39 43.41 38.39 43.07 36Z" fill="#E1000F"/>
<path d="M60 53C60 52.45 59.55 52 59 52H40.88C40.39 52.05 40 52.48 40 52.99C40 53.54 40.45 53.99 41 53.99H59.12C59.61 53.94 60 53.51 60 53Z" fill="#E1000F"/>
<path d="M23 35C23.55 35 24 35.45 24 36V35.98C24 36.53 23.54 36.98 22.99 36.98H15.04C14.84 36.98 14.57 37.09 14.34 37.32C14.11 37.55 14 37.83 14 38.08V57.99C14 58.17 14.1 58.43 14.33 58.66C14.57 58.89 14.83 58.99 15 58.99H23C23.55 58.99 24 59.44 24 59.99C24 60.54 23.55 60.99 23 60.99H15C14.18 60.99 13.44 60.59 12.92 60.07C12.4 59.56 12 58.82 12 57.99V38.08C12 37.23 12.39 36.47 12.92 35.93C13.45 35.39 14.21 35 15.05 35H23Z" fill="#E1000F"/>
<path d="M24 41V43C22.3452 43 21.0037 44.3431 21.0037 46C21.0037 47.6569 22.3452 49 24 49V51C20.6642 51 18.1273 53.17 17.9975 55.81V56H16C16 53.18 17.8876 50.78 20.5943 49.66C19.6155 48.75 18.9963 47.44 18.9963 46C18.9963 43.24 21.2434 41 24 41Z" fill="#E1000F"/>
<path fill-rule="evenodd" clip-rule="evenodd" d="M29.9 14.1201L59.9 8.1201L60.1 8.1001C62.79 8.1001 64.89 10.3401 65 13.0001V13.2201V14.0001H69C71.69 14.0001 73.88 16.1201 74 18.7801V19.0001V47.0001C74 47.5501 73.55 48.0001 73 48.0001C72.49 48.0001 72.06 47.6101 72.01 47.1201V47.0001V19.0001C72.01 17.4001 70.76 16.1001 69.19 16.0101H69.01H31.01C29.41 16.0101 28.11 17.2601 28.02 18.8301V19.0101V20.0101V67.0101C28.02 68.6101 29.27 69.9101 30.84 70.0001H31.02H69.02C70.62 70.0001 71.92 68.7501 72.01 67.1801V67.0001V57.0001C72.01 56.4501 72.46 56.0001 73.01 56.0001C73.52 56.0001 73.95 56.3901 74 56.8801V57.0001V67.0001C74 69.6901 71.88 71.8801 69.22 72.0001H69H31C28.31 72.0001 26.12 69.8801 26 67.2201V67.0001H11C9.85 67.0001 8.6 66.7101 7.61 65.8901C6.59 65.0401 6 63.7401 6 62.0001V23.5001C6 21.4501 7.95 19.0001 11 19.0001H26C26 16.6101 27.67 14.6201 29.9 14.1201ZM26 21.0001H11C9.05 21.0001 8 22.5501 8 23.5001V62.0001C8 63.2601 8.41 63.9601 8.89 64.3601C9.4 64.7901 10.15 65.0001 11 65.0001H26V29.0001C25.45 29.0001 25 28.5501 25 28.0001C25 27.4501 25.45 27.0001 26 27.0001V21.0001ZM63 14.0001V13.0001C63 11.4001 61.85 10.1901 60.28 10.1001H60.19L40.69 14.0001H63.01H63ZM55 48.0001C55.55 48.0001 56 48.4501 56 49.0001C56 49.5101 55.61 49.9401 55.12 49.9901H55H45C44.45 49.9901 44 49.5401 44 48.9901C44 48.4801 44.39 48.0501 44.88 48.0001H45H55ZM57 56.0001C57.55 56.0001 58 56.4501 58 57.0001C58 57.5101 57.61 57.9401 57.12 57.9901H57H43C42.45 57.9901 42 57.5401 42 56.9901C42 56.4801 42.39 56.0501 42.88 56.0001H43H57ZM55 60.0001C55.55 60.0001 56 60.4501 56 61.0001C56 61.5101 55.61 61.9401 55.12 61.9901H55H45C44.45 61.9901 44 61.5401 44 60.9901C44 60.4801 44.39 60.0501 44.88 60.0001H45H55ZM14 27.0001H19V29.0001H14V27.0001ZM12 25.0001H21V31.0001H12V25.0001Z" fill="#000091"/>
</svg>
