<svg width="80" height="80" viewBox="0 0 80 80" fill="none" xmlns="http://www.w3.org/2000/svg">
<path d="M52.7002 71.1001C52.1002 71.1001 51.7002 70.7001 51.7002 70.1001C51.7002 69.5001 52.1002 69.1001 52.7002 69.1001C53.3002 69.1001 53.7002 69.5001 53.7002 70.1001C53.7002 70.6001 53.3002 71.1001 52.7002 71.1001ZM3.7002 28.1001C3.1002 28.1001 2.7002 27.7001 2.7002 27.1001C2.7002 26.5001 3.1002 26.1001 3.7002 26.1001C4.3002 26.1001 4.7002 26.5001 4.7002 27.1001C4.7002 27.6001 4.3002 28.1001 3.7002 28.1001ZM75.7002 43.1001C75.1002 43.1001 74.7002 42.7001 74.7002 42.1001C74.7002 41.5001 75.1002 41.1001 75.7002 41.1001C76.3002 41.1001 76.7002 41.5001 76.7002 42.1001C76.7002 42.6001 76.3002 43.1001 75.7002 43.1001ZM45.7002 57.1001C45.1002 57.1001 44.7002 56.7001 44.7002 56.1001C44.7002 55.5001 45.1002 55.1001 45.7002 55.1001C46.3002 55.1001 46.7002 55.5001 46.7002 56.1001C46.7002 56.6001 46.3002 57.1001 45.7002 57.1001ZM28.7002 7.1001C28.1002 7.1001 27.7002 6.7001 27.7002 6.1001C27.7002 5.5001 28.1002 5.1001 28.7002 5.1001C29.3002 5.1001 29.7002 5.5001 29.7002 6.1001C29.7002 6.6001 29.3002 7.1001 28.7002 7.1001ZM7.7002 75.1001C7.1002 75.1001 6.7002 74.7001 6.7002 74.1001C6.7002 73.5001 7.1002 73.1001 7.7002 73.1001C8.3002 73.1001 8.7002 73.5001 8.7002 74.1001C8.7002 74.6001 8.3002 75.1001 7.7002 75.1001Z" fill="#ECECFE"/>
<path d="M62.9002 16C63.6002 16 64.2002 16.4 64.2002 17C64.2002 17.5 63.7002 17.9 63.1002 18H47.5002C46.8002 18 46.2002 17.6 46.2002 17C46.2002 16.5 46.7002 16.1 47.3002 16H62.9002Z" fill="#E1000F"/>
<path d="M60.0002 20C60.7002 20 61.2002 20.4 61.2002 21C61.2002 21.5 60.7002 21.9 60.1002 22H47.5002C46.8002 22 46.3002 21.6 46.3002 21C46.3002 20.5 46.8002 20.1 47.4002 20H60.0002Z" fill="#E1000F"/>
<path d="M55.0002 24C55.7002 24 56.2002 24.4 56.2002 25C56.2002 25.5 55.7002 25.9 55.1002 26H47.5002C46.8002 26 46.3002 25.6 46.3002 25C46.3002 24.5 46.8002 24.1 47.4002 24H55.0002Z" fill="#E1000F"/>
<path d="M26.1 58.9H25.6C17 58.9 10 51.9 10 43.3V38.1C10 37.5 10.4 37.1 11 37.1C11.6 37.1 12 37.5 12 38.1V43.3C12 50.8 18.1 56.9 25.6 56.9H26.1C33.6 56.9 39.7 50.8 39.7 43.3V38.1C39.7 37.5 40.1 37.1 40.7 37.1C41.3 37.1 41.7 37.5 41.7 38.1V43.3C41.7 51.9 34.7 58.9 26.1 58.9Z" fill="#000091"/>
<path d="M26.1 54.1H25.6C23.2 54.1 20.9 53.3 19 51.9C18.6 51.6 18.5 50.9 18.8 50.5C19.1 50.1 19.8 50 20.2 50.3C21.7 51.5 23.6 52.1 25.5 52.1H26C30.8 52.1 34.8 48.2 34.8 43.3V28.5C34.8 23.7 30.9 19.7 26 19.7H25.5C20.7 19.7 16.7 23.6 16.7 28.5V43.3C16.7 44.4 16.9 45.5 17.3 46.6C17.5 47.1 17.3 47.7 16.7 47.9C16.2 48.1 15.6 47.9 15.4 47.4C14.9 46.1 14.6 44.8 14.6 43.4V28.5C14.6 22.6 19.4 17.7 25.4 17.7H25.9C31.8 17.7 36.7 22.5 36.7 28.5V43.3C36.9 49.2 32.1 54.1 26.1 54.1Z" fill="#000091"/>
<path d="M35.4 42H15.9C15.3 42 14.9 41.6 14.9 41C14.9 40.4 15.3 40 15.9 40H35.5C36.1 40 36.5 40.4 36.5 41C36.5 41.6 36 42 35.4 42Z" fill="#000091"/>
<path d="M22.2 36.9H15.9C15.3 36.9 14.9 36.5 14.9 35.9C14.9 35.3 15.3 34.9 15.9 34.9H22.2C22.8 34.9 23.2 35.3 23.2 35.9C23.2 36.5 22.7 36.9 22.2 36.9Z" fill="#000091"/>
<path d="M35.4 36.9H29.1C28.5 36.9 28.1 36.5 28.1 35.9C28.1 35.3 28.5 34.9 29.1 34.9H35.4C36 34.9 36.4 35.3 36.4 35.9C36.4 36.5 36 36.9 35.4 36.9Z" fill="#000091"/>
<path d="M22.2 32.9H15.9C15.3 32.9 14.9 32.5 14.9 31.9C14.9 31.3 15.3 30.9 15.9 30.9H22.2C22.8 30.9 23.2 31.3 23.2 31.9C23.2 32.5 22.7 32.9 22.2 32.9Z" fill="#000091"/>
<path d="M35.4 32.9H29.1C28.5 32.9 28.1 32.5 28.1 31.9C28.1 31.3 28.5 30.9 29.1 30.9H35.4C36 30.9 36.4 31.3 36.4 31.9C36.4 32.5 36 32.9 35.4 32.9Z" fill="#000091"/>
<path d="M22.2 28.9H15.9C15.3 28.9 14.9 28.5 14.9 27.9C14.9 27.3 15.3 26.9 15.9 26.9H22.2C22.8 26.9 23.2 27.3 23.2 27.9C23.2 28.5 22.7 28.9 22.2 28.9Z" fill="#000091"/>
<path d="M35.4 28.9H29.1C28.5 28.9 28.1 28.5 28.1 27.9C28.1 27.3 28.5 26.9 29.1 26.9H35.4C36 26.9 36.4 27.3 36.4 27.9C36.4 28.5 36 28.9 35.4 28.9Z" fill="#000091"/>
<path d="M22.9 64H22.8C22.3 63.9 21.9 63.4 21.9 62.9L22.6 57.7C22.7 57.2 23.2 56.8 23.7 56.8C24.2 56.9 24.6 57.4 24.6 57.9L23.9 63.1C23.8 63.6 23.4 64 22.9 64Z" fill="#000091"/>
<path d="M28.9 64C28.4 64 28 63.6 27.9 63.1L27.2 57.9C27.1 57.4 27.5 56.8 28.1 56.8C28.6 56.7 29.2 57.1 29.2 57.7L29.9 62.9C30 63.4 29.6 64 29 64H28.9Z" fill="#000091"/>
<path d="M62.2 33C62.8 33 63.2 33.4 63.2 34C63.2 34.5 62.8 34.9 62.3 35H58.2C57.6 35 57.2 34.6 57.2 34C57.2 33.5 57.6 33.1 58.1 33H62.2Z" fill="#000091"/>
<path d="M66.2 35C66.7523 35 67.2 34.5523 67.2 34C67.2 33.4477 66.7523 33 66.2 33C65.6477 33 65.2 33.4477 65.2 34C65.2 34.5523 65.6477 35 66.2 35Z" fill="#000091"/>
<path d="M48.2 36.8C47.8 36.7 47.6 36.3 47.6 35.9L47.4 31H43.9C41.6 31 39.7 29.1 39.7 26.8V20.2C39.7 19.6 40.1 19.2 40.7 19.2C41.3 19.2 41.7 19.6 41.7 20.2V26.8C41.7 28 42.7 29 43.9 29H48.3C48.8 29 49.3 29.4 49.3 30L49.4 33.8L54.6 29.3C54.8 29.1 55 29.1 55.3 29.1H66.5C67.7 29.1 68.7 28.1 68.7 26.9V15.2C68.7 14 67.7 13 66.5 13H44C42.8 13 41.8 14 41.8 15.2C41.8 15.8 41.4 16.2 40.8 16.2C40.2 16.2 39.8 15.8 39.8 15.2C39.8 12.9 41.7 11 44 11H66.5C68.8 11 70.7 12.9 70.7 15.2V26.7C70.7 29 68.8 30.9 66.5 30.9H55.8L49.3 36.5C49.1 36.7 48.6 37 48.2 36.8Z" fill="#000091"/>
<path d="M35.1 69.2H16.7C15.3 69.2 14.2 68.1 14.2 66.7V66.4C14.2 64.2 16 62.5 18.1 62.5H33.7C35.9 62.5 37.6 64.3 37.6 66.4V66.7C37.6 68.1 36.5 69.2 35.1 69.2ZM18.1 64.5C17 64.5 16.2 65.4 16.2 66.4V66.7C16.2 67 16.4 67.2 16.7 67.2H35.1C35.4 67.2 35.6 67 35.6 66.7V66.4C35.6 65.3 34.7 64.5 33.7 64.5H18.1Z" fill="#000091"/>
</svg>
