<svg width="80" height="80" viewBox="0 0 80 80" fill="none" xmlns="http://www.w3.org/2000/svg">
<path fill-rule="evenodd" clip-rule="evenodd" d="M6 14C5.4486 14 5 13.5514 5 13C5 12.4486 5.4486 12 6 12C6.5514 12 7 12.4486 7 13C7 13.5514 6.5514 14 6 14Z" fill="#ECECFE"/>
<path fill-rule="evenodd" clip-rule="evenodd" d="M59 73C58.4486 73 58 72.5514 58 72C58 71.4486 58.4486 71 59 71C59.5514 71 60 71.4486 60 72C60 72.5514 59.5514 73 59 73Z" fill="#ECECFE"/>
<path fill-rule="evenodd" clip-rule="evenodd" d="M63 9C62.4486 9 62 8.5514 62 8C62 7.44855 62.4486 7 63 7C63.5514 7 64 7.44855 64 8C64 8.5514 63.5514 9 63 9Z" fill="#ECECFE"/>
<path fill-rule="evenodd" clip-rule="evenodd" d="M75 51C74.4486 51 74 50.5514 74 50C74 49.4486 74.4486 49 75 49C75.5514 49 76 49.4486 76 50C76 50.5514 75.5514 51 75 51Z" fill="#ECECFE"/>
<path d="M29.6002 20.2001C29.1584 19.8687 28.5316 19.9582 28.2002 20.4001C27.5561 21.2588 26.5999 22.2046 25.3334 23.2342L24.8103 23.6505C24.7203 23.7206 24.629 23.7911 24.5363 23.862L23.9635 24.2916C23.8653 24.3639 23.7657 24.4366 23.6648 24.5097L23.0425 24.9525L22.3872 25.4041C22.2752 25.4801 22.1619 25.5565 22.0472 25.6332L21.3425 26.0978L20.6048 26.5711C20.4791 26.6507 20.3521 26.7307 20.2236 26.811L19.4366 27.2971C19.3027 27.3789 19.1675 27.461 19.0308 27.5434L18.1945 28.0423L17.3254 28.5497L16.4235 29.0655L15.4888 29.5897L14.5213 30.1222C14.0365 30.3866 13.8578 30.9941 14.1223 31.4789C14.3868 31.9638 14.9942 32.1424 15.479 31.878C15.6484 31.7856 15.8164 31.6935 15.983 31.6018L16.9658 31.0558L17.9152 30.5179L18.8314 29.9882C18.9813 29.9006 19.1298 29.8133 19.2769 29.7264L20.1431 29.2088L20.976 28.6992L21.7757 28.1976L22.5422 27.7039L23.2755 27.2182C23.7533 26.8969 24.209 26.5809 24.6426 26.2701L25.2765 25.8077C25.5852 25.5784 25.8814 25.3521 26.1653 25.1286L26.7165 24.6854C28.0533 23.5868 29.0806 22.5595 29.8002 21.6001C30.1316 21.1582 30.042 20.5314 29.6002 20.2001Z" fill="#E1000F"/>
<path fill-rule="evenodd" clip-rule="evenodd" d="M55.0002 32.0001H47.0002C46.4479 32.0001 46.0002 32.4478 46.0002 33.0001V37.3903C46.0002 40.5524 48.1964 43.2903 51.2833 43.9762C51.7236 44.0741 52.1765 44.1031 52.6257 44.0623C55.0272 43.844 56.7971 41.7202 56.5787 39.3187L55.9961 32.9095C55.9493 32.3944 55.5174 32.0001 55.0002 32.0001ZM48.0002 34.0001H54.0872L54.5869 39.4998C54.7053 40.8012 53.7461 41.9522 52.4447 42.0705C52.2012 42.0926 51.9558 42.0769 51.7171 42.0239L51.5021 41.9708C49.4441 41.4125 48.0002 39.5409 48.0002 37.3903V34.0001Z" fill="#E1000F"/>
<path d="M36.1353 20.0092L36.0027 20C35.7385 19.9993 35.4825 20.1035 35.2931 20.2929C35.2316 20.3544 35.1684 20.4168 35.1035 20.4802L34.6937 20.8712L34.2435 21.2836C34.0867 21.4246 33.9233 21.569 33.7532 21.7166L33.2235 22.1694L32.6548 22.641C32.5568 22.7211 32.4572 22.802 32.3559 22.8837L31.7296 23.3821L31.0654 23.8974C30.8377 24.0718 30.6039 24.249 30.3638 24.4286L29.6254 24.9751C29.4993 25.0674 29.3717 25.1602 29.2426 25.2537L28.4498 25.8214L27.6213 26.4021C27.4803 26.5 27.3378 26.5983 27.1938 26.6972L26.3128 27.296L25.3972 27.9059L24.4477 28.526C24.1256 28.7343 23.7979 28.9442 23.4647 29.1555L23.2714 29.2775L22.1752 29.9524L21.4136 30.4095L19.9711 31.2581L17.9547 32.4193L15.6273 33.7363L12.5193 35.4694L9.5191 37.1233C9.04797 37.3819 8.86542 37.9666 9.10575 38.4472L12.1058 44.4472L12.1882 44.6022C12.889 45.8462 14.5851 47.1884 17.313 48.7142L18.0165 49.0996C18.2582 49.2294 18.507 49.3604 18.7631 49.4929L19.3373 49.7848L19.9082 52.64L19.7501 52.8019C17.8643 54.8033 18.5803 56.8453 21.5994 58.1662C22.1139 58.3913 22.7062 58.6066 23.3765 58.8122L23.9702 58.9861C24.2766 59.0719 24.5973 59.1559 24.9325 59.2382L25.622 59.4004L26.3499 59.558L27.1164 59.7111C27.2473 59.7362 27.3799 59.7611 27.514 59.7859L28.3383 59.9321L29.2011 60.0738L30.1027 60.211L31.043 60.3438L32.0221 60.4722L33.0401 60.5961L34.0969 60.7157L35.1927 60.831L36.3276 60.942L37.5108 61.0495L38.7001 61.1497L39.8719 61.2404L41.0258 61.3216L42.1617 61.3936L43.2792 61.4563L44.378 61.5098L45.4579 61.5542L46.5186 61.5895L47.5598 61.6159L48.5813 61.6334L49.5826 61.642C49.7478 61.6427 49.9122 61.6431 50.0757 61.6431L51.5241 61.6331C51.6824 61.6309 51.8399 61.6284 51.9965 61.6255L52.9254 61.6038L53.833 61.5736L54.7191 61.535L55.5832 61.4881C55.7254 61.4795 55.8667 61.4707 56.007 61.4615L56.8378 61.4021L57.646 61.3345L58.4314 61.2588L59.1935 61.1751L59.9323 61.0835C60.0535 61.0675 60.1736 61.0513 60.2928 61.0347L60.9959 60.9312C61.0706 60.9196 61.1448 60.9078 61.2186 60.896L61.3384 60.8765L62.0052 60.7614L62.6475 60.6386C63.1724 60.533 63.6714 60.4196 64.1438 60.2984L64.6979 60.1493C68.1257 59.1814 70.0002 57.771 70.0002 56C70.0002 53.4387 67.6814 51.5063 63.3164 50.0513C62.7925 49.8767 62.2261 50.1598 62.0515 50.6838C61.8769 51.2077 62.16 51.774 62.684 51.9487C66.319 53.1604 68.0002 54.5614 68.0002 56C68.0002 56.3116 67.594 56.7805 66.6295 57.2863C65.4078 57.9269 63.5297 58.4813 61.0858 58.8886C59.3871 59.1717 57.4622 59.3785 55.3253 59.5042L54.2393 59.5603C52.2162 59.6508 50.017 59.6726 47.653 59.6221L46.3473 59.5874L45.0093 59.5383C44.7836 59.5289 44.5566 59.5189 44.3282 59.5083L42.9425 59.4372C42.4754 59.4111 42.003 59.3825 41.5255 59.3514L40.0776 59.2507C39.8337 59.2327 39.5886 59.214 39.3422 59.1947L37.8487 59.0715L37.0907 59.0041L35.9681 58.8983L34.884 58.7884L33.3301 58.6161L32.3425 58.4963L31.3936 58.3726L30.4835 58.245L29.6122 58.1135L28.7798 57.9782L27.9864 57.8391L27.2319 57.6963L26.5164 57.5496L25.8401 57.3993L25.2029 57.2453L24.605 57.0877C23.7375 56.8484 23.0025 56.597 22.401 56.3339C22.3377 56.3061 22.2762 56.2788 22.2166 56.2518L21.8809 56.0933C20.5214 55.4213 20.3946 54.9284 21.2899 54.0778L21.4187 53.9615L59.088 49.9963C59.1314 49.9924 59.175 49.9856 59.2186 49.9759L59.2201 49.9756C59.3187 49.9535 59.4111 49.9172 59.4956 49.869C59.6245 49.7955 59.7334 49.6952 59.8167 49.5773C59.9025 49.4561 59.9616 49.3156 59.9867 49.165C60.005 49.0562 60.0054 48.9429 59.9855 48.8291C59.9804 48.7993 59.9739 48.7701 59.9663 48.7413C59.3435 46.2393 59.3448 43.7446 59.9703 41.2425C60.1043 40.7068 59.7785 40.1638 59.2427 40.0299C58.7069 39.8959 58.164 40.2217 58.03 40.7575C57.4169 43.21 57.3359 45.6682 57.787 48.1222L21.802 51.9101L21.3804 49.802C29.6412 48.5657 38.2049 47.6308 47.0714 46.9975C47.6223 46.9581 48.037 46.4796 47.9976 45.9288C47.9583 45.3779 47.4798 44.9632 46.9289 45.0026C37.9773 45.642 29.3302 46.5872 20.9877 47.8385L20.9852 47.8259C20.9727 47.7554 20.9526 47.6857 20.9245 47.6179C20.8967 47.5504 20.8619 47.4871 20.8213 47.4288C19.852 45.9564 20.2947 44.1254 22.2178 41.9622L22.535 41.6166C22.6449 41.5005 22.7589 41.3835 22.8771 41.2655L23.2441 40.9088L23.636 40.5467L24.0529 40.179L24.495 39.806L24.9622 39.4275L25.4547 39.0436C25.5388 38.9792 25.6241 38.9145 25.7103 38.8496L26.2407 38.4577C26.3312 38.3919 26.4228 38.3259 26.5154 38.2597L27.0838 37.8598L27.6777 37.4545L28.2971 37.044C28.4025 36.9751 28.5089 36.906 28.6164 36.8367L29.2743 36.4183L29.9577 35.9947L30.6669 35.5658L31.4019 35.1318L32.1628 34.6927L32.9496 34.2484L33.7623 33.799L34.6011 33.3445L35.4659 32.8849C45.0311 27.8506 53.4514 28.1172 58.3172 31.9754C58.7499 32.3186 59.3789 32.2459 59.722 31.8132C60.0652 31.3804 59.9925 30.7515 59.5598 30.4083C54.0323 26.0254 44.7625 25.7319 34.5344 31.1151L33.6572 31.5812L32.8037 32.0436L31.974 32.5024L31.1682 32.9575L30.3863 33.409L29.6283 33.8569L28.8943 34.3012L28.1844 34.742L27.4987 35.1792L26.837 35.6129C26.7288 35.6848 26.6215 35.7567 26.5153 35.8284L25.8899 36.2568L25.2889 36.6817C25.1908 36.7522 25.0936 36.8226 24.9975 36.8929L24.433 37.3126L23.8928 37.7289C19.5014 41.1778 17.6476 44.2721 18.4589 47.0611L18.4168 47.0381C18.3141 46.981 18.213 46.9242 18.1135 46.8679L17.5372 46.5342L17.0013 46.2101L16.506 45.8956C16.3476 45.7925 16.1961 45.691 16.0513 45.5912L15.6375 45.2971C14.7197 44.6232 14.1363 44.0361 13.8946 43.5528L11.3242 38.413L14.9764 36.3923L16.3203 35.6409L19.1372 34.0472L20.8761 33.0453L22.3876 32.1572L23.4331 31.5284L24.3333 30.9722L25.0418 30.522C25.2091 30.4149 25.375 30.3081 25.5395 30.2017L26.5098 29.5679L27.446 28.944C27.7523 28.7378 28.0529 28.5334 28.3476 28.3308L29.2143 27.7292C29.3558 27.6299 29.4958 27.5312 29.6343 27.4329L30.4475 26.8501C30.58 26.7541 30.711 26.6586 30.8405 26.5637L31.5992 26.0016L32.3209 25.4542L33.0053 24.9225C33.1162 24.8353 33.2255 24.7487 33.3332 24.6628L33.9605 24.1561C34.0619 24.073 34.1616 23.9908 34.2597 23.9093L34.8289 23.4294L35.3587 22.9684C35.6987 22.6675 36.0121 22.3799 36.2984 22.1064L36.3502 22.055L37.7049 22.2311L39.5923 22.4661C40.2992 22.5523 41.0201 22.6381 41.7516 22.723L43.9748 22.9742L45.1041 23.0964C47.3076 23.3313 49.4445 23.5375 51.4728 23.7069L52.598 23.798L54.2203 23.9183L55.2571 23.9873L56.2573 24.0472L57.2202 24.0977L58.1451 24.1388L59.0313 24.1702L59.878 24.1917L60.6845 24.2033C60.8156 24.2044 60.9449 24.205 61.0725 24.2053L61.8175 24.2015L62.5206 24.1873C62.6343 24.1841 62.7461 24.1804 62.8562 24.1763L63.4951 24.1461L63.7982 24.127L62.0662 34.518L60.2931 36.2929L60.2099 36.3871C59.9049 36.7794 59.9326 37.3466 60.2931 37.7071C60.6836 38.0976 61.3168 38.0976 61.7073 37.7071L63.7073 35.7071L63.7896 35.6138C63.8912 35.4832 63.9592 35.3289 63.9866 35.1644L65.9866 23.1644C66.0978 22.4972 65.5283 21.9144 64.8588 22.0101C64.4264 22.0718 63.9259 22.1185 63.3611 22.1507L62.775 22.1781C62.6738 22.1819 62.5708 22.1852 62.4661 22.1882L61.8172 22.2014L61.1276 22.2052L60.3981 22.1998L59.6295 22.1853L58.8226 22.1618L57.9785 22.1296L57.0978 22.0886L55.7101 22.0112L54.7419 21.9491L53.7401 21.8788L52.1764 21.7581L50.6243 21.6268C49.6006 21.5368 48.5511 21.4379 47.4813 21.3312L45.3161 21.1077C43.8127 20.9474 42.3313 20.7795 40.8989 20.609L38.7905 20.3521L37.9575 20.2472L36.1353 20.0092Z" fill="#000091"/>
</svg>
