<svg width="80" height="80" viewBox="0 0 80 80" fill="none" xmlns="http://www.w3.org/2000/svg">
<path fill-rule="evenodd" clip-rule="evenodd" d="M19 72C18.4486 72 18 71.5514 18 71C18 70.4486 18.4486 70 19 70C19.5514 70 20 70.4486 20 71C20 71.5514 19.5514 72 19 72Z" fill="#ECECFE"/>
<path fill-rule="evenodd" clip-rule="evenodd" d="M31 10C30.4486 10 30 9.5514 30 9C30 8.44855 30.4486 8 31 8C31.5514 8 32 8.44855 32 9C32 9.5514 31.5514 10 31 10Z" fill="#ECECFE"/>
<path fill-rule="evenodd" clip-rule="evenodd" d="M67 66C66.4486 66 66 65.5514 66 65C66 64.4486 66.4486 64 67 64C67.5514 64 68 64.4486 68 65C68 65.5514 67.5514 66 67 66Z" fill="#ECECFE"/>
<path fill-rule="evenodd" clip-rule="evenodd" d="M67 16C66.4486 16 66 15.5514 66 15C66 14.4486 66.4486 14 67 14C67.5514 14 68 14.4486 68 15C68 15.5514 67.5514 16 67 16Z" fill="#ECECFE"/>
<path fill-rule="evenodd" clip-rule="evenodd" d="M9 32C8.4486 32 8 31.5514 8 31C8 30.4486 8.4486 30 9 30C9.5514 30 10 30.4486 10 31C10 31.5514 9.5514 32 9 32Z" fill="#ECECFE"/>
<path fill-rule="evenodd" clip-rule="evenodd" d="M32.4454 44.1681C32.9049 43.8617 33.5258 43.9859 33.8322 44.4454C35.3157 46.6707 38.5062 48.0001 41.0001 48.0001C41.5524 48.0001 42.0001 48.4478 42.0001 49.0001C42.0001 49.5524 41.5524 50.0001 41.0001 50.0001C37.894 50.0001 34.0691 48.4064 32.1681 45.5548C31.8617 45.0953 31.9859 44.4744 32.4454 44.1681Z" fill="#E1000F"/>
<path d="M40.9933 14.3394C40.9355 13.8421 40.5128 13.4561 40 13.4561C39.4477 13.4561 39 13.9038 39 14.4561V19.9297L39.0067 20.0464C39.0645 20.5437 39.4872 20.9297 40 20.9297C40.5523 20.9297 41 20.482 41 19.9297V14.4561L40.9933 14.3394Z" fill="#000091"/>
<path d="M19.3793 38.9999C19.9316 38.9999 20.3793 39.4476 20.3793 39.9999C20.3793 40.5128 19.9933 40.9354 19.4959 40.9932L19.3793 40.9999H14C13.4477 40.9999 13 40.5522 13 39.9999C13 39.4871 13.386 39.0644 13.8834 39.0066L14 38.9999H19.3793Z" fill="#000091"/>
<path d="M66 38.9999C66.5523 38.9999 67 39.4476 67 39.9999C67 40.5128 66.614 40.9354 66.1166 40.9932L66 40.9999H60.6207C60.0684 40.9999 59.6207 40.5522 59.6207 39.9999C59.6207 39.4871 60.0067 39.0644 60.5041 39.0066L60.6207 38.9999H66Z" fill="#000091"/>
<path d="M40 59.0701C40.5128 59.0701 40.9355 59.4561 40.9933 59.9535L41 60.0701V65.5438C41 66.0961 40.5523 66.5438 40 66.5438C39.4872 66.5438 39.0645 66.1577 39.0067 65.6604L39 65.5438V60.0701C39 59.5178 39.4477 59.0701 40 59.0701Z" fill="#000091"/>
<path d="M25.4596 53.8832C25.0656 53.4961 24.4325 53.5016 24.0454 53.8955L22.2523 55.72L22.1699 55.815C21.8683 56.2099 21.901 56.7769 22.2646 57.1342C22.6585 57.5213 23.2916 57.5158 23.6787 57.1219L25.4718 55.2973L25.5542 55.2024C25.8558 54.8075 25.8232 54.2405 25.4596 53.8832Z" fill="#000091"/>
<path d="M56.3213 21.0534C56.7084 20.6595 57.3415 20.654 57.7354 21.0411C58.099 21.3984 58.1317 21.9654 57.8301 22.3603L57.7477 22.4552L55.9546 24.2798C55.5675 24.6737 54.9344 24.6792 54.5404 24.2921C54.1768 23.9348 54.1442 23.3678 54.4458 22.9729L54.5281 22.8779L56.3213 21.0534Z" fill="#000091"/>
<path d="M23.5853 20.9694C23.1956 20.6609 22.6282 20.6837 22.2646 21.0411C21.8707 21.4282 21.8652 22.0613 22.2523 22.4552L24.0454 24.2798L24.1389 24.3638C24.5285 24.6722 25.0959 24.6494 25.4596 24.2921C25.8535 23.905 25.859 23.2718 25.4718 22.8779L23.6787 21.0534L23.5853 20.9694Z" fill="#000091"/>
<path d="M54.5404 53.8832C54.9041 53.5258 55.4715 53.503 55.8611 53.8115L55.9546 53.8955L57.7477 55.72C58.1348 56.1139 58.1293 56.7471 57.7354 57.1342C57.3718 57.4915 56.8044 57.5143 56.4147 57.2059L56.3213 57.1219L54.5281 55.2973C54.141 54.9034 54.1465 54.2703 54.5404 53.8832Z" fill="#000091"/>
<path d="M54 39.9999C54 32.2679 47.732 25.9999 40 25.9999C32.268 25.9999 26 32.2679 26 39.9999C26 41.9152 26.3854 43.7783 27.1232 45.5028C27.3404 46.0105 27.9282 46.246 28.4359 46.0288C28.9437 45.8115 29.1792 45.2238 28.962 44.716C28.33 43.2391 28 41.6435 28 39.9999C28 33.3725 33.3726 27.9999 40 27.9999C46.6274 27.9999 52 33.3725 52 39.9999C52 46.6273 46.6274 51.9999 40 51.9999C36.4505 51.9999 33.1548 50.4512 30.8879 47.8085C30.5283 47.3894 29.897 47.341 29.4778 47.7006C29.0586 48.0602 29.0103 48.6915 29.3699 49.1107C32.0128 52.1917 35.8607 53.9999 40 53.9999C47.732 53.9999 54 47.7319 54 39.9999Z" fill="#000091"/>
</svg>
