<svg width="80" height="80" viewBox="0 0 80 80" fill="none" xmlns="http://www.w3.org/2000/svg">
<path fill-rule="evenodd" clip-rule="evenodd" d="M61 73C60.4486 73 60 72.5514 60 72C60 71.4486 60.4486 71 61 71C61.5514 71 62 71.4486 62 72C62 72.5514 61.5514 73 61 73Z" fill="#ECECFE"/>
<path fill-rule="evenodd" clip-rule="evenodd" d="M69 10C68.4486 10 68 9.5514 68 9C68 8.44855 68.4486 8 69 8C69.5514 8 70 8.44855 70 9C70 9.5514 69.5514 10 69 10Z" fill="#ECECFE"/>
<path fill-rule="evenodd" clip-rule="evenodd" d="M14 12C13.4486 12 13 11.5514 13 11C13 10.4486 13.4486 10 14 10C14.5514 10 15 10.4486 15 11C15 11.5514 14.5514 12 14 12Z" fill="#ECECFE"/>
<path fill-rule="evenodd" clip-rule="evenodd" d="M40 19.0001C37.7909 19.0001 36 20.7909 36 23.0001C36 25.2092 37.7909 27.0001 40 27.0001C42.2091 27.0001 44 25.2092 44 23.0001C44 20.7909 42.2091 19.0001 40 19.0001ZM34 23.0001C34 19.6864 36.6863 17.0001 40 17.0001C43.3137 17.0001 46 19.6864 46 23.0001C46 26.3138 43.3137 29.0001 40 29.0001C36.6863 29.0001 34 26.3138 34 23.0001Z" fill="#E1000F"/>
<path fill-rule="evenodd" clip-rule="evenodd" d="M14.724 15.3102C15.105 15.7101 15.0896 16.3431 14.6898 16.724C9.33505 21.8253 6 29.0224 6 37.0001C6 37.5524 5.55228 38.0001 5 38.0001C4.44772 38.0001 4 37.5524 4 37.0001C4 28.4528 7.57577 20.739 13.3102 15.276C13.7101 14.895 14.3431 14.9104 14.724 15.3102Z" fill="#E1000F"/>
<path d="M70 43.0001C70 43.5523 69.5523 44.0001 69 44.0001C68.4477 44.0001 68 43.5523 68 43.0001C68 42.4478 68.4477 42.0001 69 42.0001C69.5523 42.0001 70 42.4478 70 43.0001Z" fill="#E1000F"/>
<path fill-rule="evenodd" clip-rule="evenodd" d="M57.0422 29.0319C58.5952 28.7867 60 29.987 60 31.5594C60 32.7018 59.2427 33.7058 58.1442 34.0197L46.7253 37.2822C46.296 37.4049 46 37.7973 46 38.2437V44.5911L50.2161 58.9259C50.7758 60.8287 49.3493 62.7351 47.3659 62.7351C46.1274 62.7351 45.0189 61.9669 44.5841 60.8074L40 48.5831L35.4159 60.8074C34.9811 61.9669 33.8726 62.7351 32.6341 62.7351C30.6507 62.7351 29.2242 60.8287 29.7839 58.9259L34 44.5911V38.2437C34 37.7973 33.704 37.4049 33.2747 37.2822L21.8558 34.0197C20.7573 33.7058 20 32.7018 20 31.5594C20 29.987 21.4048 28.7867 22.9579 29.0319L39.844 31.6981C39.9474 31.7144 40.0526 31.7144 40.156 31.6981L57.0422 29.0319ZM58 31.5594C58 31.216 57.6932 30.9539 57.3541 31.0074L40.4679 33.6737C40.1579 33.7226 39.8421 33.7226 39.5321 33.6737L22.6459 31.0074C22.3068 30.9539 22 31.216 22 31.5594C22 31.8088 22.1654 32.0281 22.4053 32.0966L33.8242 35.3592C35.1121 35.7271 36 36.9043 36 38.2437V44.7351C36 44.8307 35.9863 44.9257 35.9594 45.0173L31.7026 59.4902C31.5197 60.1121 31.9859 60.7351 32.6341 60.7351C33.0389 60.7351 33.4011 60.4841 33.5433 60.1051L39.0637 45.384C39.21 44.9937 39.5832 44.7351 40 44.7351C40.4168 44.7351 40.79 44.9937 40.9363 45.384L46.4567 60.1051C46.5989 60.4841 46.9611 60.7351 47.3659 60.7351C48.0141 60.7351 48.4803 60.1121 48.2974 59.4902L44.0406 45.0173C44.0137 44.9257 44 44.8307 44 44.7351V38.2437C44 36.9043 44.8879 35.7271 46.1758 35.3592L57.5947 32.0966C57.8346 32.0281 58 31.8088 58 31.5594Z" fill="#000091"/>
<path fill-rule="evenodd" clip-rule="evenodd" d="M40 12C24.536 12 12 24.536 12 40C12 55.464 24.536 68 40 68C45.9202 68 51.4086 66.1638 55.9304 63.0298C56.3843 62.7152 57.0073 62.8281 57.3219 63.282C57.6365 63.7359 57.5236 64.359 57.0696 64.6736C52.224 68.032 46.3403 70 40 70C23.4315 70 10 56.5685 10 40C10 23.4315 23.4315 10 40 10C56.5685 10 70 23.4315 70 40C70 40.5523 69.5523 41 69 41C68.4477 41 68 40.5523 68 40C68 24.536 55.464 12 40 12ZM67.2206 50.0748C67.7316 50.2845 67.9758 50.8686 67.7662 51.3796C67.4035 52.2638 66.9998 53.1268 66.5574 53.9662C65.4782 56.0144 64.1691 57.9222 62.6647 59.6555C62.3027 60.0726 61.6711 60.1172 61.254 59.7552C60.8369 59.3932 60.7923 58.7616 61.1543 58.3445C62.559 56.7261 63.7809 54.9451 64.788 53.0338C65.2008 52.2505 65.5775 51.4453 65.9159 50.6204C66.1255 50.1095 66.7097 49.8652 67.2206 50.0748Z" fill="#000091"/>
</svg>
