<svg width="80" height="80" viewBox="0 0 80 80" fill="none" xmlns="http://www.w3.org/2000/svg">
<path fill-rule="evenodd" clip-rule="evenodd" d="M21 76C20.4486 76 20 75.5514 20 75C20 74.4486 20.4486 74 21 74C21.5514 74 22 74.4486 22 75C22 75.5514 21.5514 76 21 76Z" fill="#ECECFE"/>
<path fill-rule="evenodd" clip-rule="evenodd" d="M67 12C66.4486 12 66 11.5514 66 11C66 10.4486 66.4486 10 67 10C67.5514 10 68 10.4486 68 11C68 11.5514 67.5514 12 67 12Z" fill="#ECECFE"/>
<path fill-rule="evenodd" clip-rule="evenodd" d="M3 54C2.4486 54 2 53.5514 2 53C2 52.4486 2.4486 52 3 52C3.5514 52 4 52.4486 4 53C4 53.5514 3.5514 54 3 54Z" fill="#ECECFE"/>
<path fill-rule="evenodd" clip-rule="evenodd" d="M45.5126 31.9071C45.3237 31.3881 44.7499 31.1205 44.2309 31.3094L41.653 32.2477C41.6362 32.2292 41.6185 32.2112 41.6001 32.1937L36.7289 27.5816C36.4538 27.3212 36.0552 27.2385 35.6993 27.3681L31.9405 28.7362C31.2844 28.975 31.0688 29.7956 31.5228 30.326L36.8076 36.5016C36.721 36.724 36.7152 36.9744 36.7997 37.2067L37.4838 39.0861L37.5321 39.1975C37.6961 39.5199 38.0242 39.732 38.392 39.7436L43.7745 39.9128L43.9013 39.9088C43.9854 39.9007 44.0683 39.882 44.148 39.853L71.3991 29.9344L71.628 29.848C73.8022 28.997 74.8396 27.6919 74.2295 26.0158C73.2784 23.4028 68.1061 22.6196 65.8438 23.443L57.4177 26.5098L46.4808 24.2633C46.2995 24.2261 46.1114 24.2399 45.9375 24.3032L41.2391 26.0133C40.375 26.3277 40.3577 27.5435 41.2124 27.8825L52.4058 32.3219C52.6335 32.4122 52.8864 32.4158 53.1165 32.332L61.5737 29.2538C62.5213 28.9089 62.4206 27.5375 61.4329 27.3346L61.1558 27.2776L66.5279 25.3224L66.606 25.299C66.7542 25.2617 66.9906 25.2331 67.2807 25.2168L67.6525 25.2034C68.2422 25.1927 68.9617 25.2263 69.6107 25.3246C71.1249 25.5539 72.1186 26.0636 72.3501 26.6998L72.3681 26.759C72.4644 27.1541 72.0762 27.5596 70.715 28.0551L43.6455 37.9075L39.1305 37.7651L38.8898 37.1036L41.3763 34.4767L44.9149 33.1888L45.0222 33.1426C45.4698 32.9182 45.688 32.389 45.5126 31.9071ZM39.7646 33.2712L38.1422 34.9848L34.2568 30.4441L36.0779 29.7812L39.7646 33.2712ZM57.5682 28.5827L46.3541 26.2792L44.393 26.993L52.788 30.3225L57.5682 28.5827Z" fill="#E1000F"/>
<path d="M17 25.9999C17.5523 25.9999 18 25.5522 18 24.9999C18 24.4476 17.5523 23.9999 17 23.9999C16.4477 23.9999 16 24.4476 16 24.9999C16 25.5522 16.4477 25.9999 17 25.9999Z" fill="#E1000F"/>
<path d="M23 25.9999C23.5523 25.9999 24 25.5522 24 24.9999C24 24.4476 23.5523 23.9999 23 23.9999C22.4477 23.9999 22 24.4476 22 24.9999C22 25.5522 22.4477 25.9999 23 25.9999Z" fill="#E1000F"/>
<path d="M36.6838 42.0512C37.2077 41.8766 37.774 42.1598 37.9487 42.6837C38.1109 43.1702 37.8783 43.6933 37.4247 43.9054L37.3162 43.9486L31.3162 45.9486C30.7923 46.1233 30.226 45.8401 30.0513 45.3162C29.8891 44.8296 30.1217 44.3066 30.5753 44.0945L30.6838 44.0512L36.6838 42.0512Z" fill="#E1000F"/>
<path d="M52.6838 40.0512C53.2077 39.8766 53.774 40.1598 53.9487 40.6837C54.1109 41.1702 53.8783 41.6933 53.4247 41.9054L53.3162 41.9486L41.3162 45.9486C40.7923 46.1233 40.226 45.8401 40.0513 45.3162C39.8891 44.8296 40.1217 44.3066 40.5753 44.0945L40.6838 44.0512L52.6838 40.0512Z" fill="#E1000F"/>
<path d="M67 65.9999C67.5523 65.9999 68 65.5522 68 64.9999C68 64.4476 67.5523 63.9999 67 63.9999C66.4477 63.9999 66 64.4476 66 64.9999C66 65.5522 66.4477 65.9999 67 65.9999Z" fill="#E1000F"/>
<path d="M64 64.9999C64 65.5522 63.5523 65.9999 63 65.9999C62.4477 65.9999 62 65.5522 62 64.9999C62 64.4476 62.4477 63.9999 63 63.9999C63.5523 63.9999 64 64.4476 64 64.9999Z" fill="#E1000F"/>
<path d="M49 61.9999C49.5523 61.9999 50 61.5522 50 60.9999C50 60.4476 49.5523 59.9999 49 59.9999C48.4477 59.9999 48 60.4476 48 60.9999C48 61.5522 48.4477 61.9999 49 61.9999Z" fill="#E1000F"/>
<path d="M55 59.9999C55.5523 59.9999 56 60.4476 56 60.9999C56 61.5128 55.614 61.9354 55.1166 61.9932L55 61.9999H53C52.4477 61.9999 52 61.5522 52 60.9999C52 60.4871 52.386 60.0644 52.8834 60.0067L53 59.9999H55Z" fill="#E1000F"/>
<path d="M46 60.9999C46 60.4476 45.5523 59.9999 45 59.9999H41L40.8834 60.0067C40.386 60.0644 40 60.4871 40 60.9999C40 61.5522 40.4477 61.9999 41 61.9999H45L45.1166 61.9932C45.614 61.9354 46 61.5128 46 60.9999Z" fill="#E1000F"/>
<path fill-rule="evenodd" clip-rule="evenodd" d="M16.8668 12.007C15.7111 12.131 15.7111 13.869 16.8668 13.993L17 14H18V16H13L12.8668 16.007C11.7111 16.131 11.7111 17.869 12.8668 17.993L13 18H14.381L15.3816 20H11C10.3494 20 9.87207 20.6114 10.0299 21.2425L12.0299 29.2425C12.1411 29.6877 12.5411 30 13 30H15.9982L15.9947 31.8906L15.973 35.3293L15.9521 37.2993L15.9041 40.4269L15.8674 42.2099L15.7932 45.0251L15.7221 47.1364L15.6621 48.6374L15.5492 50.9819L15.4473 52.7157L15.3643 53.9332L15.2755 55.0796L15.1811 56.1546L15.081 57.1584L14.9753 58.0906L14.9017 58.6724L14.8256 59.2223L14.7471 59.7404L14.6744 60.1787C14.5502 60.8958 14.4174 61.5031 14.2763 62H13L12.8834 62.0067C12.386 62.0645 12 62.4872 12 63C12 63.5523 12.4477 64 13 64H14.9767C14.9921 64.0004 15.0076 64.0004 15.0229 64H24.9771C24.9924 64.0004 25.0079 64.0004 25.0233 64H27L27.1166 63.9933C27.614 63.9355 28 63.5128 28 63C28 62.4477 27.5523 62 27 62H25.7237C25.5826 61.5031 25.4498 60.8958 25.3256 60.1787L25.2529 59.7404L25.1744 59.2223L25.0983 58.6724L24.9888 57.7878L24.885 56.8317L24.8189 56.1546L24.7553 55.4458L24.6647 54.3232L24.5797 53.1295L24.5005 51.8646L24.427 50.5288L24.3379 48.6374L24.2779 47.1364L24.1907 44.4777L24.1198 41.6234L24.0748 39.1992L24.0479 37.2993L24.027 35.3293L24.0053 31.8906L24.0018 30H27C27.4589 30 27.8589 29.6877 27.9701 29.2425L29.9701 21.2425C30.1279 20.6114 29.6506 20 29 20H24.618L25.618 18H27L27.1332 17.993C28.3317 17.8644 28.2874 16 27 16H22V14H23L23.1332 13.993C24.3317 13.8644 24.2874 12 23 12H17L16.8668 12.007ZM23.6624 62H16.338L16.3533 61.938L16.44 61.5517L16.5242 61.1396L16.6461 60.4733L16.7244 59.9969L16.8003 59.4946L16.8738 58.9666L16.9797 58.126L17.0802 57.2273L17.1754 56.2702L17.2653 55.2547L17.3223 54.5452L17.4293 53.0483L17.5034 51.8572L17.5941 50.1777L17.6561 48.8495L17.7307 46.987L17.796 45.0197L17.839 43.4752L17.8884 41.324L17.9195 39.6414L17.96 36.7051L17.9901 32.9636L17.999 30H22L22.0098 32.9326L22.0329 36.0319L22.0788 39.5381L22.1204 41.7469L22.1709 43.8528L22.2146 45.3649L22.2806 47.2914L22.3557 49.1156L22.4179 50.4166L22.5087 52.0622L22.5828 53.2295L22.662 54.3396L22.7176 55.048L22.8358 56.3886L22.8983 57.0209L22.9965 57.9219L23.0998 58.7661L23.1715 59.2973L23.2456 59.8033L23.322 60.2841L23.4007 60.7398L23.4818 61.1703L23.6078 61.7689L23.6624 62ZM13.781 28L12.281 22H16.9799C16.9938 22.0003 17.0077 22.0003 17.0217 22H22.9783C22.9923 22.0003 23.0062 22.0003 23.0201 22H27.718L26.218 28H13.781ZM16.618 18L17.618 20H22.3818L23.381 18H16.618Z" fill="#000091"/>
<path d="M38 67C38 66.4477 37.5523 66 37 66H9L8.88338 66.0067C8.38604 66.0645 8 66.4872 8 67C8 67.5523 8.44772 68 9 68H37L37.1166 67.9933C37.614 67.9355 38 67.5128 38 67Z" fill="#000091"/>
<path fill-rule="evenodd" clip-rule="evenodd" d="M59.9933 56.8834C59.9355 56.386 59.5128 56 59 56H50V54H51L51.1332 53.993C52.2889 53.869 52.2889 52.131 51.1332 52.007L51 52H41L40.8668 52.007C39.7111 52.131 39.7111 53.869 40.8668 53.993L41 54H42V56H33L32.8834 56.0067C32.386 56.0645 32 56.4872 32 57V61L32.0067 61.1166C32.0645 61.614 32.4872 62 33 62L33.1166 61.9933C33.614 61.9355 34 61.5128 34 61V58H58V66H43.4L43.2834 66.0067C42.786 66.0645 42.4 66.4872 42.4 67C42.4 67.5523 42.8477 68 43.4 68H59L59.1166 67.9933C59.614 67.9355 60 67.5128 60 67V62H70V67L70.0067 67.1166C70.0645 67.614 70.4872 68 71 68C71.5523 68 72 67.5523 72 67V61L71.9933 60.8834C71.9355 60.386 71.5128 60 71 60H60V57L59.9933 56.8834ZM48 56V54H44V56H48Z" fill="#000091"/>
</svg>
