<svg width="80" height="80" viewBox="0 0 80 80" fill="none" xmlns="http://www.w3.org/2000/svg">
<path fill-rule="evenodd" clip-rule="evenodd" d="M74 36C73.4486 36 73 35.5514 73 35C73 34.4486 73.4486 34 74 34C74.5514 34 75 34.4486 75 35C75 35.5514 74.5514 36 74 36Z" fill="#ECECFE"/>
<path fill-rule="evenodd" clip-rule="evenodd" d="M68 74C67.4486 74 67 73.5514 67 73C67 72.4486 67.4486 72 68 72C68.5514 72 69 72.4486 69 73C69 73.5514 68.5514 74 68 74Z" fill="#ECECFE"/>
<path fill-rule="evenodd" clip-rule="evenodd" d="M9 72C8.4486 72 8 71.5514 8 71C8 70.4486 8.4486 70 9 70C9.5514 70 10 70.4486 10 71C10 71.5514 9.5514 72 9 72Z" fill="#ECECFE"/>
<path fill-rule="evenodd" clip-rule="evenodd" d="M55 9C54.4486 9 54 8.5514 54 8C54 7.44855 54.4486 7 55 7C55.5514 7 56 7.44855 56 8C56 8.5514 55.5514 9 55 9Z" fill="#ECECFE"/>
<path fill-rule="evenodd" clip-rule="evenodd" d="M16 6C15.4486 6 15 5.5514 15 5C15 4.44855 15.4486 4 16 4C16.5514 4 17 4.44855 17 5C17 5.5514 16.5514 6 16 6Z" fill="#ECECFE"/>
<path fill-rule="evenodd" clip-rule="evenodd" d="M23 37.2C21.8954 37.2 21 38.0954 21 39.2C21 40.3046 21.8954 41.2 23 41.2C24.1046 41.2 25 40.3046 25 39.2C25 38.0954 24.1046 37.2 23 37.2ZM19 39.2C19 36.9909 20.7909 35.2 23 35.2C25.2091 35.2 27 36.9909 27 39.2C27 41.4091 25.2091 43.2 23 43.2C20.7909 43.2 19 41.4091 19 39.2Z" fill="#E1000F"/>
<path fill-rule="evenodd" clip-rule="evenodd" d="M58.3545 24.466C58.6219 24.0426 59.1614 23.8823 59.6167 24.0909L62.0167 25.1909C62.4506 25.3898 62.6835 25.8677 62.5727 26.332L61.6 26.1C62.5727 26.332 62.5727 26.3319 62.5727 26.332L62.5645 26.3662L62.5412 26.462C62.5207 26.546 62.4903 26.6696 62.4501 26.8299C62.3699 27.1506 62.2509 27.618 62.095 28.2084C61.7833 29.389 61.3241 31.0621 60.733 33.0368C59.5521 36.9816 57.8388 42.1491 55.7162 47.0008C55.4948 47.5068 54.9052 47.7375 54.3992 47.5162C53.8932 47.2948 53.6625 46.7052 53.8838 46.1992C55.9612 41.4509 57.6479 36.3684 58.817 32.4632C59.4009 30.5129 59.8542 28.861 60.1613 27.6979C60.2689 27.2902 60.3585 26.9427 60.4295 26.6635L59.5851 26.2766C59.4384 26.5157 59.2595 26.809 59.053 27.1511C58.4288 28.1852 57.5523 29.6647 56.5451 31.4429C54.5308 34.9991 52.0022 39.735 49.9225 44.4862L49.3285 45.9714C49.1234 46.4842 48.5414 46.7336 48.0286 46.5285C47.5158 46.3234 47.2664 45.7414 47.4715 45.2286L48.0715 43.7286C48.0755 43.7187 48.0796 43.7089 48.0838 43.6992C50.203 38.8553 52.7713 34.0473 54.8049 30.4571C55.8227 28.6603 56.7087 27.1648 57.3407 26.1176C57.6568 25.594 57.9095 25.1823 58.0835 24.9009C58.1705 24.7602 58.2379 24.6521 58.2837 24.5789L58.336 24.4954L58.3545 24.466C58.3546 24.4659 58.3545 24.466 59.2 25L58.3545 24.466Z" fill="#E1000F"/>
<path fill-rule="evenodd" clip-rule="evenodd" d="M47.3893 61.5279C47.8709 61.7981 48.0424 62.4076 47.7721 62.8893C46.6187 64.9455 45.5416 66.7197 44.624 67.9389C44.1704 68.5414 43.7159 69.0629 43.2747 69.413C42.9099 69.7025 42.2001 70.1541 41.4213 69.8257C40.7576 69.5625 40.518 68.9417 40.4327 68.5064C40.3427 68.0471 40.3585 67.5066 40.4183 66.9547C40.5397 65.835 40.8829 64.3457 41.3333 62.6441C41.4746 62.1102 42.022 61.792 42.5559 61.9333C43.0898 62.0746 43.408 62.622 43.2667 63.1559C42.8171 64.8543 42.5103 66.215 42.4067 67.1703C42.3926 67.2998 42.383 67.4163 42.3771 67.5206C42.5624 67.3237 42.779 67.0643 43.026 66.7361C43.8584 65.6303 44.8814 63.9545 46.0279 61.9108C46.2981 61.4291 46.9076 61.2577 47.3893 61.5279ZM41.86 67.9595C41.8603 67.9586 41.8681 67.9544 41.8826 67.9498C41.867 67.9582 41.8597 67.9605 41.86 67.9595Z" fill="#E1000F"/>
<path fill-rule="evenodd" clip-rule="evenodd" d="M52.3853 35.7958C52.6085 35.2907 53.199 35.0621 53.7042 35.2853L58.0042 37.1853C58.5093 37.4085 58.7379 37.999 58.5147 38.5042C58.2915 39.0093 57.701 39.2379 57.1958 39.0147L52.8958 37.1147C52.3907 36.8915 52.1621 36.301 52.3853 35.7958Z" fill="#E1000F"/>
<path fill-rule="evenodd" clip-rule="evenodd" d="M67.7909 10.8654L66.8 11L66.2257 10.1813C66.5114 9.98097 66.8808 9.94397 67.2005 10.0837C67.5202 10.2234 67.7439 10.5197 67.7909 10.8654ZM67.623 22.1853C67.9941 21.3374 68.154 20.1809 68.2202 19.031C68.2888 17.8409 68.2621 16.5349 68.1986 15.3347C68.1349 14.1312 68.0332 13.0162 67.9476 12.2031C67.9048 11.7961 67.8659 11.4635 67.8375 11.2319C67.8234 11.1161 67.8118 11.0254 67.8038 10.9633L67.7944 10.8918L67.7919 10.8728L67.7909 10.8654C67.7909 10.8653 67.7909 10.8654 66.8 11C66.2257 10.1813 66.2258 10.1813 66.2257 10.1813L66.2195 10.1857L66.2038 10.1968L66.1447 10.2387C66.0935 10.2751 66.0189 10.3285 65.9241 10.397C65.7345 10.534 65.4637 10.7321 65.1356 10.9784C64.4804 11.4702 63.5931 12.157 62.6687 12.9348C61.7468 13.7104 60.7736 14.5886 59.9535 15.4627C59.1546 16.3142 58.4174 17.2481 58.0692 18.1344C57.4499 19.7109 57.3423 21.3264 57.4803 22.6651C57.6138 23.96 57.995 25.151 58.5106 25.8139C58.8497 26.2499 59.478 26.3284 59.9139 25.9894C60.3499 25.6503 60.4284 25.022 60.0893 24.5861C59.905 24.349 59.5862 23.59 59.4697 22.46C59.3577 21.3737 59.4501 20.0891 59.9307 18.8657C60.1326 18.3519 60.6454 17.6483 61.4121 16.8311C62.1576 16.0365 63.0657 15.2146 63.9563 14.4652C64.6965 13.8424 65.4147 13.278 66.0013 12.8312C66.0736 13.5648 66.1503 14.4747 66.2014 15.4403C66.2629 16.6026 66.2862 17.8279 66.2235 18.9159C66.1591 20.0346 66.0085 20.8936 65.7862 21.3939C65.7802 21.4072 65.7746 21.4207 65.7692 21.4344C65.2996 22.6298 64.4554 23.5919 63.5903 24.2574C63.1598 24.5885 62.7397 24.834 62.3833 24.993C62.0051 25.1617 61.7728 25.2 61.7 25.2C61.1477 25.2 60.7 25.6477 60.7 26.2C60.7 26.7523 61.1477 27.2 61.7 27.2C62.1772 27.2 62.7074 27.0383 63.198 26.8195C63.7103 26.591 64.2651 26.2615 64.8097 25.8426C65.8902 25.0115 66.9913 23.7803 67.623 22.1853Z" fill="#E1000F"/>
<path fill-rule="evenodd" clip-rule="evenodd" d="M61.0882 39.1088C61.4147 38.6634 62.0405 38.567 62.4859 38.8935C64.2822 40.2103 65.7017 42.2609 65.4767 45.2003C65.14 52.6765 59.0812 56.8595 51.0135 58.9295L51.0078 58.931C46.754 59.9958 41.6841 59.8838 36.8887 59.0304C32.092 58.1768 27.474 56.5644 24.1163 54.5451C19.9623 52.069 14.9803 48.0433 12.5757 42.2185C12.365 41.708 12.608 41.1233 13.1185 40.9126C13.629 40.7019 14.2137 40.9449 14.4244 41.4554C16.5907 46.7029 21.1475 50.4475 25.1418 52.8281L25.1453 52.8302C28.2467 54.6957 32.6211 56.2396 37.2391 57.0614C41.8582 57.8833 46.6252 57.9657 50.5195 56.9915C58.3435 54.9833 63.2114 51.2065 63.4794 45.0956C63.4796 45.0896 63.4799 45.0836 63.4803 45.0776C63.4807 45.0721 63.481 45.0665 63.4815 45.061C63.6469 42.9589 62.6836 41.5183 61.3035 40.5065C60.8581 40.18 60.7617 39.5542 61.0882 39.1088Z" fill="#000091"/>
<path fill-rule="evenodd" clip-rule="evenodd" d="M13.3394 50.4493C13.7541 50.0845 14.3859 50.1248 14.7508 50.5394C16.8743 52.9525 19.4948 55.0925 22.6301 57.052C22.6384 57.0572 22.6466 57.0625 22.6548 57.068C23.7807 57.8186 25.3157 58.5897 26.9808 59.2753C27.4915 59.4856 27.735 60.0701 27.5248 60.5808C27.3145 61.0915 26.73 61.335 26.2193 61.1247C24.49 60.4126 22.8302 59.5868 21.5578 58.7403C18.2984 56.7019 15.523 54.4443 13.2494 51.8607C12.8845 51.446 12.9248 50.8142 13.3394 50.4493Z" fill="#000091"/>
<path fill-rule="evenodd" clip-rule="evenodd" d="M12.0001 35.2C12.5524 35.2 13.0001 35.6477 13.0001 36.2L13.0002 37.2C13.0002 37.7523 12.5525 38.2 12.0002 38.2C11.4479 38.2 11.0002 37.7523 11.0002 37.2L11.0001 36.2C11.0001 35.6477 11.4478 35.2 12.0001 35.2Z" fill="#000091"/>
<path fill-rule="evenodd" clip-rule="evenodd" d="M11.005 31.8463C12.2266 19.6304 22.147 11.543 34.3577 12.2475C39.7033 12.5589 44.4347 14.4769 47.7203 16.8332C49.3614 18.0101 50.677 19.3214 51.5236 20.6355C52.3562 21.9281 52.8191 23.3629 52.4672 24.7003L52.4637 24.7135C52.1005 26.0208 51.0909 26.7507 50.1509 27.162C49.2204 27.5691 48.2044 27.7338 47.5582 27.8333C47.5065 27.8419 47.4502 27.8509 47.3898 27.8606C46.6887 27.9734 45.4367 28.1748 44.3669 28.779C43.8007 29.0988 43.3359 29.5061 43.0366 30.0287C42.7458 30.5364 42.5683 31.2271 42.69 32.2031C42.8405 33.1167 43.3426 33.7921 44.1519 34.3453C44.995 34.9215 46.1357 35.3368 47.451 35.6778C47.9856 35.8164 48.3067 36.3622 48.1681 36.8968C48.0295 37.4314 47.4837 37.7524 46.9491 37.6138C45.5645 37.2548 44.1552 36.7701 43.0233 35.9964C41.862 35.2026 40.9652 34.0825 40.7126 32.5038C40.711 32.4934 40.7095 32.4829 40.7081 32.4724C40.5338 31.1069 40.7684 29.9649 41.301 29.0348C41.8268 28.1167 42.5994 27.4803 43.3833 27.0376C44.7881 26.2442 46.3888 25.9928 47.0713 25.8857C47.1342 25.8758 47.1893 25.8672 47.2357 25.8594L47.248 25.8574C47.9021 25.7567 48.6827 25.6213 49.3493 25.3297C50.0063 25.0422 50.3962 24.6742 50.5347 24.1848C50.6799 23.6223 50.5288 22.7844 49.8422 21.7186C49.1669 20.6702 48.0512 19.5316 46.5548 18.4585C43.5656 16.3148 39.1967 14.5328 34.2425 14.2442M34.2425 14.2442C23.0555 13.599 14.1054 20.9421 12.9951 32.0453C12.9402 32.5949 12.4501 32.9958 11.9006 32.9409C11.351 32.8859 10.9501 32.3959 11.005 31.8463" fill="#000091"/>
<path fill-rule="evenodd" clip-rule="evenodd" d="M34.0001 20.2C32.8955 20.2 32.0001 21.0955 32.0001 22.2C32.0001 23.3046 32.8955 24.2 34.0001 24.2C35.1046 24.2 36.0001 23.3046 36.0001 22.2C36.0001 21.0955 35.1046 20.2 34.0001 20.2ZM30.0001 22.2C30.0001 19.9909 31.7909 18.2 34.0001 18.2C36.2092 18.2 38.0001 19.9909 38.0001 22.2C38.0001 24.4092 36.2092 26.2 34.0001 26.2C31.7909 26.2 30.0001 24.4092 30.0001 22.2Z" fill="#000091"/>
<path fill-rule="evenodd" clip-rule="evenodd" d="M23.0001 25.2C21.8955 25.2 21.0001 26.0955 21.0001 27.2C21.0001 28.3046 21.8955 29.2 23.0001 29.2C24.1046 29.2 25.0001 28.3046 25.0001 27.2C25.0001 26.0955 24.1046 25.2 23.0001 25.2ZM19.0001 27.2C19.0001 24.9909 20.7909 23.2 23.0001 23.2C25.2092 23.2 27.0001 24.9909 27.0001 27.2C27.0001 29.4092 25.2092 31.2 23.0001 31.2C20.7909 31.2 19.0001 29.4092 19.0001 27.2Z" fill="#000091"/>
<path fill-rule="evenodd" clip-rule="evenodd" d="M32.5001 45.2C31.3955 45.2 30.5001 46.0955 30.5001 47.2C30.5001 48.3046 31.3955 49.2 32.5001 49.2C33.6046 49.2 34.5001 48.3046 34.5001 47.2C34.5001 46.0955 33.6046 45.2 32.5001 45.2ZM28.5001 47.2C28.5001 44.9909 30.2909 43.2 32.5001 43.2C34.7092 43.2 36.5001 44.9909 36.5001 47.2C36.5001 49.4092 34.7092 51.2 32.5001 51.2C30.2909 51.2 28.5001 49.4092 28.5001 47.2Z" fill="#000091"/>
<path fill-rule="evenodd" clip-rule="evenodd" d="M45.3134 45.2299C45.8492 45.3638 46.1749 45.9068 46.041 46.4426C45.9054 46.985 46.1015 47.7205 46.8626 48.5027C47.6113 49.2722 48.8095 49.9653 50.3064 50.3282C51.8052 50.6915 53.2159 50.6337 54.2661 50.2976C55.339 49.9543 55.8673 49.391 56.0007 48.8575C56.1347 48.3217 56.6776 47.9959 57.2134 48.1299C57.7492 48.2638 58.0749 48.8068 57.941 49.3426C57.5744 50.809 56.3027 51.7458 54.8756 52.2024C53.4258 52.6664 51.6365 52.7085 49.8352 52.2719C48.0322 51.8348 46.4804 50.9779 45.4291 49.8974C44.3902 48.8296 43.7363 47.4151 44.1007 45.9575C44.2347 45.4217 44.7776 45.0959 45.3134 45.2299Z" fill="#000091"/>
</svg>
