<svg width="80" height="80" viewBox="0 0 80 80" fill="none" xmlns="http://www.w3.org/2000/svg">
<path fill-rule="evenodd" clip-rule="evenodd" d="M59 76C58.4486 76 58 75.5514 58 75C58 74.4486 58.4486 74 59 74C59.5514 74 60 74.4486 60 75C60 75.5514 59.5514 76 59 76Z" fill="#ECECFE"/>
<path fill-rule="evenodd" clip-rule="evenodd" d="M67 8C66.4486 8 66 7.5514 66 7C66 6.44855 66.4486 6 67 6C67.5514 6 68 6.44855 68 7C68 7.5514 67.5514 8 67 8Z" fill="#ECECFE"/>
<path fill-rule="evenodd" clip-rule="evenodd" d="M8 14C7.4486 14 7 13.5514 7 13C7 12.4486 7.4486 12 8 12C8.5514 12 9 12.4486 9 13C9 13.5514 8.5514 14 8 14Z" fill="#ECECFE"/>
<path d="M31 32C31 31.4477 30.5523 31 30 31C29.4477 31 29 31.4477 29 32C29 32.5523 29.4477 33 30 33C30.5523 33 31 32.5523 31 32Z" fill="#E1000F"/>
<path d="M25.684 33.2703C25.2717 32.8822 24.6049 32.912 24.2318 33.3598L19.2318 39.3598L19.1639 39.4506C18.7319 40.099 19.1907 41 20 41H26L26.1166 40.9933C26.614 40.9355 27 40.5128 27 40L26.9933 39.8834C26.9355 39.386 26.5128 39 26 39H22.135L25 35.562L26.7596 37.6735L26.8459 37.7649C27.2089 38.1042 27.7763 38.1279 28.168 37.8016C28.5923 37.448 28.6496 36.8174 28.296 36.3932L25.7682 33.3598L25.684 33.2703Z" fill="#E1000F"/>
<path d="M34.5547 63.1679C34.3904 63.0584 34.1974 63 34 63H14L13.8834 63.0067C13.386 63.0645 13 63.4872 13 64L13.0067 64.1166C13.0645 64.614 13.4872 65 14 65H33.705L33.8051 65.0652C35.8457 66.3489 37.9148 67 40 67L40.3678 66.9932C42.3286 66.9212 44.2743 66.2734 46.1949 65.0652L46.294 65H66L66.1166 64.9933C66.614 64.9355 67 64.5128 67 64C67 63.4477 66.5523 63 66 63H46L45.8823 63.007C45.7265 63.0254 45.5767 63.0803 45.4453 63.1679C43.6023 64.3966 41.7921 65 40 65C38.2079 65 36.3977 64.3966 34.5547 63.1679Z" fill="#E1000F"/>
<path d="M31.2929 37.2929C31.6534 36.9324 32.2206 36.9047 32.6129 37.2097L32.7071 37.2929L34.7071 39.2929C35.0976 39.6834 35.0976 40.3166 34.7071 40.7071C34.3466 41.0676 33.7794 41.0953 33.3871 40.7903L33.2929 40.7071L32 39.415L30.7071 40.7071C30.3466 41.0676 29.7794 41.0953 29.3871 40.7903L29.2929 40.7071C28.9324 40.3466 28.9047 39.7794 29.2097 39.3871L29.2929 39.2929L31.2929 37.2929Z" fill="#E1000F"/>
<path d="M59 23.9999C59 23.4476 58.5523 22.9999 58 22.9999C56.9507 22.9999 55.7138 23.0975 54.2876 23.2924L53.4908 23.4084C53.0831 23.4712 52.6612 23.5412 52.2252 23.6185L51.3343 23.7827L50.4057 23.9661L49.4392 24.1688L48.4347 24.3908C48.2642 24.4294 48.092 24.4688 47.9183 24.509L46.8569 24.7598L45.7575 25.0298C45.2217 25.1637 44.8959 25.7067 45.0299 26.2424C45.1638 26.7782 45.7067 27.104 46.2425 26.9701C46.4239 26.9247 46.6037 26.8801 46.782 26.8364L47.8324 26.5831L48.8447 26.3487C49.0102 26.3112 49.1742 26.2744 49.3366 26.2385L50.2916 26.0323L51.2085 25.8448L52.0871 25.6762L52.9273 25.5263C53.0642 25.5029 53.1994 25.4803 53.333 25.4584L54.1156 25.3367C54.3701 25.2993 54.6181 25.265 54.8597 25.2338L55.5652 25.1496C56.4801 25.0498 57.2919 24.9999 58 24.9999C58.5523 24.9999 59 24.5522 59 23.9999Z" fill="#000091"/>
<path d="M58 28.9999C58.5523 28.9999 59 29.4476 59 29.9999C59 30.5522 58.5523 30.9999 58 30.9999C57.2919 30.9999 56.4801 31.0498 55.5652 31.1496L54.8597 31.2338C54.6181 31.265 54.3701 31.2993 54.1156 31.3367L53.333 31.4584C53.1994 31.4803 53.0642 31.5029 52.9273 31.5263L52.0871 31.6762L51.2085 31.8448L50.2916 32.0323L49.3366 32.2385C49.1742 32.2744 49.0102 32.3112 48.8447 32.3487L47.8324 32.5831L46.782 32.8364C46.6037 32.8801 46.4239 32.9247 46.2425 32.9701C45.7067 33.104 45.1638 32.7782 45.0299 32.2424C44.8959 31.7067 45.2217 31.1637 45.7575 31.0298L46.8569 30.7598L47.9183 30.509C48.092 30.4688 48.2642 30.4294 48.4347 30.3908L49.4392 30.1688L50.4057 29.9661L51.3343 29.7827L52.2252 29.6185C52.6612 29.5412 53.0831 29.4712 53.4908 29.4084L54.2876 29.2924C55.7138 29.0975 56.9507 28.9999 58 28.9999Z" fill="#000091"/>
<path d="M59 35.9999C59 35.4476 58.5523 34.9999 58 34.9999C56.9507 34.9999 55.7138 35.0975 54.2876 35.2924L53.4908 35.4084C53.0831 35.4712 52.6612 35.5412 52.2252 35.6185L51.3343 35.7827L50.4057 35.9661L49.4392 36.1688L48.4347 36.3908C48.2642 36.4294 48.092 36.4688 47.9183 36.509L46.8569 36.7598L45.7575 37.0298C45.2217 37.1637 44.8959 37.7067 45.0299 38.2424C45.1638 38.7782 45.7067 39.104 46.2425 38.9701C46.4239 38.9247 46.6037 38.8801 46.782 38.8364L47.8324 38.5831L48.8447 38.3487C49.0102 38.3111 49.1742 38.2744 49.3366 38.2385L50.2916 38.0323L51.2085 37.8448L52.0871 37.6762L52.9273 37.5263C53.0642 37.5029 53.1994 37.4803 53.333 37.4584L54.1156 37.3367C54.3701 37.2993 54.6181 37.265 54.8597 37.2338L55.5652 37.1496C56.4801 37.0498 57.2919 36.9999 58 36.9999C58.5523 36.9999 59 36.5522 59 35.9999Z" fill="#000091"/>
<path fill-rule="evenodd" clip-rule="evenodd" d="M36.7071 60.707C37.8549 59.5592 38.938 59.0116 39.967 59.0001C39.9734 59.0003 39.9798 59.0004 39.9862 59.0005C39.9909 59.0006 39.9955 59.0006 40.0002 59.0006H40.0038C40.0135 59.0006 40.0232 59.0004 40.0329 59.0001C41.0619 59.0115 42.145 59.5591 43.2929 60.707C43.4804 60.8946 43.7348 60.9999 44 60.9999H54L54.1166 60.9932C54.614 60.9354 55 60.5127 55 59.9999L54.9933 59.8833C54.9355 59.386 54.5128 58.9999 54 58.9999H44.402L44.2292 58.8411C43.9794 58.6186 43.7278 58.4157 43.4745 58.2327L43.5341 58.2226L44.1872 58.1169L44.8727 58.0159L45.5904 57.9197L46.3403 57.8282L47.1224 57.7414L47.9367 57.6594L48.7832 57.5822L49.6618 57.5097L50.5725 57.4421L51.5153 57.3792L52.9897 57.2938L54.5362 57.2193L55.6072 57.1756L56.7102 57.1368L57.8451 57.1028L59.6075 57.0608L61.4416 57.0298L63.3474 57.0097L65.3249 57.0005C65.5486 57.0001 65.7737 56.9999 66 56.9999C66.5523 56.9999 67 56.5522 67 55.9999V18.8497L69.001 21.3499L69 39.9999C69 40.5127 69.3861 40.9354 69.8834 40.9932L70 40.9999C70.5129 40.9999 70.9355 40.6139 70.9933 40.1165L71 39.9999V20.9999C71 20.8183 70.9506 20.6409 70.8582 20.4865L70.7809 20.3752L66.7985 15.3972C66.6281 15.1714 66.3637 15.0197 66.0612 15.0011C55.3111 14.3422 46.6232 15.6216 40 18.8654C33.3768 15.6216 24.6889 14.3422 13.9388 15.0011C13.6359 15.0197 13.3713 15.1718 13.2009 15.398L9.21913 20.3752L9.14187 20.4865C9.04946 20.6409 9 20.8183 9 20.9999V25.9999L9.00673 26.1165C9.06449 26.6139 9.48716 26.9999 10 26.9999L10.1166 26.9932C10.614 26.9354 11 26.5127 11 25.9999L10.999 21.3499L13 18.8497V55.9999C13 56.5522 13.4477 56.9999 14 56.9999C14.2264 56.9999 14.4514 57.0001 14.6751 57.0005L16.6526 57.0097L18.5584 57.0298L20.3925 57.0608L22.1549 57.1028L23.2898 57.1368L24.3928 57.1756L25.4638 57.2193L27.0103 57.2938L28.4847 57.3792L29.4275 57.4421L30.3382 57.5097L31.2168 57.5822L32.0633 57.6594L32.8776 57.7414L33.6597 57.8282L34.4096 57.9197L35.1273 58.0159L35.8128 58.1169L36.4659 58.2226L36.5255 58.2327C36.2722 58.4157 36.0206 58.6186 35.7708 58.8411L35.597 58.9999H11V55.9999L10.9933 55.8833C10.9355 55.386 10.5128 54.9999 10 54.9999C9.44772 54.9999 9 55.4476 9 55.9999V59.9999L9.00673 60.1165C9.06449 60.6139 9.48716 60.9999 10 60.9999H36L36.1314 60.9912C36.3481 60.9625 36.5508 60.8633 36.7071 60.707ZM39 56.6939V20.6029L38.6894 20.4549C32.7538 17.6691 25.015 16.4843 15.4708 16.9218L15 16.9449V55.0009L16.0457 55.0056L18.0447 55.0229L19.9683 55.0519L21.2089 55.0778L22.416 55.1089L24.164 55.1653L25.2876 55.2094L26.3779 55.2588L27.4348 55.3134L28.4583 55.3733L29.4486 55.4385L30.4056 55.5089L31.3294 55.5847L32.2199 55.6657L33.0773 55.752L33.9014 55.8436L34.6924 55.9405L35.4503 56.0428C35.5739 56.0602 35.696 56.0779 35.8168 56.0959L36.5251 56.2061L37.2002 56.3217L37.8423 56.4426L38.4514 56.5689L39 56.6939ZM41.5486 56.5689L41 56.6939V20.6029L41.3106 20.4549C47.2462 17.6691 54.985 16.4843 64.5292 16.9218L65 16.9449V55.0009L63.9543 55.0056L61.9553 55.0229L60.0317 55.0519L58.7911 55.0778L57.584 55.1089L55.836 55.1653L54.7124 55.2094L53.6221 55.2588L52.5652 55.3134L51.5417 55.3733L50.5514 55.4385L49.5944 55.5089L48.6706 55.5847L47.7801 55.6657L46.9227 55.752L46.0986 55.8436L45.3076 55.9405L44.5497 56.0428C44.4261 56.0602 44.304 56.0779 44.1832 56.0959L43.4749 56.2061L42.7998 56.3217L42.1577 56.4426L41.5486 56.5689Z" fill="#000091"/>
<path d="M70.9933 45.8833C70.9355 45.386 70.5128 44.9999 70 44.9999L69.8834 45.0066C69.386 45.0644 69 45.4871 69 45.9999V58.9999H62L61.8834 59.0066C61.386 59.0644 61 59.4871 61 59.9999C61 60.5522 61.4477 60.9999 62 60.9999H70L70.1166 60.9932C70.614 60.9354 71 60.5127 71 59.9999V45.9999L70.9933 45.8833Z" fill="#000091"/>
<path d="M10 30.9999C10.5128 30.9999 10.9355 31.386 10.9933 31.8833L11 31.9999V49.9999C11 50.5522 10.5523 50.9999 10 50.9999C9.48716 50.9999 9.06449 50.6139 9.00673 50.1165L9 49.9999V31.9999C9 31.4476 9.44772 30.9999 10 30.9999Z" fill="#000091"/>
</svg>
