<svg width="80" height="80" viewBox="0 0 80 80" fill="none" xmlns="http://www.w3.org/2000/svg">
<path fill-rule="evenodd" clip-rule="evenodd" d="M77 24C76.4486 24 76 23.5514 76 23C76 22.4486 76.4486 22 77 22C77.5514 22 78 22.4486 78 23C78 23.5514 77.5514 24 77 24Z" fill="#ECECFE"/>
<path fill-rule="evenodd" clip-rule="evenodd" d="M29 80C28.4486 80 28 79.5514 28 79C28 78.4486 28.4486 78 29 78C29.5514 78 30 78.4486 30 79C30 79.5514 29.5514 80 29 80Z" fill="#ECECFE"/>
<path fill-rule="evenodd" clip-rule="evenodd" d="M15 10C14.4486 10 14 9.5514 14 9C14 8.44855 14.4486 8 15 8C15.5514 8 16 8.44855 16 9C16 9.5514 15.5514 10 15 10Z" fill="#ECECFE"/>
<path d="M69.5518 69.3257C64.4013 73.4964 56.8449 72.7022 52.6742 67.5518C48.5034 62.4013 49.2976 54.8449 54.4481 50.6742C59.5985 46.5034 67.1549 47.2976 71.3257 52.4481C71.6732 52.8773 71.607 53.507 71.1778 53.8545C70.7486 54.2021 70.1189 54.1359 69.7714 53.7067C66.2957 49.4146 59.9988 48.7528 55.7067 52.2284C51.4146 55.7041 50.7528 62.0011 54.2284 66.2931C57.7041 70.5852 64.0011 71.247 68.2931 67.7714C71.0206 65.5627 72.357 62.1365 71.919 58.7184C71.8488 58.1706 72.236 57.6696 72.7838 57.5994C73.3316 57.5292 73.8326 57.9164 73.9028 58.4642C74.428 62.5632 72.8237 66.6761 69.5518 69.3257Z" fill="#E1000F"/>
<path d="M58.0411 59.8562L60.3709 62.6109L66.4388 55.5086C66.8418 55.0368 67.5449 54.9969 67.996 55.4222C68.4032 55.8062 68.4648 56.4402 68.1321 56.9183L68.0783 56.987L61.51 64.6764C60.9719 65.3063 60.0251 65.3807 59.3952 64.8427C59.3337 64.7901 59.2766 64.7327 59.2243 64.671L56.3948 61.3266C56.0063 60.8674 56.0452 60.1723 56.4843 59.7622C56.9063 59.3681 57.5513 59.3756 57.982 59.7922L58.0411 59.8562Z" fill="#E1000F"/>
<path d="M23 10C23.5128 10 23.9355 10.386 23.9933 10.8834L24 11V14H56V11C56 10.4477 56.4477 10 57 10C57.5128 10 57.9355 10.386 57.9933 10.8834L58 11V14H65C67.6888 14 69.8818 16.1223 69.9954 18.7831L70 19V45C70 45.5523 69.5523 46 69 46C68.4872 46 68.0645 45.614 68.0067 45.1166L68 45V28H63C62.4477 28 62 27.5523 62 27C62 26.4872 62.386 26.0645 62.8834 26.0067L63 26H68V19C68 17.4023 66.7511 16.0963 65.1763 16.0051L65 16H58V19C58 19.5523 57.5523 20 57 20C56.4872 20 56.0645 19.614 56.0067 19.1166L56 19V16H24V19C24 19.5523 23.5523 20 23 20C22.4872 20 22.0645 19.614 22.0067 19.1166L22 19V16H15C13.4023 16 12.0963 17.2489 12.0051 18.8237L12 19V26H22V25C22 24.4477 22.4477 24 23 24C23.5128 24 23.9355 24.386 23.9933 24.8834L24 25V26H57C57.5523 26 58 26.4477 58 27C58 27.5128 57.614 27.9355 57.1166 27.9933L57 28H24V29C24 29.5523 23.5523 30 23 30C22.4872 30 22.0645 29.614 22.0067 29.1166L22 29V28H12V61C12 62.5977 13.2489 63.9037 14.8237 63.9949L15 64H43C43.5523 64 44 64.4477 44 65C44 65.5128 43.614 65.9355 43.1166 65.9933L43 66H15C12.3112 66 10.1182 63.8777 10.0046 61.2169L10 61V19C10 16.3112 12.1223 14.1182 14.7831 14.0046L15 14H22V11C22 10.4477 22.4477 10 23 10Z" fill="#000091"/>
<path d="M47 64C46.4477 64 46 64.4477 46 65C46 65.5523 46.4477 66 47 66C47.5523 66 48 65.5523 48 65C48 64.4477 47.5523 64 47 64Z" fill="#000091"/>
<path fill-rule="evenodd" clip-rule="evenodd" d="M30 37C30 35.3431 28.6569 34 27 34H21C19.3431 34 18 35.3431 18 37V41C18 42.6569 19.3431 44 21 44H27C28.6569 44 30 42.6569 30 41V37ZM20 37C20 36.4477 20.4477 36 21 36H27C27.5523 36 28 36.4477 28 37V41C28 41.5523 27.5523 42 27 42H21C20.4477 42 20 41.5523 20 41V37Z" fill="#000091"/>
<path fill-rule="evenodd" clip-rule="evenodd" d="M59 34C60.6569 34 62 35.3431 62 37V41C62 42.6569 60.6569 44 59 44H53C51.3431 44 50 42.6569 50 41V37C50 35.3431 51.3431 34 53 34H59ZM53 36C52.4477 36 52 36.4477 52 37V41C52 41.5523 52.4477 42 53 42H59C59.5523 42 60 41.5523 60 41V37C60 36.4477 59.5523 36 59 36H53Z" fill="#000091"/>
<path fill-rule="evenodd" clip-rule="evenodd" d="M43 34H37C35.3431 34 34 35.3431 34 37V41C34 42.6569 35.3431 44 37 44H43C44.6569 44 46 42.6569 46 41V37C46 35.3431 44.6569 34 43 34ZM37 36H43C43.5523 36 44 36.4477 44 37V41C44 41.5523 43.5523 42 43 42H37C36.4477 42 36 41.5523 36 41V37C36 36.4477 36.4477 36 37 36Z" fill="#000091"/>
<path fill-rule="evenodd" clip-rule="evenodd" d="M27 48C28.6569 48 30 49.3431 30 51V55C30 56.6569 28.6569 58 27 58H21C19.3431 58 18 56.6569 18 55V51C18 49.3431 19.3431 48 21 48H27ZM21 50C20.4477 50 20 50.4477 20 51V55C20 55.5523 20.4477 56 21 56H27C27.5523 56 28 55.5523 28 55V51C28 50.4477 27.5523 50 27 50H21Z" fill="#000091"/>
<path fill-rule="evenodd" clip-rule="evenodd" d="M43 48H37C35.3431 48 34 49.3431 34 51V55C34 56.6569 35.3431 58 37 58H43C44.6569 58 46 56.6569 46 55V51C46 49.3431 44.6569 48 43 48ZM37 50H43C43.5523 50 44 50.4477 44 51V55C44 55.5523 43.5523 56 43 56H37C36.4477 56 36 55.5523 36 55V51C36 50.4477 36.4477 50 37 50Z" fill="#000091"/>
</svg>
