<svg width="80" height="80" viewBox="0 0 80 80" fill="none" xmlns="http://www.w3.org/2000/svg">
<path fill-rule="evenodd" clip-rule="evenodd" d="M59 76C58.4486 76 58 75.5514 58 75C58 74.4486 58.4486 74 59 74C59.5514 74 60 74.4486 60 75C60 75.5514 59.5514 76 59 76Z" fill="#ECECFE"/>
<path fill-rule="evenodd" clip-rule="evenodd" d="M67 8C66.4486 8 66 7.5514 66 7C66 6.44855 66.4486 6 67 6C67.5514 6 68 6.44855 68 7C68 7.5514 67.5514 8 67 8Z" fill="#ECECFE"/>
<path fill-rule="evenodd" clip-rule="evenodd" d="M8 14C7.4486 14 7 13.5514 7 13C7 12.4486 7.4486 12 8 12C8.5514 12 9 12.4486 9 13C9 13.5514 8.5514 14 8 14Z" fill="#ECECFE"/>
<path d="M34.5547 63.1679C34.3904 63.0584 34.1974 63 34 63H14L13.8834 63.0067C13.386 63.0645 13 63.4872 13 64L13.0067 64.1166C13.0645 64.614 13.4872 65 14 65H33.705L33.8051 65.0652C35.8457 66.3489 37.9148 67 40 67L40.3678 66.9932C42.3286 66.9212 44.2743 66.2734 46.1949 65.0652L46.294 65H66L66.1166 64.9933C66.614 64.9355 67 64.5128 67 64C67 63.4477 66.5523 63 66 63H46L45.8823 63.007C45.7265 63.0254 45.5767 63.0803 45.4453 63.1679C43.6023 64.3966 41.7921 65 40 65C38.2079 65 36.3977 64.3966 34.5547 63.1679Z" fill="#E1000F"/>
<path d="M46 27C46 26.4477 45.5523 26 45 26C44.4477 26 44 26.4477 44 27C44 27.5523 44.4477 28 45 28C45.5523 28 46 27.5523 46 27Z" fill="#E1000F"/>
<path d="M46 33C46 32.4477 45.5523 32 45 32C44.4477 32 44 32.4477 44 33C44 33.5523 44.4477 34 45 34C45.5523 34 46 33.5523 46 33Z" fill="#E1000F"/>
<path d="M46 39C46 38.4477 45.5523 38 45 38C44.4477 38 44 38.4477 44 39C44 39.5523 44.4477 40 45 40C45.5523 40 46 39.5523 46 39Z" fill="#E1000F"/>
<path d="M46 45C46 44.4477 45.5523 44 45 44C44.4477 44 44 44.4477 44 45C44 45.5523 44.4477 46 45 46C45.5523 46 46 45.5523 46 45Z" fill="#E1000F"/>
<path d="M46 51C46 50.4477 45.5523 50 45 50C44.4477 50 44 50.4477 44 51C44 51.5523 44.4477 52 45 52C45.5523 52 46 51.5523 46 51Z" fill="#E1000F"/>
<path d="M20 24C20 23.4477 19.5523 23 19 23C18.4477 23 18 23.4477 18 24C18 24.5523 18.4477 25 19 25C19.5523 25 20 24.5523 20 24Z" fill="#E1000F"/>
<path d="M20 30C20 29.4477 19.5523 29 19 29C18.4477 29 18 29.4477 18 30C18 30.5523 18.4477 31 19 31C19.5523 31 20 30.5523 20 30Z" fill="#E1000F"/>
<path d="M20 36C20 35.4477 19.5523 35 19 35C18.4477 35 18 35.4477 18 36C18 36.5523 18.4477 37 19 37C19.5523 37 20 36.5523 20 36Z" fill="#E1000F"/>
<path d="M20 42C20 41.4477 19.5523 41 19 41C18.4477 41 18 41.4477 18 42C18 42.5523 18.4477 43 19 43C19.5523 43 20 42.5523 20 42Z" fill="#E1000F"/>
<path d="M20 48C20 47.4477 19.5523 47 19 47C18.4477 47 18 47.4477 18 48C18 48.5523 18.4477 49 19 49C19.5523 49 20 48.5523 20 48Z" fill="#E1000F"/>
<path fill-rule="evenodd" clip-rule="evenodd" d="M36.7071 60.707C37.8549 59.5592 38.938 59.0116 39.967 59.0001C39.9734 59.0003 39.9798 59.0004 39.9862 59.0005C39.9909 59.0006 39.9955 59.0006 40.0002 59.0006H40.0038C40.0135 59.0006 40.0232 59.0004 40.0329 59.0001C41.0619 59.0115 42.145 59.5591 43.2929 60.707C43.4804 60.8946 43.7348 60.9999 44 60.9999H54L54.1166 60.9932C54.614 60.9354 55 60.5127 55 59.9999L54.9933 59.8833C54.9355 59.386 54.5128 58.9999 54 58.9999H44.402L44.2292 58.8411C43.9794 58.6186 43.7278 58.4157 43.4745 58.2327L43.5341 58.2226L44.1872 58.1169L44.8727 58.0159L45.5904 57.9197L46.3403 57.8282L47.1224 57.7414L47.9367 57.6594L48.7832 57.5822L49.6618 57.5097L50.5725 57.4421L51.5153 57.3792L52.9897 57.2938L54.5362 57.2193L55.6072 57.1756L56.7102 57.1368L57.8451 57.1028L59.6075 57.0608L61.4416 57.0298L63.3474 57.0097L65.3249 57.0005C65.5486 57.0001 65.7737 56.9999 66 56.9999C66.5523 56.9999 67 56.5522 67 55.9999V18.8497L69.001 21.3499L69 39.9999C69 40.5127 69.3861 40.9354 69.8834 40.9932L70 40.9999C70.5129 40.9999 70.9355 40.6139 70.9933 40.1165L71 39.9999V20.9999C71 20.8183 70.9506 20.6409 70.8582 20.4865L70.7809 20.3752L66.7985 15.3972C66.6281 15.1714 66.3637 15.0197 66.0612 15.0011C55.3111 14.3422 46.6232 15.6216 40 18.8654C33.3768 15.6216 24.6889 14.3422 13.9388 15.0011C13.6359 15.0197 13.3713 15.1718 13.2009 15.398L9.21913 20.3752L9.14187 20.4865C9.04946 20.6409 9 20.8183 9 20.9999V25.9999L9.00673 26.1165C9.06449 26.6139 9.48716 26.9999 10 26.9999L10.1166 26.9932C10.614 26.9354 11 26.5127 11 25.9999L10.999 21.3499L13 18.8497V55.9999C13 56.5522 13.4477 56.9999 14 56.9999C14.2264 56.9999 14.4514 57.0001 14.6751 57.0005L16.6526 57.0097L18.5584 57.0298L20.3925 57.0608L22.1549 57.1028L23.2898 57.1368L24.3928 57.1756L25.4638 57.2193L27.0103 57.2938L28.4847 57.3792L29.4275 57.4421L30.3382 57.5097L31.2168 57.5822L32.0633 57.6594L32.8776 57.7414L33.6597 57.8282L34.4096 57.9197L35.1273 58.0159L35.8128 58.1169L36.4659 58.2226L36.5255 58.2327C36.2722 58.4157 36.0206 58.6186 35.7708 58.8411L35.597 58.9999H11V55.9999L10.9933 55.8833C10.9355 55.386 10.5128 54.9999 10 54.9999C9.44772 54.9999 9 55.4476 9 55.9999V59.9999L9.00673 60.1165C9.06449 60.6139 9.48716 60.9999 10 60.9999H36L36.1314 60.9912C36.3481 60.9625 36.5508 60.8633 36.7071 60.707ZM39 56.6939V20.6029L38.6894 20.4549C32.7538 17.6691 25.015 16.4843 15.4708 16.9218L15 16.9449V55.0009L16.0457 55.0056L18.0447 55.0229L19.9683 55.0519L21.2089 55.0778L22.416 55.1089L24.164 55.1653L25.2876 55.2094L26.3779 55.2588L27.4348 55.3134L28.4583 55.3733L29.4486 55.4385L30.4056 55.5089L31.3294 55.5847L32.2199 55.6657L33.0773 55.752L33.9014 55.8436L34.6924 55.9405L35.4503 56.0428C35.5739 56.0602 35.696 56.0779 35.8168 56.0959L36.5251 56.2061L37.2002 56.3217L37.8423 56.4426L38.4514 56.5689L39 56.6939ZM41.5486 56.5689L41 56.6939V20.6029L41.3106 20.4549C47.2462 17.6691 54.985 16.4843 64.5292 16.9218L65 16.9449V55.0009L63.9543 55.0056L61.9553 55.0229L60.0317 55.0519L58.7911 55.0778L57.584 55.1089L55.836 55.1653L54.7124 55.2094L53.6221 55.2588L52.5652 55.3134L51.5417 55.3733L50.5514 55.4385L49.5944 55.5089L48.6706 55.5847L47.7801 55.6657L46.9227 55.752L46.0986 55.8436L45.3076 55.9405L44.5497 56.0428C44.4261 56.0602 44.304 56.0779 44.1832 56.0959L43.4749 56.2061L42.7998 56.3217L42.1577 56.4426L41.5486 56.5689Z" fill="#000091"/>
<path d="M70.9933 45.8833C70.9355 45.386 70.5128 44.9999 70 44.9999L69.8834 45.0066C69.386 45.0644 69 45.4871 69 45.9999V58.9999H62L61.8834 59.0066C61.386 59.0644 61 59.4871 61 59.9999C61 60.5522 61.4477 60.9999 62 60.9999H70L70.1166 60.9932C70.614 60.9354 71 60.5127 71 59.9999V45.9999L70.9933 45.8833Z" fill="#000091"/>
<path d="M10 30.9999C10.5128 30.9999 10.9355 31.386 10.9933 31.8833L11 31.9999V49.9999C11 50.5522 10.5523 50.9999 10 50.9999C9.48716 50.9999 9.06449 50.6139 9.00673 50.1165L9 49.9999V31.9999C9 31.4476 9.44772 30.9999 10 30.9999Z" fill="#000091"/>
<path d="M62 23.9999C62 23.4476 61.5523 22.9999 61 22.9999C59.9507 22.9999 58.7138 23.0975 57.2876 23.2924L56.4908 23.4084C56.0831 23.4712 55.6612 23.5412 55.2252 23.6185L54.3343 23.7827L53.4057 23.9661L52.4392 24.1688L51.4347 24.3908C51.2642 24.4294 51.092 24.4688 50.9183 24.5089L49.8569 24.7597L48.7575 25.0298C48.2217 25.1637 47.8959 25.7066 48.0299 26.2424C48.1638 26.7782 48.7067 27.104 49.2425 26.9701C49.4239 26.9247 49.6037 26.8801 49.782 26.8364L50.8324 26.5831L51.8447 26.3487C52.0102 26.3111 52.1742 26.2744 52.3366 26.2385L53.2916 26.0323L54.2085 25.8448L55.0871 25.6762L55.9273 25.5263C56.0642 25.5029 56.1994 25.4803 56.333 25.4584L57.1156 25.3367C57.3701 25.2993 57.6181 25.265 57.8597 25.2338L58.5652 25.1496C59.4801 25.0498 60.2919 24.9999 61 24.9999C61.5523 24.9999 62 24.5522 62 23.9999Z" fill="#000091"/>
<path d="M61 28.9999C61.5523 28.9999 62 29.4476 62 29.9999C62 30.5522 61.5523 30.9999 61 30.9999C60.2919 30.9999 59.4801 31.0498 58.5652 31.1496L57.8597 31.2338C57.6181 31.265 57.3701 31.2993 57.1156 31.3367L56.333 31.4584C56.1994 31.4803 56.0642 31.5029 55.9273 31.5263L55.0871 31.6762L54.2085 31.8448L53.2916 32.0323L52.3366 32.2385C52.1742 32.2744 52.0102 32.3111 51.8447 32.3487L50.8324 32.5831L49.782 32.8364C49.6037 32.8801 49.4239 32.9247 49.2425 32.9701C48.7067 33.104 48.1638 32.7782 48.0299 32.2424C47.8959 31.7066 48.2217 31.1637 48.7575 31.0298L49.8569 30.7597L50.9183 30.5089C51.092 30.4688 51.2642 30.4294 51.4347 30.3908L52.4392 30.1688L53.4057 29.9661L54.3343 29.7827L55.2252 29.6185C55.6612 29.5412 56.0831 29.4712 56.4908 29.4084L57.2876 29.2924C58.7138 29.0975 59.9507 28.9999 61 28.9999Z" fill="#000091"/>
<path d="M62 35.9999C62 35.4476 61.5523 34.9999 61 34.9999C59.9507 34.9999 58.7138 35.0975 57.2876 35.2924L56.4908 35.4084C56.0831 35.4712 55.6612 35.5412 55.2252 35.6185L54.3343 35.7827L53.4057 35.9661L52.4392 36.1688L51.4347 36.3908C51.2642 36.4294 51.092 36.4688 50.9183 36.5089L49.8569 36.7597L48.7575 37.0298C48.2217 37.1637 47.8959 37.7066 48.0299 38.2424C48.1638 38.7782 48.7067 39.104 49.2425 38.9701C49.4239 38.9247 49.6037 38.8801 49.782 38.8364L50.8324 38.5831L51.8447 38.3487C52.0102 38.3111 52.1742 38.2744 52.3366 38.2385L53.2916 38.0323L54.2085 37.8448L55.0871 37.6762L55.9273 37.5263C56.0642 37.5029 56.1994 37.4803 56.333 37.4584L57.1156 37.3367C57.3701 37.2993 57.6181 37.265 57.8597 37.2338L58.5652 37.1496C59.4801 37.0498 60.2919 36.9999 61 36.9999C61.5523 36.9999 62 36.5522 62 35.9999Z" fill="#000091"/>
<path d="M61 40.9999C61.5523 40.9999 62 41.4476 62 41.9999C62 42.5522 61.5523 42.9999 61 42.9999C60.2919 42.9999 59.4801 43.0498 58.5652 43.1496L57.8597 43.2338C57.6181 43.265 57.3701 43.2993 57.1156 43.3367L56.333 43.4584C56.1994 43.4803 56.0642 43.5029 55.9273 43.5263L55.0871 43.6762L54.2085 43.8448L53.2916 44.0323L52.3366 44.2385C52.1742 44.2744 52.0102 44.3111 51.8447 44.3486L50.8324 44.5831L49.782 44.8364C49.6037 44.8801 49.4239 44.9247 49.2425 44.97C48.7067 45.104 48.1638 44.7782 48.0299 44.2424C47.8959 43.7066 48.2217 43.1637 48.7575 43.0298L49.8569 42.7597L50.9183 42.5089C51.092 42.4687 51.2642 42.4293 51.4347 42.3908L52.4392 42.1688L53.4057 41.9661L54.3343 41.7827L55.2252 41.6185C55.6612 41.5412 56.0831 41.4712 56.4908 41.4084L57.2876 41.2924C58.7138 41.0975 59.9507 40.9999 61 40.9999Z" fill="#000091"/>
<path d="M62 47.9999C62 47.4476 61.5523 46.9999 61 46.9999C59.9507 46.9999 58.7138 47.0975 57.2876 47.2924L56.4908 47.4084C56.0831 47.4712 55.6612 47.5412 55.2252 47.6185L54.3343 47.7827L53.4057 47.9661L52.4392 48.1688L51.4347 48.3908C51.2642 48.4294 51.092 48.4688 50.9183 48.5089L49.8569 48.7597L48.7575 49.0298C48.2217 49.1637 47.8959 49.7066 48.0299 50.2424C48.1638 50.7782 48.7067 51.104 49.2425 50.97C49.4239 50.9247 49.6037 50.8801 49.782 50.8364L50.8324 50.5831L51.8447 50.3486C52.0102 50.3111 52.1742 50.2744 52.3366 50.2385L53.2916 50.0323L54.2085 49.8448L55.0871 49.6762L55.9273 49.5263C56.0642 49.5029 56.1994 49.4803 56.333 49.4584L57.1156 49.3367C57.3701 49.2993 57.6181 49.265 57.8597 49.2338L58.5652 49.1495C59.4801 49.0498 60.2919 48.9999 61 48.9999C61.5523 48.9999 62 48.5522 62 47.9999Z" fill="#000091"/>
<path d="M21.9998 23.9999C21.9998 23.4476 22.4475 22.9999 22.9998 22.9999C24.0491 22.9999 25.286 23.0975 26.7122 23.2924L27.5089 23.4084C27.9167 23.4712 28.3386 23.5412 28.7746 23.6185L29.6654 23.7827L30.5941 23.9661L31.5606 24.1688L32.565 24.3908C32.7356 24.4294 32.9077 24.4688 33.0815 24.5089L34.1428 24.7597L35.2423 25.0298C35.7781 25.1637 36.1039 25.7066 35.9699 26.2424C35.836 26.7782 35.293 27.104 34.7572 26.9701C34.5758 26.9247 34.396 26.8801 34.2178 26.8364L33.1674 26.5831L32.1551 26.3487C31.9895 26.3111 31.8256 26.2744 31.6632 26.2385L30.7081 26.0323L29.7912 25.8448L28.9127 25.6762L28.0724 25.5263C27.9356 25.5029 27.8004 25.4803 27.6667 25.4584L26.8841 25.3367C26.6297 25.2993 26.3817 25.265 26.1401 25.2338L25.4346 25.1496C24.5197 25.0498 23.7079 24.9999 22.9998 24.9999C22.4475 24.9999 21.9998 24.5522 21.9998 23.9999Z" fill="#000091"/>
<path d="M22.9998 28.9999C22.4475 28.9999 21.9998 29.4476 21.9998 29.9999C21.9998 30.5522 22.4475 30.9999 22.9998 30.9999C23.7079 30.9999 24.5197 31.0498 25.4346 31.1496L26.1401 31.2338C26.3817 31.265 26.6297 31.2993 26.8841 31.3367L27.6667 31.4584C27.8004 31.4803 27.9356 31.5029 28.0724 31.5263L28.9127 31.6762L29.7912 31.8448L30.7081 32.0323L31.6632 32.2385C31.8256 32.2744 31.9895 32.3111 32.1551 32.3487L33.1674 32.5831L34.2178 32.8364C34.396 32.8801 34.5758 32.9247 34.7572 32.9701C35.293 33.104 35.836 32.7782 35.9699 32.2424C36.1039 31.7066 35.7781 31.1637 35.2423 31.0298L34.1428 30.7597L33.0815 30.5089C32.9077 30.4688 32.7356 30.4294 32.565 30.3908L31.5606 30.1688L30.5941 29.9661L29.6654 29.7827L28.7746 29.6185C28.3386 29.5412 27.9167 29.4712 27.5089 29.4084L26.7122 29.2924C25.286 29.0975 24.0491 28.9999 22.9998 28.9999Z" fill="#000091"/>
<path d="M21.9998 35.9999C21.9998 35.4476 22.4475 34.9999 22.9998 34.9999C24.0491 34.9999 25.286 35.0975 26.7122 35.2924L27.5089 35.4084C27.9167 35.4712 28.3386 35.5412 28.7746 35.6185L29.6654 35.7827L30.5941 35.9661L31.5606 36.1688L32.565 36.3908C32.7356 36.4294 32.9077 36.4688 33.0815 36.5089L34.1428 36.7597L35.2423 37.0298C35.7781 37.1637 36.1039 37.7066 35.9699 38.2424C35.836 38.7782 35.293 39.104 34.7572 38.9701C34.5758 38.9247 34.396 38.8801 34.2178 38.8364L33.1674 38.5831L32.1551 38.3487C31.9895 38.3111 31.8256 38.2744 31.6632 38.2385L30.7081 38.0323L29.7912 37.8448L28.9127 37.6762L28.0724 37.5263C27.9356 37.5029 27.8004 37.4803 27.6667 37.4584L26.8841 37.3367C26.6297 37.2993 26.3817 37.265 26.1401 37.2338L25.4346 37.1496C24.5197 37.0498 23.7079 36.9999 22.9998 36.9999C22.4475 36.9999 21.9998 36.5522 21.9998 35.9999Z" fill="#000091"/>
<path d="M22.9998 40.9999C22.4475 40.9999 21.9998 41.4476 21.9998 41.9999C21.9998 42.5522 22.4475 42.9999 22.9998 42.9999C23.7079 42.9999 24.5197 43.0498 25.4346 43.1496L26.1401 43.2338C26.3817 43.265 26.6297 43.2993 26.8841 43.3367L27.6667 43.4584C27.8004 43.4803 27.9356 43.5029 28.0724 43.5263L28.9127 43.6762L29.7912 43.8448L30.7081 44.0323L31.6632 44.2385C31.8256 44.2744 31.9895 44.3111 32.1551 44.3486L33.1674 44.5831L34.2178 44.8364C34.396 44.8801 34.5758 44.9247 34.7572 44.97C35.293 45.104 35.836 44.7782 35.9699 44.2424C36.1039 43.7066 35.7781 43.1637 35.2423 43.0298L34.1428 42.7597L33.0815 42.5089C32.9077 42.4687 32.7356 42.4293 32.565 42.3908L31.5606 42.1688L30.5941 41.9661L29.6654 41.7827L28.7746 41.6185C28.3386 41.5412 27.9167 41.4712 27.5089 41.4084L26.7122 41.2924C25.286 41.0975 24.0491 40.9999 22.9998 40.9999Z" fill="#000091"/>
<path d="M21.9998 47.9999C21.9998 47.4476 22.4475 46.9999 22.9998 46.9999C24.0491 46.9999 25.286 47.0975 26.7122 47.2924L27.5089 47.4084C27.9167 47.4712 28.3386 47.5412 28.7746 47.6185L29.6654 47.7827L30.5941 47.9661L31.5606 48.1688L32.565 48.3908C32.7356 48.4294 32.9077 48.4688 33.0815 48.5089L34.1428 48.7597L35.2423 49.0298C35.7781 49.1637 36.1039 49.7066 35.9699 50.2424C35.836 50.7782 35.293 51.104 34.7572 50.97C34.5758 50.9247 34.396 50.8801 34.2178 50.8364L33.1674 50.5831L32.1551 50.3486C31.9895 50.3111 31.8256 50.2744 31.6632 50.2385L30.7081 50.0323L29.7912 49.8448L28.9127 49.6762L28.0724 49.5263C27.9356 49.5029 27.8004 49.4803 27.6667 49.4584L26.8841 49.3367C26.6297 49.2993 26.3817 49.265 26.1401 49.2338L25.4346 49.1495C24.5197 49.0498 23.7079 48.9999 22.9998 48.9999C22.4475 48.9999 21.9998 48.5522 21.9998 47.9999Z" fill="#000091"/>
</svg>
