<svg width="80" height="80" viewBox="0 0 80 80" fill="none" xmlns="http://www.w3.org/2000/svg">
<path fill-rule="evenodd" clip-rule="evenodd" d="M16 73C15.4486 73 15 72.5514 15 72C15 71.4486 15.4486 71 16 71C16.5514 71 17 71.4486 17 72C17 72.5514 16.5514 73 16 73Z" fill="#ECECFE"/>
<path fill-rule="evenodd" clip-rule="evenodd" d="M9 15C8.4486 15 8 14.5514 8 14C8 13.4486 8.4486 13 9 13C9.5514 13 10 13.4486 10 14C10 14.5514 9.5514 15 9 15Z" fill="#ECECFE"/>
<path fill-rule="evenodd" clip-rule="evenodd" d="M62 74C61.4486 74 61 73.5514 61 73C61 72.4486 61.4486 72 62 72C62.5514 72 63 72.4486 63 73C63 73.5514 62.5514 74 62 74Z" fill="#ECECFE"/>
<path fill-rule="evenodd" clip-rule="evenodd" d="M66 10C65.4486 10 65 9.5514 65 9C65 8.44855 65.4486 8 66 8C66.5514 8 67 8.44855 67 9C67 9.5514 66.5514 10 66 10Z" fill="#ECECFE"/>
<path fill-rule="evenodd" clip-rule="evenodd" d="M78 52C77.4486 52 77 51.5514 77 51C77 50.4486 77.4486 50 78 50C78.5514 50 79 50.4486 79 51C79 51.5514 78.5514 52 78 52Z" fill="#ECECFE"/>
<path d="M27.0145 31.5701C19.3476 33.0263 12.6392 37.104 6.91229 43.7722C6.64736 44.0807 6.5956 44.5189 6.78136 44.8806L7.29891 45.849L7.90078 46.9304L8.40723 47.8136C8.49475 47.9643 8.58381 48.1167 8.6744 48.2707L9.23593 49.2137C11.1683 52.4188 13.2943 55.5545 15.5539 58.3891C15.7575 58.6446 15.961 58.8962 16.1643 59.1438L16.7736 59.8745C22.9622 67.1814 28.9682 70.7281 34.5067 68.7122C40.6899 66.4617 43.6181 59.8504 43.4151 49.1258C43.4046 48.5736 42.9485 48.1345 42.3963 48.1449C41.8441 48.1554 41.405 48.6115 41.4154 49.1637C41.6041 59.1295 39.032 64.9368 33.8226 66.8328C29.3421 68.4636 23.9828 65.2836 18.2983 58.5794L17.7092 57.8734C17.5124 57.6339 17.3153 57.3902 17.1178 57.1425C14.9182 54.3831 12.8394 51.3169 10.9487 48.181C10.7595 47.8673 10.5762 47.5592 10.3988 47.2576L9.88487 46.3727L9.40805 45.5305L9.18391 45.1266L8.87613 44.5627L9.21273 44.1872C14.4735 38.3803 20.5252 34.8384 27.3877 33.535C27.9302 33.4319 28.2865 32.9085 28.1835 32.3659C28.0804 31.8233 27.557 31.467 27.0145 31.5701Z" fill="#E1000F"/>
<path d="M46.1318 54.3282C45.5807 54.2929 45.1053 54.7111 45.07 55.2623C44.8169 59.2214 43.9334 62.3049 42.4436 64.5214C42.1355 64.9798 42.2574 65.6011 42.7157 65.9092C43.1741 66.2173 43.7954 66.0955 44.1035 65.6371C45.8124 63.0946 46.7919 59.6761 47.066 55.3899C47.1012 54.8388 46.683 54.3634 46.1318 54.3282Z" fill="#E1000F"/>
<path d="M26.276 48.6885C26.6991 49.0435 26.7542 49.6743 26.3992 50.0973C26.0442 50.5204 25.4135 50.5756 24.9904 50.2206C22.875 48.4456 19.7213 48.7215 17.9462 50.8369C17.5912 51.2599 16.9605 51.3151 16.5374 50.9601C16.1143 50.6051 16.0592 49.9744 16.4142 49.5513C18.8992 46.5898 23.3145 46.2035 26.276 48.6885Z" fill="#E1000F"/>
<path d="M31.5607 32.8196C32.0797 32.6307 32.3473 32.0569 32.1584 31.5379C31.9695 31.0189 31.3957 30.7513 30.8767 30.9402C30.3577 31.1291 30.0901 31.703 30.279 32.2219C30.4679 32.7409 31.0417 33.0085 31.5607 32.8196Z" fill="#E1000F"/>
<path d="M29.1625 47.6379C29.0666 48.1818 29.4298 48.7004 29.9737 48.7963C30.5176 48.8922 31.0362 48.5291 31.1321 47.9852C31.6117 45.2657 34.2049 43.4499 36.9244 43.9294C37.4683 44.0253 37.987 43.6621 38.0829 43.1182C38.1788 42.5743 37.8156 42.0557 37.2717 41.9598C33.4645 41.2884 29.8338 43.8306 29.1625 47.6379Z" fill="#E1000F"/>
<path d="M35.0631 55.205C35.5414 55.4812 35.7053 56.0927 35.4292 56.571C33.4962 59.9191 29.215 61.0662 25.867 59.1332C25.3887 58.8571 25.2248 58.2455 25.5009 57.7672C25.7771 57.2889 26.3887 57.125 26.867 57.4012C29.2584 58.7819 32.3164 57.9625 33.6971 55.571C33.9732 55.0927 34.5848 54.9289 35.0631 55.205Z" fill="#E1000F"/>
<path d="M66.0317 15.8632C58.6027 10.9331 50.0043 9.20233 40.2864 10.6665C39.878 10.7281 39.5495 11.0344 39.4595 11.4375L39.2434 12.4885L39.1063 13.2081L38.9354 14.1595L38.7663 15.1668C38.7104 15.5114 38.6551 15.8647 38.6007 16.2261C38.0562 19.8419 37.7061 23.5296 37.6514 27.0787C37.6465 27.3984 37.644 27.7151 37.6438 28.0287L37.6505 28.9604C37.7922 38.3374 40.1887 44.8058 45.7524 46.8308C51.7752 49.0229 57.2298 47.3186 62.9731 41.009L63.5041 40.4134C64.3905 39.399 65.2844 38.2751 66.1889 37.0391L66.7329 36.284C66.9146 36.0278 67.0968 35.7671 67.2795 35.5019L67.829 34.6926C67.9208 34.5554 68.0128 34.4172 68.1049 34.2777L68.6589 33.4275L69.2162 32.5498L69.7768 31.6446L70.3409 30.7116L70.9087 29.7508L71.4803 28.762L72.0559 27.7452L72.6355 26.7001C72.9014 26.216 72.7245 25.6081 72.2405 25.3422C71.7564 25.0763 71.1484 25.2532 70.8825 25.7373C70.7898 25.9062 70.6972 26.074 70.6049 26.2405L70.0533 27.2262L69.5067 28.1842C69.416 28.3416 69.3255 28.4978 69.2352 28.6529L68.6957 29.5697L68.1609 30.4592L67.6305 31.3216C67.5425 31.4631 67.4546 31.6035 67.367 31.7427L66.843 32.5648L66.3231 33.3602L65.8071 34.129C65.7214 34.255 65.6359 34.3798 65.5505 34.5036L65.0402 35.233L64.5334 35.9362C64.4492 36.0513 64.3651 36.1652 64.2812 36.2781L63.7795 36.9425L63.2809 37.5813L62.7854 38.1945L62.2927 38.7823L61.8028 39.3449L61.3155 39.8825C56.2115 45.3965 51.5107 46.7983 46.4364 44.9514C41.5999 43.1911 39.5033 36.7162 39.6512 27.1094C39.7043 23.6592 40.0463 20.0576 40.5784 16.5239C40.6316 16.1704 40.6857 15.8247 40.7404 15.4877L40.9057 14.5031L41.0726 13.5738L41.27 12.5461L41.7335 12.4859C50.4978 11.393 58.2139 13.0755 64.9258 17.5296C65.386 17.835 66.0066 17.7096 66.3119 17.2494C66.6173 16.7892 66.4918 16.1686 66.0317 15.8632Z" fill="#000091"/>
<path d="M36.6687 14.816C36.7701 14.2731 36.4123 13.7508 35.8694 13.6493C35.3265 13.5478 34.8042 13.9057 34.7027 14.4486L34.6562 14.7077L34.4341 16.0805L34.3028 16.9807L34.2369 17.4597C33.9235 19.7839 33.6773 22.2652 33.5415 24.8039C33.512 25.3554 33.9352 25.8264 34.4867 25.8559C35.0381 25.8854 35.5091 25.4622 35.5386 24.9107C35.6714 22.4295 35.9123 20.0008 36.219 17.7271L36.3476 16.8106C36.3689 16.6642 36.3902 16.5211 36.4114 16.3814L36.5367 15.5845L36.6687 14.816Z" fill="#000091"/>
<path d="M52.6711 25.6378C52.767 26.1817 52.4039 26.7003 51.86 26.7962C51.3161 26.8921 50.7974 26.529 50.7015 25.9851C50.222 23.2656 47.6287 21.4498 44.9092 21.9293C44.3653 22.0252 43.8467 21.662 43.7508 21.1181C43.6549 20.5742 44.0181 20.0556 44.5619 19.9597C48.3692 19.2883 51.9998 21.8305 52.6711 25.6378Z" fill="#000091"/>
<path d="M68.3585 20.0752C68.8775 20.2641 69.4513 19.9965 69.6402 19.4775C69.8291 18.9586 69.5615 18.3847 69.0425 18.1958C68.5235 18.0069 67.9497 18.2745 67.7608 18.7935C67.5719 19.3125 67.8395 19.8863 68.3585 20.0752Z" fill="#000091"/>
<path d="M55.5577 26.6884C55.1346 27.0434 55.0794 27.6741 55.4344 28.0972C55.7894 28.5203 56.4202 28.5755 56.8433 28.2205C58.9586 26.4455 62.1124 26.7214 63.8874 28.8368C64.2424 29.2598 64.8732 29.315 65.2962 28.96C65.7193 28.605 65.7745 27.9743 65.4195 27.5512C62.9345 24.5897 58.5192 24.2034 55.5577 26.6884Z" fill="#000091"/>
<path d="M55.2137 36.278C55.4026 36.797 55.1351 37.3708 54.6161 37.5597C50.9832 38.8819 46.9663 37.0088 45.6441 33.376C45.4552 32.857 45.7228 32.2832 46.2418 32.0943C46.7607 31.9054 47.3346 32.173 47.5235 32.692C48.4679 35.2868 51.3371 36.6248 53.932 35.6803C54.451 35.4914 55.0249 35.759 55.2137 36.278Z" fill="#000091"/>
</svg>
