<svg width="80" height="80" viewBox="0 0 80 80" fill="none" xmlns="http://www.w3.org/2000/svg">
<path fill-rule="evenodd" clip-rule="evenodd" d="M63 5C62.4486 5 62 4.5514 62 4C62 3.44855 62.4486 3 63 3C63.5514 3 64 3.44855 64 4C64 4.5514 63.5514 5 63 5Z" fill="#ECECFE"/>
<path fill-rule="evenodd" clip-rule="evenodd" d="M27 77C26.4486 77 26 76.5514 26 76C26 75.4486 26.4486 75 27 75C27.5514 75 28 75.4486 28 76C28 76.5514 27.5514 77 27 77Z" fill="#ECECFE"/>
<path fill-rule="evenodd" clip-rule="evenodd" d="M17 13C16.4486 13 16 12.5514 16 12C16 11.4486 16.4486 11 17 11C17.5514 11 18 11.4486 18 12C18 12.5514 17.5514 13 17 13Z" fill="#ECECFE"/>
<path fill-rule="evenodd" clip-rule="evenodd" d="M49.1679 12.2493C48.8201 11.1567 48.4217 10.4136 47.8397 10.0501C46.7852 9.39158 45.8931 10.0759 45.386 11.3461L45.2951 11.5661C44.8408 12.6267 44.377 13.1089 43.2996 13.8753L42.8175 14.2229C41.8084 14.9745 41.1837 15.6473 40.5721 16.7885C39.1269 19.4851 39.636 22.9241 41.4818 24.529C41.1828 25.1636 40.895 25.846 40.6181 26.5763C40.0483 25.5445 39.204 24.61 38.1372 23.9483C37.0369 23.2658 36.1594 22.9955 34.9098 22.8492L34.3184 22.7892C33.0022 22.6641 32.3594 22.4784 31.4357 21.7871L31.247 21.6419C30.1728 20.7955 29.058 20.6489 28.474 21.7465C28.1517 22.3523 28.1783 23.195 28.4233 24.3151C28.8307 26.1774 29.8594 28.6496 30.9132 30.2621C32.7267 33.0371 36.1016 34.3062 38.6216 33.5243C37.6042 38.3228 37.399 42.8629 38.0102 47.1413C38.0883 47.6881 38.5948 48.068 39.1415 47.9898C39.6883 47.9117 40.0682 47.4052 39.9901 46.8585C39.5024 43.4452 39.5661 39.8407 40.1835 36.0431C40.3982 36.4629 40.6944 36.8435 41.077 37.1646C43.4118 39.1237 47.5478 38.2651 49.4673 35.2558C50.371 33.839 51.2128 31.6545 51.5116 29.9896C51.6928 28.98 51.6831 28.2053 51.3602 27.6401C50.788 26.6385 49.7325 26.7295 48.7466 27.477L48.5778 27.6014C47.8076 28.1511 47.259 28.2835 46.1028 28.3413L45.5457 28.3731C44.4141 28.4564 43.6153 28.6685 42.6272 29.2444C42.2383 29.471 41.8847 29.7392 41.569 30.0388C42.1001 28.2418 42.6751 26.6894 43.2904 25.3826C46.4544 25.8937 49.7634 22.653 49.9851 18.6444C50.0915 16.7211 49.7463 14.0657 49.1679 12.2493ZM45.7072 21.707C45.2471 22.1671 44.8023 22.7312 44.3738 23.3991C46.0774 23.1036 47.8487 21.0562 47.9882 18.534C48.081 16.8552 47.7674 14.4427 47.2622 12.8561L47.157 12.5475L47.1071 12.4145L47.0105 12.6293C46.457 13.818 45.8167 14.5084 44.7047 15.3273L44.2222 15.6737C43.2969 16.3365 42.8273 16.8145 42.3349 17.7333C41.4076 19.4635 41.6318 21.5683 42.4722 22.67C43.0426 21.729 43.649 20.9368 44.293 20.2928C44.6835 19.9023 45.3167 19.9023 45.7072 20.2928C46.0977 20.6833 46.0977 21.3165 45.7072 21.707ZM30.2899 23.4269L30.4818 23.5655C31.5554 24.3182 32.4552 24.596 33.8277 24.7492L34.4187 24.8078C35.5514 24.9193 36.1971 25.0984 37.083 25.6479C38.7863 26.7044 39.6451 28.6994 39.4199 30.0779L36.5548 28.1678C36.0953 27.8615 35.4744 27.9857 35.1681 28.4452C34.8836 28.8719 34.9703 29.4377 35.3521 29.7617L35.4454 29.8319L38.0903 31.5952C36.4647 32.1482 33.9524 31.2567 32.5874 29.168C31.6676 27.7605 30.7329 25.5144 30.3771 23.8877L30.314 23.5679L30.2899 23.4269ZM49.5914 29.3327L49.5293 29.3747C48.5654 30.0177 47.7435 30.2368 46.4979 30.3215L45.9424 30.3519C44.9418 30.4053 44.3856 30.5345 43.6342 30.9723C42.5679 31.5938 41.927 32.6796 41.7797 33.6859L43.6839 33.0512L43.7966 33.0207C44.2867 32.9182 44.7866 33.1972 44.9488 33.6837C45.1234 34.2076 44.8403 34.7739 44.3163 34.9486L42.3352 35.609C42.3442 35.6169 42.3533 35.6247 42.3626 35.6325C43.7326 36.7821 46.4862 36.2104 47.7812 34.1802C48.5427 32.9863 49.2898 31.0475 49.543 29.6363C49.5617 29.5322 49.5768 29.4338 49.5914 29.3327Z" fill="#E1000F"/>
<path d="M22.1735 25.0148C24.5629 25.4361 26.4424 28.5773 25.9847 31.1732C25.8888 31.7171 25.3701 32.0803 24.8262 31.9844C24.2823 31.8885 23.9192 31.3698 24.0151 30.8259C24.2912 29.2599 23.0598 27.2019 21.8262 26.9844C20.4508 26.7418 18.9157 27.6442 18.5719 29.0136L18.5375 29.1737L13.985 47.1795L13.9678 47.3383C13.8346 48.8472 14.4468 50.8422 15.7714 53.497L16.0903 54.1226L16.3698 54.6532L16.8327 55.5043L17.3698 56.464L18.3424 58.179L19.0208 59.3881L19.7434 60.7042L20.1138 61.4L20.4391 62.0324L20.7215 62.6073L20.8869 62.9613L21.0347 63.2941L21.1654 63.6072L21.2798 63.9024L21.3784 64.1814L21.4618 64.4459C21.4744 64.4889 21.4865 64.5314 21.498 64.5733L21.5596 64.8193C21.5688 64.8594 21.5773 64.8991 21.5853 64.9384L21.6267 65.1697L21.6552 65.3933L21.6715 65.6111L21.6762 65.8245L21.671 65.9999H31.9996C31.9997 65.9255 32.0081 65.85 32.0256 65.7745C33.3861 59.8924 30.9814 53.9037 27.4413 51.5971L27.2408 51.4631C24.5544 49.6207 24.033 47.2912 24.8043 43.0373L24.9263 42.4009C24.9482 42.2925 24.9707 42.1829 24.9941 42.0721L25.1097 41.5429L25.3854 40.2017C25.6283 39.0592 24.6709 37.1649 23.7919 36.978C22.8058 36.7684 22.1966 37.1793 21.9815 38.1904L21.0485 42.953L20.4468 45.9509L20.08 47.726L19.9779 48.2084C19.7291 49.3749 20.5306 51.4829 22.4338 54.4154L22.8585 55.0564C23.0057 55.2742 23.1585 55.4962 23.317 55.7223L23.8095 56.413C24.1337 56.8602 24.0339 57.4855 23.5867 57.8096C23.1395 58.1337 22.5143 58.0339 22.1902 57.5867L21.9267 57.2204L21.4248 56.5048L20.9562 55.8118C18.6964 52.4025 17.6892 49.8305 17.9876 47.9746L18.0218 47.7913L18.3585 46.1799L19.0063 42.9688L19.9192 38.3197L20.0217 37.792C20.4668 35.6981 22.1256 34.5792 24.2078 35.0217C26.2133 35.448 27.7092 38.3067 27.3772 40.426L27.3431 40.611L27.1078 41.7557C27.104 41.7818 27.0992 41.8079 27.0933 41.834L27.0683 41.9481L26.9131 42.7028C26.9054 42.7402 26.8957 42.7768 26.8842 42.8123L26.8307 43.075L26.7259 43.6448L26.6391 44.1826C26.1872 47.2293 26.6857 48.7177 28.5331 49.9214L28.7551 50.0707C32.8258 52.8944 35.4365 59.4904 34.0246 65.9999H36.9998C37.5521 65.9999 37.9998 66.4476 37.9998 66.9999C37.9998 67.5127 37.6138 67.9354 37.1165 67.9931L36.9998 67.9999H16.9998C16.4476 67.9999 15.9998 67.5522 15.9998 66.9999C15.9998 66.487 16.3859 66.0644 16.8832 66.0066L16.9998 65.9999H19.6482L19.6503 65.9198L19.6438 65.7534L19.6261 65.5789L19.5967 65.3949L19.5548 65.1997L19.5 64.9921L19.4316 64.7705L19.3491 64.5335L19.2519 64.2796L19.0773 63.864L18.9408 63.5616L18.7876 63.2372L18.5251 62.7064L18.2217 62.118L17.8754 61.4671L17.3435 60.4936L16.3861 58.7834L15.4346 57.1039L14.9129 56.1639L14.4566 55.3144L14.176 54.7742C12.5533 51.6028 11.7808 49.1858 11.9793 47.12L12.0092 46.8636L12.0304 46.7545L16.5832 28.7549C17.0296 26.2237 19.7068 24.5798 22.1735 25.0148Z" fill="#000091"/>
<path d="M54.2041 31.1732C53.7464 28.5773 55.6259 25.4361 58.0153 25.0148C60.4821 24.5798 63.1593 26.2237 63.6056 28.7549L68.1585 46.7545L68.1797 46.8636L68.2081 47.1074C68.413 49.2352 67.538 51.7455 65.7065 55.1042L65.3886 55.679L65.0491 56.2774L64.4774 57.2583L63.4676 58.9556L62.7827 60.1152L62.1837 61.1447L61.6662 62.0544L61.2258 62.8547L60.9433 63.3895L60.6999 63.873L60.4935 64.3097L60.3756 64.5769L60.2729 64.8266L60.1846 65.0599L60.1104 65.2784L60.0496 65.4831L60.0017 65.6754L59.966 65.8567L59.9462 65.9999H62.9998L63.1165 66.0066C63.6138 66.0644 63.9998 66.487 63.9998 66.9999C63.9998 67.5522 63.5521 67.9999 62.9998 67.9999H42.9998L42.8832 67.9931C42.3859 67.9354 41.9998 67.5127 41.9998 66.9999C41.9998 66.4476 42.4476 65.9999 42.9998 65.9999H46.1605C44.7486 59.4904 47.3594 52.8944 51.43 50.0707L51.652 49.9214C53.4994 48.7177 53.998 47.2293 53.546 44.1826L53.4593 43.6448L53.3544 43.075C53.3382 42.9918 53.3215 42.9076 53.3043 42.8223C53.2913 42.7837 53.2805 42.7438 53.272 42.7028L53.1097 41.913L53.0919 41.834C53.086 41.8078 53.0811 41.7817 53.0773 41.7556L52.8421 40.611L52.808 40.426C52.476 38.3067 53.9718 35.448 55.9774 35.0217C58.0596 34.5792 59.7184 35.6981 60.1635 37.792L60.3327 38.7986L60.8067 41.5615L61.1632 43.5707L61.3605 44.649L61.6042 45.9389L61.7725 46.7957L61.9779 47.7913C62.3763 49.66 61.3786 52.2889 59.0435 55.8118L58.5749 56.5048L58.073 57.2204L57.8095 57.5867C57.4854 58.0339 56.8602 58.1337 56.413 57.8096C55.9658 57.4855 55.8661 56.8602 56.1902 56.413C56.2751 56.2959 56.3586 56.1797 56.4407 56.0646L56.9162 55.3863L57.3578 54.7328C59.4105 51.6347 60.2795 49.4166 60.0218 48.2084L59.9162 47.7043L59.6878 46.562L59.3698 44.8826L59.0894 43.3377L58.6254 40.6843L58.199 38.1647C57.9886 37.1793 57.3794 36.7684 56.3932 36.978C55.5143 37.1649 54.5569 39.0592 54.7997 40.2017L55.0755 41.5431L55.1911 42.0721L55.3221 42.7226C56.1763 47.1772 55.6963 49.5757 52.9443 51.4631L52.7439 51.5971C49.2038 53.9037 46.799 59.8924 48.1596 65.7745C48.177 65.85 48.1854 65.9255 48.1855 65.9999H57.905L57.9063 65.9513L57.9238 65.7361C57.9278 65.6998 57.9322 65.6632 57.9372 65.6264L57.9735 65.4019L58.0232 65.1691L58.0868 64.9264L58.1649 64.6722C58.1935 64.5853 58.2245 64.4962 58.2583 64.4046L58.3674 64.1222L58.493 63.8232L58.6356 63.506L58.7959 63.1689L59.0708 62.6223L59.278 62.2282L59.6261 61.5884L60.1634 60.6357L60.7887 59.557L62.9487 55.9123L63.4803 54.9913L63.7986 54.4234L64.1434 53.7892C65.6526 50.9604 66.3554 48.8703 66.2196 47.3258L66.2037 47.1796L61.6513 29.1737L61.617 29.0136C61.2731 27.6442 59.738 26.7418 58.3626 26.9844C57.129 27.2019 55.8976 29.2599 56.1738 30.8259C56.2697 31.3698 55.9065 31.8885 55.3626 31.9844C54.8187 32.0803 54.3 31.7171 54.2041 31.1732Z" fill="#000091"/>
<path d="M55.1998 59.9999C55.7521 59.9999 56.1998 59.5522 56.1998 58.9999C56.1998 58.4476 55.7521 57.9999 55.1998 57.9999C54.6476 57.9999 54.1998 58.4476 54.1998 58.9999C54.1998 59.5522 54.6476 59.9999 55.1998 59.9999Z" fill="#000091"/>
</svg>
