<svg width="80" height="80" viewBox="0 0 80 80" fill="none" xmlns="http://www.w3.org/2000/svg">
<path fill-rule="evenodd" clip-rule="evenodd" d="M63 22C62.4486 22 62 21.5514 62 21C62 20.4486 62.4486 20 63 20C63.5514 20 64 20.4486 64 21C64 21.5514 63.5514 22 63 22Z" fill="#ECECFE"/>
<path fill-rule="evenodd" clip-rule="evenodd" d="M18 80C17.4486 80 17 79.5514 17 79C17 78.4486 17.4486 78 18 78C18.5514 78 19 78.4486 19 79C19 79.5514 18.5514 80 18 80Z" fill="#ECECFE"/>
<path fill-rule="evenodd" clip-rule="evenodd" d="M18 2C17.4486 2 17 1.5514 17 1C17 0.448553 17.4486 0 18 0C18.5514 0 19 0.448553 19 1C19 1.5514 18.5514 2 18 2Z" fill="#ECECFE"/>
<path d="M31.3138 7.15898C30.1426 6.77123 28.9338 7.09389 27.735 8.02192L27.6735 8.07109L27.4925 8.06039C25.8006 7.98169 24.4428 8.35688 23.4637 9.22664L23.2948 9.38527C22.2175 10.4553 22.0932 11.9595 22.7849 13.773L22.8935 14.0411L22.3735 15.0731L22.2151 15.0842C19.6166 15.2909 18.0965 16.5615 18.004 18.813L17.9995 19.0339C17.9995 21.2739 19.3471 22.5978 21.7257 22.9303L21.9995 22.9631V24.0001C21.9995 24.5129 22.3856 24.9356 22.8829 24.9934L22.9995 25.0001C23.5123 25.0001 23.935 24.6141 23.9928 24.1167L23.9995 24.0001V22.0136C23.9995 21.4613 23.5518 21.0136 22.9995 21.0136C20.8319 21.0136 19.9995 20.3935 19.9995 19.0339C19.9995 17.6743 20.8319 17.0542 22.9995 17.0542C23.3353 17.0542 23.6457 16.886 23.8298 16.6116L23.8927 16.5038L24.8927 14.5174C25.0317 14.2412 25.0352 13.9164 24.9021 13.6373C24.2079 12.1814 24.2079 11.2972 24.7042 10.8043C25.319 10.1936 26.3585 9.93551 27.8956 10.0961C28.1747 10.1253 28.4533 10.0358 28.6632 9.84954C29.5082 9.09981 30.1604 8.88387 30.6852 9.05762C31.3098 9.26441 31.7611 9.71272 32.0747 10.4751C32.2847 10.9859 32.8691 11.2297 33.3798 11.0196C33.8906 10.8096 34.1344 10.2252 33.9244 9.71445C33.3973 8.43278 32.5153 7.55678 31.3138 7.15898Z" fill="#E1000F"/>
<path d="M20.0061 55.6022C20.086 54.6784 20.9086 54.0001 21.8569 54.0001H24.9998L25.1164 54.0068C25.6137 54.0646 25.9998 54.4873 25.9998 55.0001L25.993 55.1167C25.9353 55.6141 25.5126 56.0001 24.9998 56.0001H21.9998V60.0001H24.9998L25.1164 60.0068C25.6137 60.0646 25.9998 60.4873 25.9998 61.0001C25.9998 61.5524 25.5521 62.0001 24.9998 62.0001H21.8569L21.7083 61.9945C20.775 61.9243 19.9998 61.1986 19.9998 60.2501V55.7501L20.0061 55.6022Z" fill="#E1000F"/>
<path d="M37.9934 55.6022C37.9135 54.6784 37.0909 54.0001 36.1426 54.0001H32.9998L32.8832 54.0068C32.3858 54.0646 31.9998 54.4873 31.9998 55.0001L32.0065 55.1167C32.0643 55.6141 32.4869 56.0001 32.9998 56.0001H35.9998V60.0001H32.9998L32.8832 60.0068C32.3858 60.0646 31.9998 60.4873 31.9998 61.0001C31.9998 61.5524 32.4475 62.0001 32.9998 62.0001H36.1426L36.2912 61.9945C37.2246 61.9243 37.9998 61.1986 37.9998 60.2501V55.7501L37.9934 55.6022Z" fill="#E1000F"/>
<path d="M43.1773 8.92341C43.6442 7.64562 45.0104 7.00009 47 7.00009L47.229 7.00407C49.2622 7.0756 50.549 8.1093 50.9015 9.91723L50.916 10.0001H52L52.2902 10.0027C55.9244 10.0683 58 11.3808 58 14.0001L57.9957 14.2042C57.8983 16.4863 56.1502 17.7235 53.1215 17.9586L52.856 17.9761L52.8228 18.0768C52.3559 19.3546 50.9896 20.0001 49 20.0001L48.7487 19.9985C47.7583 19.9853 46.9457 19.8919 46.326 19.6791L46.2126 19.8573C45.2803 21.262 43.8497 22.0001 42 22.0001L41.7504 21.9955C40.1859 21.9377 38.9368 21.3318 38.052 20.2201L37.9838 20.3224C37.2231 21.4139 36.2277 22.0001 35 22.0001L34.7079 21.9952C33.9391 21.969 33.2523 21.8377 32.6543 21.5964L32.635 21.5871L31.9702 24.2426L31.9353 24.3541C31.7587 24.8226 31.255 25.0946 30.7575 24.9702C30.2217 24.8363 29.8959 24.2934 30.0299 23.7576L31.0299 19.7576L31.0657 19.6426C31.3162 18.9783 32.1864 18.7723 32.7071 19.293L32.818 19.395C33.2823 19.7882 33.9954 20.0001 35 20.0001C35.8252 20.0001 36.5063 19.319 37.0513 17.6839C37.3552 16.7722 38.6448 16.7722 38.9487 17.6839C39.4816 19.2826 40.4383 20.0001 42 20.0001C43.5617 20.0001 44.5184 19.2826 45.0513 17.6839L45.0943 17.5736C45.4741 16.7324 46.6845 16.8593 46.9487 17.6662L46.976 17.7671L47.0338 17.7902L47.1879 17.8376C47.5776 17.9413 48.1883 18.0001 49 18.0001C50.513 18.0001 51 17.6754 51 17.0001C51 16.4478 51.4477 16.0001 52 16.0001C54.8529 16.0001 56 15.3118 56 14.0001C56 12.6883 54.8529 12.0001 52 12.0001H50L49.8834 11.9934C49.3861 11.9356 49 11.5129 49 11.0001C49 9.55238 48.4477 9.00009 47 9.00009C45.487 9.00009 45 9.32478 45 10.0001L44.9933 10.1167C44.9355 10.6141 44.5128 11.0001 44 11.0001C42.487 11.0001 42 11.3248 42 12.0001L41.9933 12.1167C41.9355 12.6141 41.5128 13.0001 41 13.0001C40.4477 13.0001 40 12.5524 40 12.0001L40.005 11.8042C40.0886 10.1994 41.2103 9.27758 43.0584 9.05383L43.138 9.04509L43.1773 8.92341Z" fill="#E1000F"/>
<path fill-rule="evenodd" clip-rule="evenodd" d="M33 23H21C20.4477 23 20 23.4477 20 24V27C20 28.1025 20.8921 28.9967 21.9938 29L20.105 46H14C12.9456 46 12.0818 46.8159 12.0055 47.8507L12 48V50C12 51.0544 12.8159 51.9182 13.8507 51.9945L14 52V68H11L10.8834 68.0067C10.386 68.0645 10 68.4872 10 69C10 69.5523 10.4477 70 11 70H49L49.1166 69.9933C49.614 69.9355 50 69.5128 50 69C50 68.4477 49.5523 68 49 68H44V42H62V46H53L52.8834 46.0067C52.386 46.0645 52 46.4872 52 47C52 47.5523 52.4477 48 53 48H62V51L62.0067 51.1166C62.0645 51.614 62.4872 52 63 52C63.5523 52 64 51.5523 64 51V42H66C67.1046 42 68 41.1046 68 40V38C68 36.8954 67.1046 36 66 36H63.9C63.4506 33.7863 61.5388 32.1037 59.2169 32.0046L59 32H47C44.581 32 42.5633 33.7178 42.1 36H40C38.8954 36 38 36.8954 38 38V40C38 41.1046 38.8954 42 40 42H42V46H22.1173L23.9939 29.1104L23.9997 29H29.9999C30 29.0365 30.002 29.0733 30.0061 29.1104L30.3272 32H27L26.8834 32.0067C26.386 32.0645 26 32.4872 26 33C26 33.5523 26.4477 34 27 34H30.5494L30.7716 36H29L28.8834 36.0067C28.386 36.0645 28 36.4872 28 37C28 37.5523 28.4477 38 29 38H30.9938L31.5607 43.1016L31.5803 43.2168C31.6926 43.7047 32.1553 44.0417 32.665 43.985C33.2139 43.924 33.6094 43.4296 33.5485 42.8807L32.0062 29C33.1079 28.9967 34 28.1025 34 27V24C34 23.4477 33.5523 23 33 23ZM59 34C60.3062 34 61.4175 34.8348 61.8293 36H44.1707C44.5639 34.8876 45.5945 34.0763 46.8237 34.0051L47 34H59ZM40 38V40H66V38H40ZM20.988 48C20.9968 48.0001 21.0057 48.0001 21.0145 48H42V64H41L40.8834 64.0067C40.386 64.0645 40 64.4872 40 65C40 65.5523 40.4477 66 41 66H42V68H16V66H37L37.1166 65.9933C37.614 65.9355 38 65.5128 38 65C38 64.4477 37.5523 64 37 64H16V52H37C37.5523 52 38 51.5523 38 51C38 50.4872 37.614 50.0645 37.1166 50.0067L37 50H14V48H20.988ZM32 25H22V27H32V25Z" fill="#000091"/>
<path d="M70 69C70 68.4477 69.5523 68 69 68H64V55L63.9933 54.8834C63.9355 54.386 63.5128 54 63 54C62.4477 54 62 54.4477 62 55V58H53L52.8834 58.0067C52.386 58.0645 52 58.4872 52 59C52 59.5523 52.4477 60 53 60H62V68H55L54.8834 68.0067C54.386 68.0645 54 68.4872 54 69C54 69.5523 54.4477 70 55 70H69L69.1166 69.9933C69.614 69.9355 70 69.5128 70 69Z" fill="#000091"/>
<path d="M59 72C59.5523 72 60 72.4477 60 73C60 73.5128 59.614 73.9355 59.1166 73.9933L59 74H19C18.4477 74 18 73.5523 18 73C18 72.4872 18.386 72.0645 18.8834 72.0067L19 72H59Z" fill="#000091"/>
<path d="M54 51C54 50.4477 53.5523 50 53 50H47L46.8834 50.0067C46.386 50.0645 46 50.4872 46 51C46 51.5523 46.4477 52 47 52H53L53.1166 51.9933C53.614 51.9355 54 51.5128 54 51Z" fill="#000091"/>
</svg>
