<svg width="80" height="80" viewBox="0 0 80 80" fill="none" xmlns="http://www.w3.org/2000/svg">
<path fill-rule="evenodd" clip-rule="evenodd" d="M21 76C20.4486 76 20 75.5514 20 75C20 74.4486 20.4486 74 21 74C21.5514 74 22 74.4486 22 75C22 75.5514 21.5514 76 21 76Z" fill="#ECECFE"/>
<path fill-rule="evenodd" clip-rule="evenodd" d="M77 24C76.4486 24 76 23.5514 76 23C76 22.4486 76.4486 22 77 22C77.5514 22 78 22.4486 78 23C78 23.5514 77.5514 24 77 24Z" fill="#ECECFE"/>
<path fill-rule="evenodd" clip-rule="evenodd" d="M47 2C46.4486 2 46 1.5514 46 1C46 0.448553 46.4486 0 47 0C47.5514 0 48 0.448553 48 1C48 1.5514 47.5514 2 47 2Z" fill="#ECECFE"/>
<path d="M17 28C17.5128 28 17.9355 28.386 17.9933 28.8834L18 29V33C18 33.5523 17.5523 34 17 34C16.4872 34 16.0645 33.614 16.0067 33.1166L16 33V29C16 28.4477 16.4477 28 17 28Z" fill="#E1000F"/>
<path d="M17 46C17.5128 46 17.9355 46.386 17.9933 46.8834L18 47V57C18 57.5523 17.5523 58 17 58C16.4872 58 16.0645 57.614 16.0067 57.1166L16 57V47C16 46.4477 16.4477 46 17 46Z" fill="#E1000F"/>
<path d="M23.9933 28.8834C23.9355 28.386 23.5128 28 23 28C22.4477 28 22 28.4477 22 29V57L22.0067 57.1166C22.0645 57.614 22.4872 58 23 58C23.5523 58 24 57.5523 24 57V29L23.9933 28.8834Z" fill="#E1000F"/>
<path d="M29 28C29.5128 28 29.9355 28.386 29.9933 28.8834L30 29V31C30 31.5523 29.5523 32 29 32C28.4872 32 28.0645 31.614 28.0067 31.1166L28 31V29C28 28.4477 28.4477 28 29 28Z" fill="#E1000F"/>
<path d="M35.9933 28.8834C35.9355 28.386 35.5128 28 35 28C34.4477 28 34 28.4477 34 29V31L34.0067 31.1166C34.0645 31.614 34.4872 32 35 32C35.5523 32 36 31.5523 36 31V29L35.9933 28.8834Z" fill="#E1000F"/>
<path fill-rule="evenodd" clip-rule="evenodd" d="M30.9998 10H18.9998C17.3429 10 15.9998 11.3431 15.9998 13C15.9998 14.6569 17.3429 16 18.9998 16H19.9998V22H14.9998L14.7829 22.0046C12.1221 22.1182 9.99978 24.3112 9.99978 27V38.9767C9.99942 38.9921 9.99942 39.0076 9.99978 39.0231V43.977C9.99942 43.9924 9.99942 44.0079 9.99978 44.0233V59L10.0044 59.2169C10.1064 61.6063 11.8853 63.5614 14.1942 63.9354C14.0685 64.2663 13.9998 64.6251 13.9998 65C13.9998 66.6569 15.3429 68 16.9998 68C18.6566 68 19.9998 66.6569 19.9998 65C19.9998 64.6494 19.9396 64.3128 19.8291 64H22.9998L23.1164 63.9933C23.6137 63.9355 23.9998 63.5128 23.9998 63C23.9998 62.4477 23.5521 62 22.9998 62H14.9998L14.8235 61.9949C13.2487 61.9037 11.9998 60.5977 11.9998 59V44.693L19.3509 41.9363L19.458 41.889C19.9382 41.6425 20.142 41.0484 19.8942 40.5528L17.8942 36.5528L17.8327 36.4464C17.586 36.0746 17.1163 35.9071 16.6836 36.0513L11.9998 37.6126V27L12.0049 26.8237C12.0961 25.2489 13.4021 24 14.9998 24H38.9998L39.1164 23.9933C39.6137 23.9355 39.9998 23.5128 39.9998 23C39.9998 22.4477 39.5521 22 38.9998 22H29.9998V16H30.9998C32.6566 16 33.9998 14.6569 33.9998 13C33.9998 11.3431 32.6566 10 30.9998 10ZM16.9998 64C16.4475 64 15.9998 64.4477 15.9998 65C15.9998 65.5523 16.4475 66 16.9998 66C17.5521 66 17.9998 65.5523 17.9998 65C17.9998 64.4477 17.5521 64 16.9998 64ZM11.9998 42.5568V39.7206L16.4928 38.222L17.6078 40.453L11.9998 42.5568ZM30.9998 14C31.5521 14 31.9998 13.5523 31.9998 13C31.9998 12.4477 31.5521 12 30.9998 12H18.9998C18.4475 12 17.9998 12.4477 17.9998 13C17.9998 13.5523 18.4475 14 18.9998 14H30.9998ZM27.9998 16V22H21.9998V16H27.9998Z" fill="#000091"/>
<path fill-rule="evenodd" clip-rule="evenodd" d="M41.0296 42.7575L39.0296 50.7575C38.8318 51.5489 39.6138 52.2314 40.3712 51.9285L50.3712 47.9285C51.1723 47.608 51.2188 46.4915 50.447 46.1056L42.447 42.1056C41.8748 41.8195 41.1848 42.1368 41.0296 42.7575ZM42.6678 44.452L47.5598 46.898L41.4438 49.344L42.6678 44.452Z" fill="#000091"/>
<path fill-rule="evenodd" clip-rule="evenodd" d="M50.9998 53C50.9998 50.2386 53.2384 48 55.9998 48C58.7612 48 60.9998 50.2386 60.9998 53C60.9998 55.7614 58.7612 58 55.9998 58C53.2384 58 50.9998 55.7614 50.9998 53ZM58.9998 53C58.9998 51.3431 57.6566 50 55.9998 50C54.3429 50 52.9998 51.3431 52.9998 53C52.9998 54.6569 54.3429 56 55.9998 56C57.6566 56 58.9998 54.6569 58.9998 53Z" fill="#000091"/>
<path fill-rule="evenodd" clip-rule="evenodd" d="M41.9998 34V29C41.9998 27.4023 43.2487 26.0963 44.8235 26.0051L44.9998 26H56.9998C58.5975 26 59.9034 27.2489 59.9947 28.8237L59.9998 29V34H66.9998C69.7612 34 71.9998 36.2386 71.9998 39V59C71.9998 61.7614 69.7612 64 66.9998 64H65.8291C65.9396 64.3128 65.9998 64.6494 65.9998 65C65.9998 66.6569 64.6566 68 62.9998 68C61.3429 68 59.9998 66.6569 59.9998 65C59.9998 64.6494 60.0599 64.3128 60.1705 64H39.8291C39.9396 64.3128 39.9998 64.6494 39.9998 65C39.9998 66.6569 38.6566 68 36.9998 68C35.3429 68 33.9998 66.6569 33.9998 65C33.9998 64.6494 34.0599 64.3128 34.1705 64H32.9998C30.2384 64 27.9998 61.7614 27.9998 59V39C27.9998 36.2386 30.2384 34 32.9998 34H41.9998ZM69.9998 56V42H64.9998C64.4869 42 64.0643 41.614 64.0065 41.1166L63.9998 41V36H35.9998V41C35.9998 41.5128 35.6137 41.9355 35.1164 41.9933L34.9998 42H29.9998V56H34.9998C35.5126 56 35.9353 56.386 35.9931 56.8834L35.9998 57V62H63.9998V57C63.9998 56.4872 64.3858 56.0645 64.8832 56.0067L64.9998 56H69.9998ZM65.9998 62V58H69.9998V59C69.9998 60.6569 68.6566 62 66.9998 62H65.9998ZM65.9998 40H69.9998V39C69.9998 37.3431 68.6566 36 66.9998 36H65.9998V40ZM29.9998 58V59C29.9998 60.6569 31.3429 62 32.9998 62H33.9998V58H29.9998ZM33.9998 40V36H32.9998C31.3429 36 29.9998 37.3431 29.9998 39V40H33.9998ZM43.9998 29V34H45.9998V31C45.9998 30.4872 46.3858 30.0645 46.8832 30.0067L46.9998 30H54.9998C55.5126 30 55.9353 30.386 55.9931 30.8834L55.9998 31V34H57.9998V29C57.9998 28.4872 57.6137 28.0645 57.1164 28.0067L56.9998 28H44.9998C44.4869 28 44.0643 28.386 44.0065 28.8834L43.9998 29ZM53.9998 34V32H47.9998V34H53.9998ZM61.9998 65C61.9998 64.4477 62.4475 64 62.9998 64C63.5521 64 63.9998 64.4477 63.9998 65C63.9998 65.5523 63.5521 66 62.9998 66C62.4475 66 61.9998 65.5523 61.9998 65ZM36.9998 64C36.4475 64 35.9998 64.4477 35.9998 65C35.9998 65.5523 36.4475 66 36.9998 66C37.5521 66 37.9998 65.5523 37.9998 65C37.9998 64.4477 37.5521 64 36.9998 64Z" fill="#000091"/>
</svg>
