<svg width="80" height="80" viewBox="0 0 80 80" fill="none" xmlns="http://www.w3.org/2000/svg">
<path fill-rule="evenodd" clip-rule="evenodd" d="M17 9C16.4486 9 16 8.5514 16 8C16 7.44855 16.4486 7 17 7C17.5514 7 18 7.44855 18 8C18 8.5514 17.5514 9 17 9Z" fill="#ECECFE"/>
<path fill-rule="evenodd" clip-rule="evenodd" d="M3 61C2.4486 61 2 60.5514 2 60C2 59.4486 2.4486 59 3 59C3.5514 59 4 59.4486 4 60C4 60.5514 3.5514 61 3 61Z" fill="#ECECFE"/>
<path fill-rule="evenodd" clip-rule="evenodd" d="M67 73C66.4486 73 66 72.5514 66 72C66 71.4486 66.4486 71 67 71C67.5514 71 68 71.4486 68 72C68 72.5514 67.5514 73 67 73Z" fill="#ECECFE"/>
<path fill-rule="evenodd" clip-rule="evenodd" d="M77 13C76.4486 13 76 12.5514 76 12C76 11.4486 76.4486 11 77 11C77.5514 11 78 11.4486 78 12C78 12.5514 77.5514 13 77 13Z" fill="#ECECFE"/>
<path fill-rule="evenodd" clip-rule="evenodd" d="M32 70C31.4486 70 31 69.5514 31 69C31 68.4486 31.4486 68 32 68C32.5514 68 33 68.4486 33 69C33 69.5514 32.5514 70 32 70Z" fill="#ECECFE"/>
<path fill-rule="evenodd" clip-rule="evenodd" d="M29.4036 46.6627C32.0364 47.7453 33.8969 50.0476 33.9959 52.7714L34 53H32C32 50.2757 29.345 48 26 48C22.7347 48 20.1268 50.1687 20.0045 52.8062L20 53H18C18 50.1768 19.8902 47.7755 22.5964 46.6627C21.6144 45.7498 21 44.4466 21 43C21 40.2386 23.2386 38 26 38C28.7614 38 31 40.2386 31 43C31 44.4466 30.3856 45.7498 29.4036 46.6627ZM26 46C27.6569 46 29 44.6569 29 43C29 41.3431 27.6569 40 26 40C24.3431 40 23 41.3431 23 43C23 44.6569 24.3431 46 26 46Z" fill="#E1000F"/>
<path fill-rule="evenodd" clip-rule="evenodd" d="M17 32H35C36.6569 32 38 33.3431 38 35V55C38 56.6569 36.6569 58 35 58H17C15.3431 58 14 56.6569 14 55V35C14 33.3431 15.3431 32 17 32ZM35 34H17C16.4477 34 16 34.4477 16 35V55C16 55.5523 16.4477 56 17 56H35C35.5523 56 36 55.5523 36 55V35C36 34.4477 35.5523 34 35 34Z" fill="#E1000F"/>
<path fill-rule="evenodd" clip-rule="evenodd" d="M13 64H16C16.55 64 17 63.55 17 63C17 62.45 16.55 62 16 62H13C11.63 62 10 61.48 10 59V20.5C10 19.6 11 18 13 18H48C48.55 18 49 17.55 49 17C49 16.45 48.55 16 48 16H13C10.05 16 8 18.37 8 20.5V59C8 62.69 10.58 64 13 64ZM67 64H36C35.45 64 35 63.55 35 63C35 62.45 35.45 62 36 62H67C69 62 70 60.4 70 59.5V21C70 18.52 68.37 18 67 18H58C57.45 18 57 17.55 57 17C57 16.45 57.45 16 58 16H67C69.42 16 72 17.31 72 21V59.5C72 61.63 69.95 64 67 64ZM16 24H21V26H16V24ZM14 22H23V28H14V22ZM44 25C44 24.45 44.45 24 45 24H52C52.55 24 53 24.45 53 25C53 25.55 52.55 26 52 26H45C44.45 26 44 25.55 44 25ZM27 25C27 24.45 27.45 24 28 24H41C41.55 24 42 24.45 42 25C42 25.55 41.55 26 41 26H28C27.45 26 27 25.55 27 25ZM64 24H59V26H64V24ZM66 22H57V28H66V22ZM43 32C42.45 32 42 32.45 42 33C42 33.55 42.45 34 43 34H51C51.55 34 52 33.55 52 33C52 32.45 51.55 32 51 32H43ZM43 36C42.45 36 42 36.45 42 37C42 37.55 42.45 38 43 38H59C59.55 38 60 37.55 60 37C60 36.45 59.55 36 59 36H43ZM42 41C42 40.45 42.45 40 43 40H44C44.55 40 45 40.45 45 41C45 41.55 44.55 42 44 42H43C42.45 42 42 41.55 42 41ZM43 44C42.45 44 42 44.45 42 45C42 45.55 42.45 46 43 46H49C49.55 46 50 45.55 50 45C50 44.45 49.55 44 49 44H43ZM42 49C42 48.45 42.45 48 43 48H55C55.55 48 56 48.45 56 49C56 49.55 55.55 50 55 50H43C42.45 50 42 49.55 42 49ZM43 56C42.45 56 42 56.45 42 57C42 57.55 42.45 58 43 58H55C55.55 58 56 57.55 56 57C56 56.45 55.55 56 55 56H43ZM58 57C58 56.45 58.45 56 59 56H65C65.55 56 66 56.45 66 57C66 57.55 65.55 58 65 58H59C58.45 58 58 57.55 58 57ZM48 40C47.45 40 47 40.45 47 41C47 41.55 47.45 42 48 42H54C54.55 42 55 41.55 55 41C55 40.45 54.55 40 54 40H48ZM57 41C57 40.45 57.45 40 58 40H65C65.55 40 66 40.45 66 41C66 41.55 65.55 42 65 42H58C57.45 42 57 41.55 57 41Z" fill="#000091"/>
</svg>
