<svg width="80" height="80" viewBox="0 0 80 80" fill="none" xmlns="http://www.w3.org/2000/svg">
<path fill-rule="evenodd" clip-rule="evenodd" d="M59 76C58.4486 76 58 75.5514 58 75C58 74.4486 58.4486 74 59 74C59.5514 74 60 74.4486 60 75C60 75.5514 59.5514 76 59 76Z" fill="#ECECFE"/>
<path fill-rule="evenodd" clip-rule="evenodd" d="M67 12C66.4486 12 66 11.5514 66 11C66 10.4486 66.4486 10 67 10C67.5514 10 68 10.4486 68 11C68 11.5514 67.5514 12 67 12Z" fill="#ECECFE"/>
<path fill-rule="evenodd" clip-rule="evenodd" d="M9 16C8.4486 16 8 15.5514 8 15C8 14.4486 8.4486 14 9 14C9.5514 14 10 14.4486 10 15C10 15.5514 9.5514 16 9 16Z" fill="#ECECFE"/>
<path d="M39.8946 10.5528C39.6477 10.0588 39.047 9.85856 38.553 10.1055C36.8456 10.9592 36.0002 12.65 36.0002 15C36.0002 15.5523 36.4479 16 37.0002 16C37.5525 16 38.0002 15.5523 38.0002 15C38.0002 13.3499 38.4882 12.374 39.4474 11.8944C39.9414 11.6474 40.1416 11.0467 39.8946 10.5528Z" fill="#E1000F"/>
<path d="M60.5028 50.1717C63.3969 43.7699 62.2817 40 57.0002 40C51.7188 40 50.6035 43.7699 53.4976 50.1717C53.6693 50.5515 53.5879 50.9981 53.2931 51.2929C52.8404 51.7456 52.2263 52 51.586 52H49.0002L48.7833 52.0046C46.1235 52.1181 44.0018 54.3096 44.0002 56.997V66H39.0002L38.8836 66.0067C38.3863 66.0645 38.0002 66.4871 38.0002 67C38.0002 67.5523 38.4479 68 39.0002 68H45.0002L45.1168 67.9932C45.6142 67.9355 46.0002 67.5128 46.0002 67V58H65.0002L65.1168 57.9932C65.6142 57.9355 66.0002 57.5128 66.0002 57C66.0002 56.4477 65.5525 56 65.0002 56H46.1709C46.5828 54.8348 47.694 54 49.0002 54H51.586L51.8194 53.9938C52.9051 53.9364 53.9347 53.4797 54.7073 52.7071C55.5906 51.8238 55.8346 50.486 55.32 49.3478C55.2333 49.1559 55.1505 48.9682 55.0716 48.7847L54.847 48.2467C53.038 43.7797 53.7975 42 57.0002 42C60.2658 42 60.9912 43.8502 59.0441 48.5126L58.8076 49.0631L58.6804 49.3478C58.1659 50.486 58.4099 51.8238 59.2931 52.7071C60.1209 53.5349 61.2437 54 62.4144 54H65.0002L65.1765 54.0051C66.7513 54.0963 68.0002 55.4023 68.0002 57V65L67.9935 65.1166C67.9357 65.6139 67.5131 66 67.0002 66H66.0002V63L65.9935 62.8834C65.9357 62.386 65.5131 62 65.0002 62C64.4479 62 64.0002 62.4477 64.0002 63V66H56.0002V63L55.9935 62.8834C55.9357 62.386 55.5131 62 55.0002 62C54.4479 62 54.0002 62.4477 54.0002 63V67L54.0069 67.1166C54.0647 67.6139 54.4874 68 55.0002 68H67.0002L67.1765 67.9949C68.7513 67.9036 70.0002 66.5977 70.0002 65V57L69.9956 56.7831C69.882 54.1223 67.689 52 65.0002 52H62.4144L62.2233 51.9924C61.6529 51.9471 61.1148 51.7003 60.7073 51.2929C60.4125 50.9981 60.3311 50.5515 60.5028 50.1717Z" fill="#E1000F"/>
<path d="M28.1058 16.5528C28.3528 16.0588 28.9535 15.8586 29.4474 16.1055C31.1548 16.9592 32.0002 18.65 32.0002 21C32.0002 21.5523 31.5525 22 31.0002 22C30.4479 22 30.0002 21.5523 30.0002 21C30.0002 19.3499 29.5123 18.374 28.553 17.8944C28.059 17.6474 27.8588 17.0467 28.1058 16.5528Z" fill="#E1000F"/>
<path d="M32.0002 67C32.0002 67.5514 32.4488 68 33.0002 68C33.5516 68 34.0002 67.5514 34.0002 67C34.0002 66.4485 33.5516 66 33.0002 66C32.4488 66 32.0002 66.4485 32.0002 67Z" fill="#E1000F"/>
<path d="M71.0005 36C68.4836 36 66.7984 37.6852 66.0303 40.7574C65.8964 41.2932 66.2221 41.8362 66.7579 41.9701C67.2937 42.1041 67.8366 41.7783 67.9706 41.2425C68.5359 38.9814 69.5173 38 71.0005 38C71.5527 38 72.0005 37.5523 72.0005 37C72.0005 36.4477 71.5527 36 71.0005 36Z" fill="#E1000F"/>
<path d="M51.0002 62C51.5131 62 51.9357 62.386 51.9935 62.8834L52.0002 63V67C52.0002 67.5523 51.5525 68 51.0002 68C50.4874 68 50.0647 67.6139 50.0069 67.1166L50.0002 67V63C50.0002 62.4477 50.4479 62 51.0002 62Z" fill="#E1000F"/>
<path d="M57.7072 10.2929L61.7072 14.2929C62.0447 14.6305 62.0933 15.1543 61.8383 15.5454L61.7683 15.6402L53.1351 26H60.9999C61.5128 26 61.9354 26.3861 61.9932 26.8834L61.9999 27V31C61.9999 31.5129 61.6139 31.9356 61.1166 31.9933L60.9999 32H57.9999V35C57.9999 35.5523 57.5522 36 56.9999 36C56.4871 36 56.0644 35.614 56.0067 35.1167L55.9999 35V32H15.9999V45C15.9999 45.5523 15.5522 46 14.9999 46C14.4871 46 14.0644 45.614 14.0067 45.1167L13.9999 45V34.6461L13.9282 34.7299C12.9033 35.9466 12.0253 37.0927 11.2917 38.1686L10.9059 38.7485C8.05707 43.1412 7.7234 46.3093 9.70705 48.2929C11.2504 49.8363 14.2536 49.7692 18.681 48.0029L19.308 47.7455C19.4141 47.7007 19.5209 47.655 19.6285 47.6084L20.2832 47.3177C20.3938 47.2674 20.5052 47.2162 20.6174 47.1641L21.2998 46.8401L22.0005 46.4938C22.2372 46.3747 22.4769 46.2518 22.7196 46.1252L23.4571 45.7343C23.5815 45.6672 23.7067 45.5993 23.8327 45.5304L24.5977 45.1057L25.381 44.6586L26.1825 44.1889C26.3176 44.1087 26.4535 44.0276 26.5901 43.9455L27.4191 43.4419L28.2662 42.9155L29.1316 42.3664C29.2773 42.273 29.4238 42.1786 29.5711 42.0833L30.3279 41.5887C30.1169 41.1017 29.9999 40.5646 29.9999 40C29.9999 39.4478 30.4477 39 30.9999 39C31.5522 39 31.9999 39.4478 31.9999 40C31.9999 41.1046 32.8954 42 33.9999 42C35.1045 42 35.9999 41.1046 35.9999 40C35.9999 38.8955 35.1045 38 33.9999 38C33.4477 38 32.9999 37.5523 32.9999 37C32.9999 36.4478 33.4477 36 33.9999 36C36.2091 36 37.9999 37.7909 37.9999 40C37.9999 42.2092 36.2091 44 33.9999 44C33.0823 44 32.2368 43.6911 31.5619 43.1714L30.6789 43.7488L29.8086 44.3073L28.9541 44.845L28.1155 45.3618C27.977 45.4462 27.8392 45.5298 27.702 45.6124L26.887 46.0979L26.0877 46.5623C25.9558 46.638 25.8246 46.7128 25.694 46.7867L24.9183 47.2196C24.7903 47.29 24.663 47.3595 24.5363 47.4281L23.7841 47.8294C23.6601 47.8945 23.5367 47.9587 23.4139 48.0221L22.6853 48.3916C22.5652 48.4514 22.4457 48.5104 22.3268 48.5684L21.6217 48.9061L20.9321 49.2225C20.5912 49.3754 20.2562 49.5203 19.927 49.6572L19.2764 49.9202C14.1342 51.9388 10.4861 51.9004 8.29283 49.7072C5.35426 46.7686 5.90938 42.4986 9.71268 36.947L10.1486 36.3249C10.2235 36.2203 10.2995 36.1153 10.3766 36.0099L10.8525 35.372C11.0156 35.1576 11.1831 34.9414 11.355 34.7235L11.8839 34.0646L12.4392 33.3952C12.7234 33.0579 13.0176 32.7167 13.3215 32.3715L13.6532 32H10.9999C10.4871 32 10.0644 31.614 10.0067 31.1167L9.99994 31V27C9.99994 26.4872 10.386 26.0645 10.8833 26.0068L10.9999 26H22.9999C23.5522 26 23.9999 26.4478 23.9999 27C23.9999 27.5129 23.6139 27.9356 23.1166 27.9933L22.9999 28H11.9999V30H59.9999V28H28.9999C28.4871 28 28.0644 27.614 28.0067 27.1167L27.9999 27C27.9999 26.4872 28.386 26.0645 28.8833 26.0068L28.9999 26H42.5462L49.2466 18.3424C49.6103 17.9268 50.2421 17.8846 50.6577 18.2483C51.0437 18.586 51.1075 19.1549 50.8235 19.5672L50.7518 19.6594L45.2037 26H50.5316L59.6476 15.0604L57.0488 12.462L54.1979 15.7211C53.8602 16.107 53.2913 16.1709 52.879 15.8869L52.7868 15.8151C52.4009 15.4774 52.337 14.9086 52.621 14.4963L52.6927 14.4041L56.2475 10.3415C56.603 9.93518 57.2101 9.88867 57.622 10.2168L57.7072 10.2929Z" fill="#000091"/>
<path d="M15.9932 54.8834C15.9354 54.3861 15.5128 54 14.9999 54C14.4477 54 13.9999 54.4478 13.9999 55V61L14.004 61.2407C14.1308 64.9953 17.2145 68 20.9999 68H22.9999L23.1166 67.9933C23.6139 67.9356 23.9999 67.5129 23.9999 67C23.9999 66.4478 23.5522 66 22.9999 66H20.9999L20.7831 65.9954C18.1222 65.8819 15.9999 63.6888 15.9999 61V55L15.9932 54.8834Z" fill="#000091"/>
<path d="M20.9999 56C21.5128 56 21.9354 56.3861 21.9932 56.8834L21.9999 57V61C21.9999 61.5523 21.5522 62 20.9999 62C20.4871 62 20.0644 61.614 20.0067 61.1167L19.9999 61V57C19.9999 56.4478 20.4477 56 20.9999 56Z" fill="#000091"/>
<path d="M27.9932 56.8834C27.9354 56.3861 27.5128 56 26.9999 56C26.4477 56 25.9999 56.4478 25.9999 57V61L26.0067 61.1167C26.0644 61.614 26.4871 62 26.9999 62C27.5522 62 27.9999 61.5523 27.9999 61V57L27.9932 56.8834Z" fill="#000091"/>
<path d="M32.9999 56C33.5128 56 33.9354 56.3861 33.9932 56.8834L33.9999 57V61C33.9999 61.5523 33.5522 62 32.9999 62C32.4871 62 32.0644 61.614 32.0067 61.1167L31.9999 61V57C31.9999 56.4478 32.4477 56 32.9999 56Z" fill="#000091"/>
<path d="M39.9932 56.8834C39.9354 56.3861 39.5128 56 38.9999 56C38.4477 56 37.9999 56.4478 37.9999 57V61L38.0067 61.1167C38.0644 61.614 38.4871 62 38.9999 62C39.5522 62 39.9999 61.5523 39.9999 61V57L39.9932 56.8834Z" fill="#000091"/>
</svg>
