<svg width="80" height="80" viewBox="0 0 80 80" fill="none" xmlns="http://www.w3.org/2000/svg">
<path fill-rule="evenodd" clip-rule="evenodd" d="M6 34C6.55 34 7 33.55 7 33C7 32.45 6.55 32 6 32C5.45 32 5 32.45 5 33C5 33.55 5.45 34 6 34Z" fill="#ECECFE"/>
<path fill-rule="evenodd" clip-rule="evenodd" d="M46 6C46.55 6 47 5.55 47 5C47 4.45 46.55 4 46 4C45.45 4 45 4.45 45 5C45 5.55 45.45 6 46 6Z" fill="#ECECFE"/>
<path fill-rule="evenodd" clip-rule="evenodd" d="M66 62C66.55 62 67 61.55 67 61C67 60.45 66.55 60 66 60C65.45 60 65 60.45 65 61C65 61.55 65.45 62 66 62Z" fill="#ECECFE"/>
<path fill-rule="evenodd" clip-rule="evenodd" d="M74 30C74.55 30 75 29.55 75 29C75 28.45 74.55 28 74 28C73.45 28 73 28.45 73 29C73 29.55 73.45 30 74 30Z" fill="#ECECFE"/>
<path fill-rule="evenodd" clip-rule="evenodd" d="M36 73C36.55 73 37 72.55 37 72C37 71.45 36.55 71 36 71C35.45 71 35 71.45 35 72C35 72.55 35.45 73 36 73Z" fill="#ECECFE"/>
<path fill-rule="evenodd" clip-rule="evenodd" d="M40.0003 26.2903C34.1131 26.2903 29.3433 31.0601 29.3433 36.9473C29.3433 37.335 29.3676 37.7364 29.409 38.1258C29.4104 38.139 29.4115 38.1521 29.4124 38.1651C30.0149 43.4719 34.5254 47.6043 40.0003 47.6043C45.8875 47.6043 50.6573 42.8345 50.6573 36.9473C50.6573 31.0601 45.8875 26.2903 40.0003 26.2903ZM27.4165 38.3016C27.4175 38.3177 27.4188 38.3339 27.4206 38.3501C28.118 44.6751 33.4821 49.6043 40.0003 49.6043C46.992 49.6043 52.6573 43.9391 52.6573 36.9473C52.6573 29.9556 46.992 24.2903 40.0003 24.2903C33.0085 24.2903 27.3433 29.9556 27.3433 36.9473C27.3433 37.4034 27.3709 37.8634 27.4165 38.3016Z" fill="#E1000F"/>
<path fill-rule="evenodd" clip-rule="evenodd" d="M40.0001 49.6042C30.9018 49.6042 23.519 56.9788 23.519 66.0853C23.519 66.6376 23.0713 67.0853 22.519 67.0853C21.9668 67.0853 21.519 66.6376 21.519 66.0853C21.519 55.8735 29.7979 47.6042 40.0001 47.6042C50.2027 47.6042 58.4812 55.8828 58.4812 66.0853C58.4812 66.6376 58.0335 67.0853 57.4812 67.0853C56.9289 67.0853 56.4812 66.6376 56.4812 66.0853C56.4812 56.9873 49.0981 49.6042 40.0001 49.6042Z" fill="#E1000F"/>
<path d="M57.394 21.6824C58.4986 21.6824 59.394 20.7869 59.394 19.6824C59.394 18.5778 58.4986 17.6824 57.394 17.6824C56.2895 17.6824 55.394 18.5778 55.394 19.6824C55.394 20.7869 56.2895 21.6824 57.394 21.6824Z" fill="#E1000F"/>
<path fill-rule="evenodd" clip-rule="evenodd" d="M64.0448 34.2884C64.5971 34.2928 65.0411 34.7442 65.0366 35.2964L64.9653 44.0905C64.9608 44.6428 64.5095 45.0868 63.9572 45.0824C63.405 45.0779 62.9609 44.6265 62.9654 44.0743L63.0367 35.2802C63.0412 34.728 63.4925 34.2839 64.0448 34.2884Z" fill="#000091"/>
<path fill-rule="evenodd" clip-rule="evenodd" d="M14.5774 12.2941C14.7664 12.1044 15.0237 11.9985 15.2915 12L64.2028 12.2854C64.4683 12.287 64.7223 12.3941 64.9088 12.5831C65.0953 12.7721 65.199 13.0275 65.197 13.293L65.0632 30.89C65.059 31.4423 64.6079 31.8866 64.0556 31.8824C63.5033 31.8782 63.059 31.4271 63.0632 30.8748L63.1894 14.2795L16.2949 14.0059L16.571 44.0732C16.5761 44.6255 16.1325 45.0773 15.5802 45.0824C15.028 45.0875 14.5762 44.6439 14.5711 44.0916L14.2857 13.0092C14.2832 12.7414 14.3883 12.4838 14.5774 12.2941Z" fill="#000091"/>
<path fill-rule="evenodd" clip-rule="evenodd" d="M14.8546 43.3849C15.0429 43.1916 15.3013 43.0825 15.5711 43.0825H24.3652C24.9174 43.0825 25.3652 43.5302 25.3652 44.0825C25.3652 44.6348 24.9174 45.0825 24.3652 45.0825H15.9932L9.36939 51.8855H19.103C19.6553 51.8855 20.103 52.3332 20.103 52.8855C20.103 53.4378 19.6553 53.8855 19.103 53.8855H7.00003C6.59799 53.8855 6.23505 53.6447 6.07872 53.2743C5.92239 52.9039 6.00308 52.4759 6.28355 52.1879L14.8546 43.3849Z" fill="#000091"/>
<path d="M19.9947 52.8855C19.9947 53.3781 19.5954 53.7774 19.1028 53.7774C18.6103 53.7774 18.2109 53.3781 18.2109 52.8855C18.2109 52.393 18.6103 51.9937 19.1028 51.9937C19.5954 51.9937 19.9947 52.393 19.9947 52.8855Z" fill="#000091"/>
<path d="M19.9947 52.8855C19.9947 53.3781 19.5954 53.7774 19.1028 53.7774C18.6103 53.7774 18.2109 53.3781 18.2109 52.8855C18.2109 52.393 18.6103 51.9937 19.1028 51.9937C19.5954 51.9937 19.9947 52.393 19.9947 52.8855Z" fill="#000091"/>
<path d="M19.9947 52.8855C19.9947 53.3781 19.5954 53.7774 19.1028 53.7774C18.6103 53.7774 18.2109 53.3781 18.2109 52.8855C18.2109 52.393 18.6103 51.9937 19.1028 51.9937C19.5954 51.9937 19.9947 52.393 19.9947 52.8855Z" fill="#000091"/>
<path d="M19.9947 52.8855C19.9947 53.3781 19.5954 53.7774 19.1028 53.7774C18.6103 53.7774 18.2109 53.3781 18.2109 52.8855C18.2109 52.393 18.6103 51.9937 19.1028 51.9937C19.5954 51.9937 19.9947 52.393 19.9947 52.8855Z" fill="#000091"/>
<path d="M19.9947 52.8855C19.9947 53.3781 19.5954 53.7774 19.1028 53.7774C18.6103 53.7774 18.2109 53.3781 18.2109 52.8855C18.2109 52.393 18.6103 51.9937 19.1028 51.9937C19.5954 51.9937 19.9947 52.393 19.9947 52.8855Z" fill="#000091"/>
<path fill-rule="evenodd" clip-rule="evenodd" d="M22.5 52.8853C22.5 52.333 22.9477 51.8853 23.5 51.8853H24.597C25.1493 51.8853 25.597 52.333 25.597 52.8853C25.597 53.4375 25.1493 53.8853 24.597 53.8853H23.5C22.9477 53.8853 22.5 53.4375 22.5 52.8853Z" fill="#000091"/>
<path fill-rule="evenodd" clip-rule="evenodd" d="M54.1709 44.0825C54.1709 43.5302 54.6186 43.0825 55.1709 43.0825H63.965C64.2257 43.0825 64.4761 43.1843 64.6628 43.3663L73.6977 52.1693C73.9891 52.4532 74.0794 52.8853 73.9262 53.2622C73.7729 53.639 73.4066 53.8855 72.9998 53.8855H55.4028C54.8505 53.8855 54.4028 53.4378 54.4028 52.8855C54.4028 52.3332 54.8505 51.8855 55.4028 51.8855H70.5405L63.5583 45.0825H55.1709C54.6186 45.0825 54.1709 44.6348 54.1709 44.0825Z" fill="#000091"/>
<path fill-rule="evenodd" clip-rule="evenodd" d="M19.2002 17.6824C19.2002 17.1301 19.6479 16.6824 20.2002 16.6824H46.6002C47.1525 16.6824 47.6002 17.1301 47.6002 17.6824C47.6002 18.2347 47.1525 18.6824 46.6002 18.6824H20.2002C19.6479 18.6824 19.2002 18.2347 19.2002 17.6824Z" fill="#000091"/>
<path fill-rule="evenodd" clip-rule="evenodd" d="M19.2002 22.0884C19.2002 21.5361 19.6479 21.0884 20.2002 21.0884H29.0032C29.5555 21.0884 30.0032 21.5361 30.0032 22.0884C30.0032 22.6407 29.5555 23.0884 29.0032 23.0884H20.2002C19.6479 23.0884 19.2002 22.6407 19.2002 22.0884Z" fill="#000091"/>
<path fill-rule="evenodd" clip-rule="evenodd" d="M19.2002 26.4854C19.2002 25.9331 19.6479 25.4854 20.2002 25.4854H24.5972C25.1495 25.4854 25.5972 25.9331 25.5972 26.4854C25.5972 27.0376 25.1495 27.4854 24.5972 27.4854H20.2002C19.6479 27.4854 19.2002 27.0376 19.2002 26.4854Z" fill="#000091"/>
</svg>
