<svg width="80" height="80" viewBox="0 0 80 80" fill="none" xmlns="http://www.w3.org/2000/svg">
<path fill-rule="evenodd" clip-rule="evenodd" d="M68 13C67.4486 13 67 12.5514 67 12C67 11.4486 67.4486 11 68 11C68.5514 11 69 11.4486 69 12C69 12.5514 68.5514 13 68 13Z" fill="#ECECFE"/>
<path fill-rule="evenodd" clip-rule="evenodd" d="M14 69C13.4486 69 13 68.5514 13 68C13 67.4486 13.4486 67 14 67C14.5514 67 15 67.4486 15 68C15 68.5514 14.5514 69 14 69Z" fill="#ECECFE"/>
<path fill-rule="evenodd" clip-rule="evenodd" d="M10 17C9.4486 17 9 16.5514 9 16C9 15.4486 9.4486 15 10 15C10.5514 15 11 15.4486 11 16C11 16.5514 10.5514 17 10 17Z" fill="#ECECFE"/>
<path d="M44 27C44 26.4477 43.5523 26 43 26C39.2353 26 36.816 27.6129 36.0299 30.7575C35.8959 31.2933 36.2217 31.8362 36.7575 31.9701C37.2933 32.1041 37.8362 31.7783 37.9701 31.2425C38.5173 29.0538 40.098 28 43 28C43.5523 28 44 27.5523 44 27Z" fill="#E1000F"/>
<path d="M45 36C45.5523 36 46 36.4477 46 37C46 40.1924 44.0795 41.8728 41.124 42.2423C40.1392 42.3654 39.1124 42.3373 38.107 42.209L37.88 42.176L37.8612 42.268C37.2933 44.6851 35.0004 45.9334 31.3029 45.9974L31 46C30.4477 46 30 45.5523 30 45C30 44.4477 30.4477 44 31 44C34.513 44 36 43.0086 36 41C36 40.3494 36.6114 39.8721 37.2425 40.0299L37.4799 40.0824L37.8412 40.1485C37.8876 40.1563 37.936 40.1641 37.9864 40.172C38.9578 40.3238 39.9615 40.372 40.876 40.2577C42.9205 40.0022 44 39.0576 44 37C44 36.4477 44.4477 36 45 36Z" fill="#E1000F"/>
<path d="M56.4 40.2C56.8418 39.8686 57.4686 39.9582 57.8 40.4C60.1075 43.4767 60.1075 46.1301 57.5547 47.8321C55.0487 49.5027 52.4865 48.6486 50.2 45.6C49.8686 45.1582 49.9582 44.5314 50.4 44.2C50.8418 43.8686 51.4686 43.9582 51.8 44.4C53.5135 46.6847 54.9513 47.1639 56.4453 46.1679C57.8925 45.2032 57.8925 43.8566 56.2 41.6C55.8686 41.1582 55.9582 40.5314 56.4 40.2Z" fill="#E1000F"/>
<path d="M38.9999 8C41.7633 8 43.9379 9.27148 45.4361 11.7239L45.5479 11.913L45.5773 11.9097C48.8513 11.5265 51.5143 12.2421 53.4902 14.0836L53.707 14.2929C55.6319 16.2178 56.43 18.8326 56.1282 22.0613L56.1099 22.236L56.3564 22.3086C59.2872 23.1989 60.9003 25.0394 60.9954 27.7439L60.9999 28C60.9999 31.6421 59.1103 34 54.9999 34C51.7809 34 49.9999 32.219 49.9999 29C49.9999 28.4477 50.4476 28 50.9999 28C51.5521 28 51.9999 28.4477 51.9999 29C51.9999 31.1144 52.8855 32 54.9999 32C57.8962 32 58.9999 30.6228 58.9999 28C58.9999 25.8562 57.7044 24.5607 54.8037 23.9806C54.2761 23.8751 53.9266 23.371 54.0128 22.8399C54.5231 19.6945 53.9374 17.3517 52.2927 15.7071C50.6481 14.0625 48.3053 13.4768 45.16 13.9871C44.7282 14.0571 44.301 13.8384 44.1054 13.4472C42.9359 11.1081 41.2737 10 38.9999 10C34.3365 10 31.9999 11.363 31.9999 15C31.9999 17.8062 33.6159 19.4222 37.1643 20.0136C37.709 20.1044 38.077 20.6196 37.9863 21.1644C37.8955 21.7092 37.3802 22.0772 36.8355 21.9864C33.6872 21.4617 31.5731 20.1157 30.605 18.007C27.8344 18.1067 26.462 19.2744 25.97 21.2425C25.7289 22.2069 25.7289 23.2672 25.8777 24.2591L25.9202 24.5166L25.9561 24.6978C25.9613 24.7212 25.9659 24.7412 25.97 24.7575C26.1278 25.3886 25.6504 26 24.9999 26C20.7989 26 18.5681 27.6731 17.9921 31.124C17.3958 35.8945 18.975 38 22.9999 38C27.261 38 29.4988 36.8811 30.0297 34.7575C30.1637 34.2217 30.7066 33.8959 31.2424 34.0299C31.7782 34.1638 32.1039 34.7067 31.97 35.2425C31.1676 38.4523 28.0721 40 22.9999 40C17.6914 40 15.2706 36.7722 16.0135 30.8356C16.701 26.7106 19.3564 24.4119 23.7338 24.0505L23.8359 24.043L23.8123 23.809C23.7384 22.9292 23.7677 22.0231 23.9447 21.1362L24.0297 20.7575C24.7047 18.0575 26.6748 16.3047 30.0611 16.0361C30.0204 15.7035 29.9999 15.3581 29.9999 15C29.9999 9.97028 33.3775 8 38.9999 8Z" fill="#000091"/>
<path d="M17.4471 42.1056C16.9531 41.8586 16.3524 42.0588 16.1054 42.5528C13.9081 46.9475 14.3001 50.4751 17.3999 52.8L17.6152 52.957C20.2024 54.7878 22.8787 54.7172 25.438 52.8122L25.5359 52.737L25.6078 52.9131C27.2666 56.8701 30.2598 58.3008 34.3161 56.9487C35.3963 56.5886 36.2917 56.1288 36.9999 55.5771V64C36.9999 65.4477 36.4476 66 34.9999 66H22.9999L22.8832 66.0067C22.3859 66.0645 21.9999 66.4872 21.9999 67C21.9999 67.5523 22.4476 68 22.9999 68H40.9999L41.1165 67.9933C41.6138 67.9355 41.9999 67.5128 41.9999 67C41.9999 66.4477 41.5521 66 40.9999 66H38.6135C38.8424 65.4965 38.9721 64.9038 38.9959 64.229L38.9999 64V52C38.9999 51.9477 38.9958 51.8963 38.9881 51.8462C39.0497 50.5791 38.6875 49.1393 37.8943 47.5528C37.6473 47.0588 37.0466 46.8586 36.5526 47.1056C36.0587 47.3526 35.8584 47.9532 36.1054 48.4472C37.8402 51.9167 37.0906 53.9157 33.6836 55.0513C30.2577 56.1933 28.1467 54.8739 26.9614 50.7253C26.7519 49.9921 25.8319 49.7537 25.2928 50.2929C22.963 52.6227 20.849 52.8869 18.5999 51.2C16.3663 49.5249 16.0916 47.0525 17.8943 43.4472C18.1413 42.9532 17.941 42.3526 17.4471 42.1056Z" fill="#000091"/>
<path d="M62.4854 32.1425C62.9589 31.8584 63.5732 32.0119 63.8573 32.4855C65.6499 35.4731 65.7077 38.1378 64.6589 40.2913L64.5503 40.5049L64.5019 40.592L64.5364 40.6141C66.3059 41.8077 67.4086 44.3741 67.2643 47.0716L67.2464 47.333C66.9213 51.2337 64.1842 54.4887 59.2872 55.9578C54.7278 57.3257 50.9563 56.1608 47.9999 53.2986V64C47.9999 65.4409 48.2944 65.9513 48.9058 65.9966L48.9999 66H62.9999C63.5521 66 63.9999 66.4477 63.9999 67C63.9999 67.5128 63.6138 67.9355 63.1165 67.9933L62.9999 68H48.9999C47.0749 68 46.0682 66.5862 46.0032 64.2454L45.9999 64V51C45.9999 50.9915 46 50.9831 46.0002 50.9747C46.0005 50.9621 46.001 50.9496 46.0018 50.9371C45.6134 50.3809 45.2635 49.8113 44.9508 49.2388L44.7579 48.874L44.6551 48.9568C43.7951 49.6102 42.6568 49.9553 41.2787 49.9959L40.9999 50C40.4476 50 39.9999 49.5523 39.9999 49C39.9999 48.4477 40.4476 48 40.9999 48C42.6499 48 43.6258 47.5121 44.1054 46.5528C44.4794 45.8049 45.5326 45.8289 45.8912 46.5456L46.0674 46.9733C46.1829 47.2438 46.3244 47.5474 46.4922 47.8756C46.9733 48.8161 47.5659 49.757 48.2715 50.6311C50.9211 53.9132 54.329 55.3572 58.7125 54.0422C62.8353 52.8053 64.9977 50.2338 65.2533 47.167C65.4564 44.7304 64.3226 42.4913 62.9005 42.0121L62.7573 41.9701C62.0032 41.7816 61.7431 40.8425 62.2927 40.2929L62.3344 40.2485L62.4392 40.1192L62.5664 39.9374C62.6344 39.8336 62.7079 39.7106 62.7827 39.5691C63.6234 37.9812 63.6234 35.9829 62.1424 33.5145C61.8582 33.0409 62.0118 32.4267 62.4854 32.1425Z" fill="#000091"/>
<path d="M67.707 67.7071C67.3164 68.0976 66.6833 68.0976 66.2928 67.7071C65.9022 67.3166 65.9022 66.6834 66.2928 66.2929C66.6833 65.9024 67.3164 65.9024 67.707 66.2929C68.0975 66.6834 68.0975 67.3166 67.707 67.7071Z" fill="#000091"/>
</svg>
